<svg width="34" height="31" viewBox="0 0 34 31" fill="none" xmlns="http://www.w3.org/2000/svg">
<path d="M14.9428 30.4592C13.7708 30.4053 13.4252 30.3857 13.2143 30.3612C13.0868 30.3489 12.849 30.3268 12.6872 30.3146C12.5254 30.2999 12.1846 30.2753 11.9272 30.2533C11.6722 30.2337 11.378 30.2067 11.2775 30.1944C11.177 30.1797 10.9686 30.1577 10.8166 30.143C10.6646 30.1307 10.4929 30.1086 10.4365 30.0939C10.3458 30.0743 9.8653 30.0106 9.59807 29.9811C9.54413 29.9762 9.424 29.9591 9.32838 29.9444C9.23522 29.9297 9.12489 29.9149 9.08321 29.91C8.89443 29.8904 8.62965 29.8487 8.57326 29.8267C8.53893 29.8144 8.44087 29.7948 8.35506 29.7875C8.2717 29.7776 8.16628 29.7605 8.1246 29.7482C8.08292 29.736 7.96033 29.709 7.85491 29.6894C7.67349 29.6575 7.57542 29.6379 7.19541 29.5472C7.1145 29.5276 6.99927 29.4933 6.93798 29.4712C6.87669 29.4491 6.81049 29.432 6.78843 29.432C6.74184 29.432 5.94014 29.177 5.8102 29.1206C5.76362 29.101 5.68026 29.0618 5.62387 29.0372C5.56993 29.0127 5.516 28.9907 5.50619 28.9907C5.4498 28.9907 4.62358 28.5763 4.52061 28.4979C4.5059 28.4856 4.44216 28.4488 4.37841 28.4145C4.27789 28.3606 4.15286 28.2821 3.87336 28.0909C3.59387 27.9021 3.40509 27.7501 3.16973 27.527C3.09618 27.4559 3.03243 27.3971 3.02998 27.3971C3.02017 27.3971 2.36557 26.7425 2.32389 26.691C2.1155 26.436 1.81884 26.0756 1.78207 26.0364C1.71097 25.9579 1.41186 25.5558 1.33341 25.4357C1.29418 25.3744 1.25741 25.3205 1.25005 25.3131C1.22308 25.2886 1.13727 25.1513 1.10295 25.0802C1.08334 25.041 1.06127 25.0018 1.05392 24.9944C1.04656 24.987 1.01469 24.9331 0.982817 24.8718C0.950945 24.8105 0.909266 24.7443 0.894556 24.7247C0.877394 24.7051 0.855329 24.6634 0.847974 24.634C0.838167 24.6046 0.803843 24.5335 0.771971 24.4746C0.691065 24.33 0.588094 24.1093 0.588094 24.0848C0.588094 24.0726 0.566029 24.026 0.53906 23.9769C0.512092 23.9279 0.490026 23.8789 0.490026 23.8642C0.490026 23.8495 0.475316 23.8029 0.455703 23.7612C0.436089 23.7171 0.399314 23.6067 0.372345 23.5111C0.345376 23.418 0.303698 23.2733 0.279181 23.1924C0.0560768 22.4201 -0.0517977 21.2678 0.0242048 20.471C0.078142 19.9145 0.186016 19.277 0.247309 19.1716C0.254664 19.1594 0.274277 19.0981 0.291439 19.0368C0.384604 18.7205 0.492478 18.4239 0.546415 18.3503C0.568481 18.3184 0.588094 18.2792 0.588094 18.2645C0.588094 18.2498 0.622418 18.1738 0.666548 18.0929C0.708227 18.012 0.776875 17.8796 0.816102 17.7987C0.85778 17.7178 0.919073 17.6074 0.953396 17.5535C0.98772 17.4996 1.02695 17.4334 1.04166 17.4064C1.1005 17.301 1.14218 17.2323 1.22063 17.1196C1.26231 17.0558 1.29909 16.997 1.29909 16.9896C1.29909 16.9823 1.33586 16.9234 1.37754 16.8597C1.42167 16.7959 1.4707 16.7248 1.48296 16.7028C1.5369 16.6219 1.67174 16.4453 1.76245 16.3399C1.81394 16.2786 1.91446 16.1536 1.98801 16.058C2.05911 15.9648 2.12285 15.8815 2.13266 15.8741C2.14002 15.8667 2.18415 15.8128 2.23073 15.7515C2.27731 15.6902 2.34596 15.6093 2.38273 15.5676C2.41951 15.5284 2.45138 15.4843 2.45383 15.4696C2.45383 15.4573 2.51512 15.396 2.58622 15.3347C2.65732 15.2734 2.71862 15.2146 2.71862 15.2023C2.72107 15.1901 2.78236 15.1214 2.85591 15.0528C2.92946 14.9817 2.99075 14.913 2.99075 14.8983C2.99075 14.8836 3.07411 14.7978 3.17463 14.7046C3.33644 14.56 3.40509 14.4521 3.33644 14.4521C3.2825 14.4521 3.05695 13.8784 2.97849 13.545C2.96133 13.4714 2.92946 13.3562 2.90985 13.2876C2.75784 12.7923 2.72107 12.6501 2.65977 12.3314C2.64016 12.2382 2.61319 12.1206 2.59848 12.074C2.44648 11.5983 2.31654 10.5637 2.31899 9.84293C2.31899 9.18833 2.41706 8.59993 2.58868 8.2052C2.60829 8.16107 2.64506 8.05565 2.67448 7.97229C2.70145 7.88894 2.76275 7.73938 2.80933 7.64131C2.85591 7.54079 2.89269 7.45499 2.89269 7.45008C2.89269 7.42311 3.06185 7.06517 3.15257 6.9009C3.17218 6.86658 3.18689 6.82 3.18689 6.79793C3.18689 6.77341 3.19915 6.7538 3.21141 6.7538C3.22612 6.7538 3.23592 6.74154 3.23592 6.72683C3.23592 6.70967 3.28005 6.62876 3.33399 6.54296C3.38793 6.45715 3.43206 6.38114 3.43206 6.37379C3.43206 6.35172 3.69684 5.9521 3.81452 5.79764C3.87091 5.72164 3.94446 5.61376 3.97388 5.55983C4.05234 5.42253 4.47648 4.88316 4.64565 4.70419C4.67261 4.67477 4.77068 4.56444 4.8663 4.45902C5.10411 4.18933 5.31741 3.97603 5.58955 3.73577C5.71704 3.62299 5.83962 3.51266 5.86169 3.49305C5.93524 3.4244 6.04311 3.33369 6.14118 3.26259C6.19512 3.22336 6.2515 3.17923 6.26376 3.16452C6.27847 3.14981 6.35448 3.09342 6.43538 3.03949C6.60455 2.92916 6.9625 2.66683 6.99927 2.62515C7.03114 2.59328 7.10224 2.5467 7.18315 2.50747C7.21747 2.49031 7.28367 2.44863 7.33025 2.41185C7.37683 2.37753 7.51413 2.29417 7.63181 2.23043C7.74949 2.16668 7.85982 2.10294 7.87698 2.08578C7.89414 2.07107 7.98976 2.01713 8.09027 1.96319C8.19079 1.91171 8.37957 1.81364 8.50706 1.74499C9.05869 1.45569 9.48774 1.2522 9.60787 1.22523C9.64955 1.21788 9.68878 1.19826 9.69613 1.18601C9.70594 1.17375 9.72801 1.16394 9.74762 1.16394C9.76723 1.16394 9.83098 1.14188 9.88491 1.11491C9.9413 1.08794 9.99769 1.06587 10.0099 1.06587C10.0222 1.06587 10.0663 1.04871 10.108 1.0291C10.1521 1.00948 10.2919 0.960451 10.4194 0.91632C10.5469 0.874642 10.6572 0.832963 10.6646 0.823156C10.6793 0.803542 11.1426 0.656441 11.302 0.622117C11.3633 0.607407 11.4466 0.580438 11.4908 0.560825C11.5325 0.541211 11.5913 0.526501 11.6207 0.526501C11.6501 0.526501 11.6943 0.514243 11.7188 0.501984C11.7629 0.477467 11.9027 0.445595 12.2336 0.379399C12.3072 0.364689 12.4837 0.330366 12.6259 0.300945C12.7681 0.273977 12.9226 0.247008 12.9691 0.244556C13.0157 0.242105 13.0574 0.237201 13.0623 0.232298C13.0721 0.220039 13.1015 0.217588 13.3001 0.197974C13.408 0.188167 13.6286 0.163651 13.7905 0.144037C13.9523 0.121972 14.2342 0.0950032 14.4156 0.0827447C14.5971 0.0704862 14.928 0.0459692 15.1511 0.0312591C15.7077 -0.0104197 18.1275 -0.0104197 18.7429 0.0312591C19.0003 0.0484209 19.3632 0.0729379 19.5519 0.0827447C19.9442 0.107262 20.6601 0.171006 20.9494 0.210233C21.0573 0.224943 21.1872 0.239653 21.2387 0.244556C21.5893 0.27888 22.5356 0.489726 22.7146 0.575535C22.7416 0.587793 22.8029 0.607407 22.8495 0.622117C22.9794 0.656441 23.2197 0.747153 23.3153 0.796187C23.4379 0.85748 23.5335 0.904062 23.6463 0.960451C23.7296 0.999678 24.0214 1.15904 24.1783 1.24975C24.2739 1.30614 24.6171 1.55621 24.6637 1.60525C24.6711 1.6126 24.725 1.65673 24.7863 1.70331C24.8476 1.74744 24.953 1.84551 25.0241 1.91661C25.0928 1.98771 25.1614 2.04655 25.1761 2.04655C25.1908 2.04655 25.2031 2.05636 25.2031 2.06616C25.2031 2.07842 25.2276 2.1152 25.2546 2.14707C25.3919 2.30153 25.4728 2.4094 25.4728 2.43392C25.4728 2.44863 25.4875 2.47069 25.5071 2.4805C25.539 2.50011 25.767 2.85806 25.767 2.88993C25.767 2.89974 25.8013 2.95613 25.8405 3.01497C25.8822 3.07381 25.9141 3.13265 25.9141 3.14736C25.9141 3.16207 25.9361 3.22091 25.9631 3.2773C26.0416 3.45137 26.1789 3.84609 26.196 3.94906C26.2034 4.00055 26.2205 4.06675 26.2328 4.09371C26.2451 4.12068 26.2647 4.2212 26.2794 4.31437C26.2941 4.40998 26.3162 4.54728 26.3284 4.62083C26.3505 4.75812 26.3799 5.00574 26.4314 5.49608C26.4559 5.71428 26.4559 5.83932 26.4314 6.08449C26.4142 6.25856 26.3897 6.43263 26.375 6.47186C26.3627 6.51354 26.3431 6.62876 26.3309 6.72928C26.3186 6.8298 26.2965 7.00142 26.2794 7.11175C26.2426 7.35692 26.2573 7.42311 26.3578 7.46479C26.4387 7.49912 26.4314 7.50157 26.8114 7.29563C26.9266 7.23188 27.2355 7.12156 27.618 7.00387C28.052 6.87148 28.0569 6.87148 28.481 6.8911C28.7017 6.89845 28.888 6.91806 28.8953 6.93032C28.9027 6.94013 28.9174 6.94503 28.9272 6.93768C28.9542 6.92297 29.344 7.04555 29.42 7.09704C29.4543 7.11665 29.5377 7.16078 29.6039 7.19511C29.7142 7.24659 29.854 7.3324 29.8858 7.36918C29.8932 7.37653 29.9667 7.43047 30.0525 7.48686C30.1359 7.5457 30.2045 7.60209 30.2045 7.61189C30.2045 7.6217 30.2511 7.66093 30.31 7.70261C30.4742 7.82029 31.1852 8.54354 31.1852 8.59257C31.1852 8.59993 31.2367 8.66122 31.298 8.72741C31.4206 8.85981 31.6461 9.15156 31.7614 9.32808C31.803 9.38937 31.8398 9.44331 31.8496 9.45066C31.857 9.45802 31.9158 9.54873 31.982 9.65415C32.0458 9.75958 32.112 9.8601 32.1267 9.87726C32.1536 9.90668 32.2051 9.99739 32.2958 10.1739C32.3228 10.2278 32.3596 10.2891 32.3767 10.3112C32.4062 10.3431 32.4895 10.4975 32.6759 10.8604C32.72 10.9462 32.8107 11.1448 32.9137 11.3752C32.9897 11.5518 33.0485 11.7062 33.0485 11.7332C33.0485 11.7479 33.0706 11.8067 33.0951 11.8631C33.1221 11.9195 33.1613 12.0298 33.1834 12.1108C33.2054 12.1917 33.2422 12.329 33.2692 12.4172C33.2937 12.5055 33.328 12.6379 33.3427 12.7114C33.3599 12.785 33.3819 12.8806 33.3917 12.9198C33.4383 13.0841 33.5021 13.4371 33.5634 13.8392C33.5903 14.0133 33.6173 14.3173 33.6173 14.435C33.6173 14.484 33.6247 14.5257 33.6369 14.5257C33.6565 14.5257 33.6516 15.5112 33.6296 15.6534C33.6222 15.7 33.605 15.8373 33.5903 15.9575C33.5462 16.3228 33.3991 16.8719 33.2667 17.1661C33.2422 17.225 33.2201 17.2789 33.2201 17.2863C33.2201 17.2936 33.203 17.3402 33.1809 17.3892C33.1588 17.4407 33.1245 17.5241 33.1024 17.5756C33.0093 17.7913 32.7273 18.3307 32.617 18.495C32.5778 18.5538 32.5361 18.62 32.5214 18.6421C32.4846 18.7009 32.3522 18.875 32.3351 18.8897C32.3277 18.897 32.2909 18.9485 32.2566 19.0025C32.2223 19.0588 32.1438 19.1643 32.0874 19.2354C32.0286 19.3089 31.9722 19.3874 31.9624 19.4119C31.9551 19.434 31.9354 19.4536 31.9207 19.4536C31.9085 19.4536 31.8962 19.4707 31.8962 19.4903C31.8962 19.5075 31.8791 19.5345 31.8594 19.5467C31.8374 19.5565 31.7859 19.6178 31.7418 19.6791C31.6976 19.7404 31.5898 19.8728 31.499 19.9709C31.4108 20.0714 31.271 20.2381 31.1852 20.3435C31.1019 20.4465 31.0234 20.5323 31.0112 20.5323C30.9989 20.5323 30.9891 20.5446 30.9891 20.5568C30.9891 20.5715 30.9695 20.601 30.9474 20.6255C30.9229 20.65 30.8444 20.7358 30.7709 20.8167C30.6998 20.8952 30.5895 21.0177 30.5257 21.0864C30.4644 21.155 30.3639 21.2654 30.3026 21.334C30.0795 21.5816 29.675 22.0205 29.5426 22.1529C29.469 22.2289 29.2876 22.4201 29.1381 22.577C28.682 23.0625 28.0054 23.7538 27.4537 24.3006C27.341 24.4109 27.1203 24.6315 26.9634 24.7909C26.8065 24.9503 26.5883 25.1636 26.4804 25.2641C26.3701 25.3646 26.2818 25.4602 26.2818 25.4774C26.2818 25.4945 26.2647 25.5093 26.2451 25.5093C26.223 25.5093 26.2009 25.5264 26.1936 25.546C26.1838 25.5656 26.1691 25.5828 26.1543 25.5828C26.12 25.5828 26.0171 25.7103 25.9999 25.7765C25.9925 25.8084 25.9729 25.8476 25.9558 25.8672C25.9386 25.8844 25.8822 25.9726 25.8283 26.0609C25.5659 26.4948 25.1443 27.1323 25.0781 27.1911C25.0535 27.2132 25.0315 27.2475 25.0315 27.2647C25.0315 27.2818 25.0217 27.299 25.0094 27.3039C24.9996 27.3088 24.8868 27.4338 24.7618 27.5809C24.4431 27.9585 23.9797 28.4072 23.6365 28.6695C23.5752 28.7161 23.5065 28.7749 23.4845 28.797C23.4109 28.8705 22.8421 29.2309 22.6215 29.3437C22.5724 29.3707 22.5307 29.4001 22.5307 29.4123C22.5307 29.4222 22.516 29.432 22.4964 29.432C22.4793 29.432 22.342 29.4933 22.1973 29.5668C22.0502 29.6404 21.9129 29.7016 21.8933 29.7016C21.8737 29.7016 21.8345 29.7188 21.8099 29.7384C21.783 29.758 21.7438 29.7752 21.7217 29.7752C21.7021 29.7752 21.6457 29.7948 21.5991 29.8218C21.5525 29.8463 21.4667 29.8757 21.4103 29.8855C21.3515 29.8953 21.3 29.91 21.2926 29.9223C21.2853 29.9321 21.2387 29.9493 21.1897 29.9591C21.099 29.9738 20.8366 30.0449 20.6748 30.0964C20.6331 30.1086 20.5326 30.1307 20.4542 30.1454C20.3757 30.1577 20.258 30.1797 20.1894 30.1944C20.0153 30.2263 19.5961 30.2851 19.2945 30.3146C19.1523 30.3293 18.9831 30.3513 18.9169 30.3636C18.8042 30.3881 18.6105 30.4004 17.517 30.4617C17.0414 30.4886 15.5263 30.4862 14.9428 30.4592ZM17.3577 29.2236C19.3607 29.1476 20.4444 28.9686 21.4275 28.5518C21.6702 28.4488 22.1409 28.1988 22.315 28.0811C22.391 28.0271 22.4645 27.9855 22.4793 27.9855C22.4915 27.9855 22.5136 27.9707 22.5234 27.9536C22.5332 27.9389 22.5969 27.8849 22.6607 27.8384C22.7269 27.7918 22.798 27.7329 22.82 27.7109C22.8421 27.6864 22.8691 27.6667 22.8813 27.6667C22.9108 27.6667 23.7566 26.8258 23.7566 26.7964C23.7566 26.7817 23.7787 26.7572 23.8056 26.74C23.8326 26.7228 23.8547 26.6934 23.8547 26.6738C23.8547 26.6542 23.862 26.637 23.8743 26.637C23.8841 26.637 23.9282 26.5806 23.9748 26.5144C24.0214 26.4458 24.068 26.3919 24.0802 26.3919C24.0925 26.3919 24.1072 26.3722 24.117 26.3502C24.1366 26.2938 24.3474 25.9898 24.3744 25.98C24.3842 25.9751 24.394 25.9579 24.394 25.9432C24.394 25.9285 24.4406 25.8451 24.4995 25.7569C24.6147 25.5779 24.6318 25.5509 24.725 25.3671C24.7593 25.2984 24.8035 25.2249 24.8206 25.2077C24.8893 25.139 25.4532 23.923 25.6346 23.4498C25.6738 23.3493 25.713 23.2635 25.7228 23.2586C25.7351 23.2537 25.7425 23.2341 25.7425 23.2145C25.7425 23.1924 25.7866 23.0698 25.8381 22.9399C25.892 22.8099 25.9411 22.6751 25.9509 22.6408C25.9582 22.6064 25.9754 22.5574 25.9876 22.5304C26.1298 22.1897 26.3407 21.1428 26.4044 20.4588C26.4191 20.3043 26.4412 20.0812 26.4559 19.966C26.4853 19.6963 26.4853 18.2081 26.4559 17.936C26.4412 17.8207 26.4191 17.5878 26.4044 17.4187C26.3775 17.1147 26.3676 17.0387 26.2941 16.5851C26.2254 16.1708 26.1887 15.9893 26.1396 15.7883C25.8773 14.7488 25.4899 14.1064 24.6956 13.4028C24.1636 12.9272 23.5482 12.5324 22.3346 11.8827C22.0747 11.7454 21.4888 11.4905 21.2804 11.4267C21.2068 11.4047 21.0965 11.3703 21.0352 11.3507C20.8783 11.3017 20.3267 11.1987 20.0545 11.1693C19.4686 11.1056 19.194 11.0933 18.3604 11.0933C17.4092 11.0933 16.7325 11.1227 16.4138 11.1816C16.2863 11.2036 16.0705 11.2159 15.8008 11.2134C15.4135 11.211 15.2419 11.2208 14.526 11.2894C14.2122 11.3189 13.5159 11.4022 13.2952 11.4365C13.2094 11.4512 13.0672 11.4733 12.9765 11.4856C12.5229 11.5567 11.4957 11.7602 11.1892 11.8435C10.5125 12.0225 9.85059 12.2529 9.34554 12.481C9.27444 12.5128 9.2107 12.5398 9.20579 12.5398C9.17147 12.5398 8.44822 12.8904 8.10989 13.0694C7.02624 13.6431 6.04066 14.3173 5.04527 15.1558C4.57945 15.5505 3.7753 16.3301 3.7753 16.389C3.7753 16.4012 3.71891 16.465 3.65026 16.5287C3.32173 16.8352 2.69655 17.6393 2.29692 18.2719C2.09834 18.5832 1.74039 19.2918 1.74039 19.3702C1.74039 19.3996 1.72813 19.4291 1.71342 19.434C1.69871 19.4389 1.67665 19.4977 1.66439 19.5639C1.65213 19.6325 1.63006 19.6889 1.61781 19.6938C1.59329 19.7036 1.51729 19.9439 1.47561 20.1523C1.35547 20.7284 1.3138 21.3953 1.37264 21.8023C1.38489 21.893 1.40696 22.0671 1.42412 22.1872C1.48051 22.6187 1.67419 23.3125 1.84581 23.695C1.91446 23.847 1.90956 23.8544 1.95859 23.5234C1.97575 23.4229 2.03214 23.2071 2.08608 23.0453C2.18169 22.756 2.47099 22.1259 2.53964 22.0597C2.55926 22.0401 2.57397 22.0082 2.57397 21.9886C2.57397 21.969 2.58377 21.9543 2.59358 21.9543C2.60339 21.9543 2.6279 21.9175 2.64261 21.8709C2.65977 21.8244 2.68919 21.7802 2.70881 21.7729C2.72842 21.7655 2.74558 21.7435 2.74558 21.7214C2.74558 21.7018 2.75784 21.6846 2.7701 21.6846C2.78481 21.6846 2.80933 21.6552 2.82404 21.6184C2.85101 21.5596 2.95398 21.4125 3.02753 21.3267C3.04224 21.312 3.09618 21.2458 3.15011 21.1796C3.46148 20.802 4.01066 20.3681 4.34409 20.2406C4.44216 20.2038 4.46177 20.1523 4.46177 19.9439C4.46177 19.7502 4.56719 19.0539 4.65055 18.7058C4.67016 18.6249 4.69468 18.5097 4.70939 18.4484C4.77559 18.1321 5.12863 17.2519 5.19973 17.2274C5.21199 17.2225 5.22179 17.2078 5.22179 17.1931C5.22179 17.1612 5.36644 16.9504 5.43509 16.8866C5.46696 16.8572 5.49148 16.8205 5.49148 16.8082C5.49148 16.7297 6.7492 15.5333 6.83501 15.5309C6.84972 15.5309 6.86443 15.5211 6.86443 15.5088C6.86443 15.4892 6.95514 15.4156 7.1096 15.3102C7.13902 15.2906 7.17824 15.2587 7.19786 15.244C7.21502 15.2269 7.23709 15.2121 7.24934 15.2121C7.25915 15.2121 7.30818 15.1778 7.35477 15.1386C7.40135 15.0969 7.4749 15.0479 7.51903 15.0283C7.56316 15.0062 7.61219 14.9768 7.62936 14.9572C7.75684 14.8297 8.7743 14.3075 9.24747 14.1236C10.032 13.822 11.3118 13.4935 12.2582 13.3513C13.0623 13.2312 13.4595 13.187 14.2072 13.1405C15.1144 13.0816 15.6758 13.0939 16.7447 13.1919C17.6372 13.2729 18.1398 13.3587 19.0248 13.5793C20.4811 13.9446 21.4692 14.457 22.3199 15.2832C23.0358 15.9844 23.5457 16.7714 23.8939 17.7153C24.1292 18.3552 24.2347 18.924 24.2592 19.662C24.2837 20.3754 24.2224 21.2458 24.0998 21.9666C24.0851 22.0475 24.068 22.2019 24.0582 22.3098C24.0508 22.4177 24.0361 22.5108 24.0263 22.5182C24.0018 22.5329 23.7566 23.5136 23.7566 23.5896C23.7566 23.619 23.7468 23.646 23.737 23.6509C23.7272 23.6558 23.661 23.82 23.5923 24.0162C23.151 25.2518 22.4793 26.1173 21.3956 26.8405C21.0769 27.0514 20.4909 27.3505 20.2041 27.4461C19.5912 27.652 18.8777 27.7231 17.5489 27.7109C16.9531 27.706 16.6173 27.7133 16.6026 27.728C16.5903 27.7427 16.5511 27.8482 16.5143 27.9634C16.3893 28.3606 16.1588 28.7406 15.867 29.0446C15.6636 29.253 15.6219 29.2334 16.2789 29.2554C16.3525 29.2579 16.8379 29.2432 17.3577 29.2236ZM13.2119 28.6204C13.332 28.5935 13.9302 28.3042 14.244 28.1203C14.6044 27.9095 14.8447 27.6251 14.9256 27.3112C15.0065 26.995 15.0384 26.1001 14.9771 25.7642C14.9354 25.524 14.7981 25.1832 14.6951 25.0606C14.6633 25.0214 14.6363 24.9797 14.6363 24.9674C14.6363 24.9429 14.6118 24.9086 14.5333 24.8203C14.5088 24.7958 14.4892 24.7664 14.4892 24.7566C14.4892 24.7492 14.472 24.7247 14.4524 24.7026C14.3396 24.5776 14.3176 24.5531 14.3176 24.5408C14.3176 24.5261 14.1999 24.3888 14.1043 24.2957C14.0601 24.254 14.0234 24.2049 14.0234 24.1902C14.0234 24.1731 14.0136 24.1608 14.0013 24.1608C13.989 24.1608 13.9694 24.1388 13.9621 24.1118C13.9547 24.0848 13.9327 24.048 13.9155 24.0309C13.8689 23.9843 13.6997 23.6239 13.6728 23.5111C13.6605 23.4572 13.6458 23.2831 13.6385 23.1262C13.6262 22.7903 13.6728 22.5721 13.8174 22.3024C13.9327 22.0916 13.9817 22.0254 14.1729 21.8342C14.3936 21.6135 14.7417 21.3708 15.1634 21.1428C15.2173 21.1134 15.2664 21.0815 15.2737 21.0741C15.2811 21.0643 15.3595 21.0055 15.4478 20.9442C15.791 20.7015 15.8572 20.5397 15.715 20.2871C15.6905 20.2406 15.6341 20.1327 15.59 20.0469C15.5483 19.9611 15.4968 19.8851 15.4797 19.8777C15.4601 19.8704 15.4454 19.8532 15.4454 19.8385C15.4454 19.8091 15.1266 19.4781 15.0997 19.4781C15.0923 19.4781 15.0359 19.4315 14.9771 19.3776C14.8128 19.2231 14.6314 19.0932 14.5578 19.076C14.5211 19.0687 14.472 19.0392 14.4475 19.0147C14.423 18.9902 14.3666 18.9608 14.3249 18.951C14.2808 18.9436 14.244 18.924 14.244 18.9117C14.244 18.8995 14.2269 18.8897 14.2048 18.8897C14.1852 18.8897 14.1509 18.8725 14.1312 18.8529C14.1092 18.8333 14.0675 18.8161 14.0332 18.8161C14.0013 18.8161 13.9743 18.8063 13.9743 18.7916C13.9743 18.7794 13.9474 18.7671 13.913 18.7671C13.8787 18.7671 13.8518 18.7573 13.8518 18.7426C13.8518 18.7303 13.8199 18.7181 13.7807 18.7181C13.7414 18.7181 13.7047 18.7083 13.6997 18.696C13.6973 18.6837 13.5649 18.6568 13.4104 18.6372C13.1285 18.6004 13.1285 18.6004 12.9152 18.7009C12.7951 18.7548 12.6995 18.8088 12.6995 18.8161C12.6995 18.8259 12.6455 18.8603 12.5769 18.8921C12.5107 18.924 12.4543 18.9583 12.4543 18.9681C12.4543 18.9804 12.4445 18.9877 12.4298 18.9877C12.4175 18.9877 12.3832 19.0098 12.3562 19.0368C12.3293 19.0638 12.29 19.0858 12.2704 19.0858C12.2508 19.0858 12.2336 19.0981 12.2336 19.1103C12.2336 19.125 12.2189 19.1348 12.2018 19.1348C12.1822 19.1348 12.1356 19.1667 12.0963 19.2084C12.0571 19.2476 12.0154 19.282 12.0032 19.282C11.9762 19.282 11.8659 19.3996 11.8659 19.4266C11.8659 19.4389 11.8389 19.456 11.8046 19.4634C11.7286 19.483 11.6452 19.5516 11.6452 19.5933C11.6452 19.6105 11.6305 19.6252 11.6158 19.6252C11.5986 19.6252 11.5496 19.6595 11.5055 19.6987C11.4614 19.7404 11.4148 19.7723 11.4025 19.7723C11.3878 19.7723 11.3755 19.787 11.3755 19.8066C11.3755 19.8262 11.3437 19.8556 11.302 19.8753C11.2628 19.8924 11.2284 19.9145 11.2284 19.9243C11.2284 19.9366 11.2137 19.9439 11.199 19.9439C11.1647 19.9439 11.0323 20.0984 11.0323 20.1376C11.0323 20.1499 10.998 20.167 10.9563 20.1768C10.9097 20.1866 10.8656 20.2209 10.8386 20.2651C10.8166 20.3043 10.77 20.346 10.7332 20.3582C10.694 20.373 10.6646 20.3975 10.6646 20.4171C10.6646 20.4367 10.6253 20.471 10.5787 20.4931C10.5322 20.5152 10.4831 20.5568 10.4684 20.5813C10.4537 20.6083 10.4267 20.6304 10.4071 20.6304C10.3875 20.6304 10.3483 20.6647 10.3164 20.7039C10.287 20.7456 10.2478 20.7775 10.2306 20.7775C10.2134 20.7775 10.1987 20.7873 10.1987 20.7995C10.1987 20.8118 10.1718 20.829 10.1374 20.8363C10.0982 20.8461 10.0761 20.8682 10.0761 20.9001C10.0761 20.9344 10.059 20.9491 10.0222 20.9491C9.99034 20.9491 9.94375 20.9663 9.91924 20.9859C9.89227 21.0055 9.85059 21.0227 9.82607 21.0227C9.80401 21.0227 9.76233 21.0447 9.73536 21.0741C9.68142 21.133 9.54903 21.1673 9.38477 21.1698C9.31857 21.1698 9.26709 21.182 9.26709 21.1943C9.26709 21.209 9.22296 21.2188 9.16902 21.2188C9.11508 21.2188 9.07095 21.2286 9.07095 21.2409C9.07095 21.2531 9.0023 21.2703 8.91895 21.2776C8.83314 21.285 8.65416 21.3021 8.51932 21.3193C8.26925 21.3487 8.07802 21.3536 7.9113 21.3389C7.85246 21.334 7.81078 21.3438 7.79852 21.3634C7.78136 21.388 7.67594 21.3978 7.38909 21.4051C6.94043 21.4125 6.71242 21.4345 6.69036 21.4689C6.66339 21.5105 6.44764 21.5473 6.24415 21.5498C6.10195 21.5498 6.05537 21.5571 6.05537 21.5841C6.05537 21.6086 6.0284 21.6135 5.9524 21.6062C5.89356 21.5988 5.77097 21.6037 5.67536 21.616C5.51845 21.6356 5.4449 21.6552 5.3076 21.7091C5.28063 21.7189 5.22179 21.741 5.18011 21.7582C5.13598 21.7753 5.09921 21.7974 5.09921 21.8072C5.09921 21.817 5.07469 21.8317 5.04527 21.8415C4.97908 21.8562 4.89817 21.9151 4.80255 22.0107C4.76578 22.0475 4.72655 22.0769 4.71674 22.0769C4.68978 22.0769 4.55984 22.2044 4.55984 22.2313C4.55984 22.2436 4.52061 22.2877 4.47403 22.3294C4.42745 22.3686 4.38822 22.4152 4.38822 22.4324C4.38822 22.4495 4.37106 22.4692 4.35144 22.479C4.33183 22.4863 4.31467 22.5157 4.31467 22.5427C4.31467 22.5697 4.29751 22.5917 4.27789 22.5917C4.23131 22.5917 4.11853 22.7609 4.11853 22.8296C4.11853 22.8614 4.10873 22.8859 4.09647 22.8859C4.08421 22.8859 4.05969 22.9252 4.04253 22.9717C4.02537 23.0183 4.00085 23.0576 3.99104 23.0576C3.98124 23.0576 3.97143 23.0796 3.97143 23.1066C3.97143 23.1336 3.96408 23.1556 3.95182 23.1556C3.94201 23.1556 3.91994 23.1924 3.90278 23.2365C3.88317 23.2782 3.85865 23.342 3.84394 23.3763C3.78755 23.5111 3.77775 23.5381 3.76304 23.6165C3.75323 23.6582 3.73607 23.695 3.72381 23.695C3.71155 23.695 3.70174 23.7391 3.70174 23.7931C3.70174 23.847 3.69194 23.8911 3.67723 23.8911C3.62329 23.8911 3.65761 24.2221 3.72626 24.3937C3.73852 24.4207 3.7753 24.509 3.80717 24.5899C3.84149 24.6708 3.88807 24.7909 3.91014 24.8547C3.9322 24.9208 3.96653 24.9797 3.98614 24.987C4.00575 24.9944 4.03763 25.0385 4.05969 25.0851C4.10137 25.1709 4.29505 25.3376 4.35389 25.3376C4.37351 25.3376 4.38822 25.3474 4.38822 25.3597C4.38822 25.372 4.41274 25.3916 4.44461 25.4014C4.47403 25.4112 4.50345 25.4259 4.5108 25.4357C4.54022 25.4774 4.88346 25.5926 5.07469 25.6245C5.26592 25.6564 5.31986 25.6564 5.70478 25.6098C5.99898 25.5754 6.17305 25.5411 6.28093 25.5019C6.36673 25.4676 6.48932 25.4234 6.55306 25.4014C6.85462 25.3058 7.6171 24.737 8.33054 24.0799C8.71546 23.7244 9.04643 23.4989 9.18373 23.4989C9.28915 23.4989 9.40193 23.6092 9.42154 23.7367C9.44851 23.8887 9.44116 24.2246 9.40929 24.3496C9.37741 24.4795 9.26709 24.7321 9.23767 24.7443C9.22786 24.7492 9.21805 24.7786 9.21805 24.8105C9.21805 24.8399 9.20089 24.8718 9.18128 24.8816C9.16166 24.889 9.1445 24.9233 9.1445 24.9576C9.1445 24.9919 9.1347 25.0189 9.11999 25.0189C9.10773 25.0189 9.08321 25.0679 9.0685 25.1292C9.05379 25.1905 9.02682 25.2396 9.00966 25.2396C8.97043 25.2396 8.94837 25.296 8.94837 25.4014C8.94837 25.448 8.93856 25.4847 8.92385 25.4847C8.91159 25.4847 8.89933 25.4994 8.89933 25.5166C8.89933 25.5951 8.8454 25.7299 8.81352 25.7299C8.78656 25.7299 8.77675 25.7618 8.77675 25.8623C8.77675 25.9481 8.76449 25.9996 8.74733 26.0045C8.72526 26.0118 8.713 26.1075 8.7081 26.3306C8.70075 26.5904 8.70565 26.6493 8.73507 26.6664C8.75713 26.6787 8.7792 26.7425 8.78901 26.8332C8.79881 26.9141 8.81598 26.9803 8.82578 26.9803C8.83804 26.9803 8.86746 27.0734 8.89443 27.1887C8.9214 27.3039 8.97534 27.4485 9.01211 27.5123C9.08566 27.6398 9.35044 27.9095 9.45587 27.9609C9.49264 27.9806 9.55639 28.0222 9.59561 28.0541C9.72065 28.1546 10.2257 28.3777 10.3287 28.3777C10.3532 28.3777 10.3973 28.39 10.4243 28.4047C10.4978 28.4439 10.9808 28.5322 11.3633 28.5763C11.807 28.6303 13.05 28.6597 13.2119 28.6204ZM18.559 25.9873C19.2553 25.926 19.471 25.877 19.8707 25.6809C21.023 25.1194 21.6947 24.3177 22.0747 23.0551C22.2439 22.4912 22.3273 22.1112 22.4449 21.3536C22.4842 21.1036 22.5307 20.6672 22.5332 20.5323C22.5332 20.4441 22.543 20.3215 22.5528 20.2602C22.5798 20.0984 22.5185 19.2869 22.4572 19.0123C22.1556 17.6222 21.2215 16.3865 20.008 15.7785C19.3656 15.4549 18.4413 15.1778 17.517 15.0283C16.9924 14.9449 16.9997 14.9474 16.2667 14.864C15.9087 14.8248 14.3911 14.8248 14.0356 14.864C13.8885 14.8812 13.6605 14.9057 13.533 14.9204C12.1821 15.065 10.6646 15.4181 9.7942 15.7883C8.87482 16.1781 8.01427 16.7592 7.28612 17.4775C6.91101 17.8477 6.75901 18.0267 6.63642 18.2522C6.48932 18.517 6.31525 19.0883 6.2515 19.5149C6.23925 19.5835 6.22454 19.6669 6.21473 19.7061C6.19266 19.7845 6.17795 19.7845 6.55061 19.738C6.70262 19.7184 6.92082 19.6963 7.03605 19.6865C7.65387 19.6423 8.55119 19.5443 8.8503 19.4854C8.95082 19.4658 9.06605 19.434 9.10773 19.4143C9.14941 19.3947 9.32593 19.255 9.5 19.103C9.67652 18.9534 9.88001 18.7843 9.95356 18.7303C10.0271 18.6788 10.2208 18.5072 10.3826 18.3503C10.8509 17.8992 11.5153 17.4334 12.1061 17.1392C12.8 16.7935 13.3859 16.7616 14.2391 17.0239C15.183 17.3157 15.7714 17.6687 16.4922 18.3797C16.8919 18.772 17.0831 19.0343 17.2621 19.4536C17.5906 20.216 17.6028 20.9295 17.2988 21.4738C17.2204 21.6135 17.1517 21.7067 16.9164 21.9862C16.7889 22.1382 16.2789 22.5084 15.8131 22.783C15.6709 22.8688 15.5189 22.9668 15.4748 23.0061C15.3939 23.0747 15.3939 23.0747 15.5581 23.2684C16.2936 24.1314 16.5829 24.7321 16.6884 25.6073C16.7104 25.7887 16.7349 25.9457 16.7423 25.9555C16.7644 25.9824 17.3013 26.0168 17.7499 26.0192C17.973 26.0217 18.3359 26.0069 18.559 25.9873ZM28.4786 21.4149C28.7679 21.1134 29.013 20.8535 29.2165 20.6304C29.2974 20.5421 29.4004 20.4318 29.447 20.3828C29.4936 20.3337 29.5867 20.2283 29.6529 20.1499C29.7216 20.0714 29.827 19.9537 29.8932 19.89C29.9569 19.8262 30.0084 19.7649 30.0084 19.7527C30.0084 19.7429 30.0722 19.6669 30.1506 19.586C30.2266 19.5026 30.3516 19.3653 30.4252 19.282C30.4987 19.1986 30.5748 19.1152 30.5919 19.0956C30.6066 19.0785 30.6213 19.0539 30.6213 19.0392C30.6213 19.0245 30.6311 19.0123 30.6434 19.0123C30.6532 19.0123 30.712 18.9461 30.7709 18.8652C30.8297 18.7843 30.8861 18.7181 30.8959 18.7181C30.9082 18.7181 30.9155 18.7058 30.9155 18.6935C30.9155 18.6666 31.1901 18.3086 31.2441 18.2645C31.2588 18.2522 31.3078 18.1811 31.3519 18.1125C31.3936 18.0414 31.4525 17.9605 31.4819 17.9311C31.5088 17.9041 31.5481 17.8428 31.5677 17.7987C31.5848 17.7521 31.6118 17.7104 31.6265 17.7006C31.6388 17.6933 31.6707 17.6393 31.6952 17.5829C31.7197 17.5265 31.7565 17.4628 31.7761 17.4432C31.7957 17.4236 31.8227 17.3745 31.8398 17.3329C31.8545 17.2936 31.9232 17.1343 31.9943 16.9823C32.2909 16.3277 32.4307 15.6608 32.4013 15.0283C32.3792 14.4815 32.3351 14.1824 32.1487 13.2508C32.0997 13.013 31.9722 12.5839 31.8791 12.3437C31.6658 11.8043 31.2906 11.0835 30.9719 10.603C30.9082 10.5049 30.8273 10.3848 30.7954 10.3357C30.5502 9.96552 30.1751 9.52421 29.8049 9.16381C29.0473 8.43076 28.6134 8.28856 27.8803 8.53373C27.6352 8.61709 26.9928 8.95542 26.5295 9.24472C26.1691 9.46783 25.0094 10.2475 24.5853 10.5515C24.1243 10.88 24.1243 10.88 24.4136 11.0565C24.7544 11.2649 25.1369 11.5101 25.1541 11.5322C25.1614 11.5395 25.2104 11.5787 25.2644 11.618C25.637 11.8901 26.0612 12.2628 26.3505 12.5766C26.5491 12.7899 27.0173 13.3734 27.0173 13.4052C27.0173 13.4126 27.0639 13.4935 27.1203 13.5842C27.287 13.8588 27.4758 14.2879 27.5959 14.6556C27.6572 14.8468 27.7234 15.0356 27.743 15.0724C27.7627 15.1116 27.7774 15.168 27.7774 15.1999C27.7774 15.2293 27.8068 15.3911 27.8411 15.5578C27.9073 15.8692 27.9245 15.955 27.9711 16.2517C27.9858 16.3424 28.0054 16.4306 28.0152 16.4453C28.0299 16.4699 28.0495 16.6807 28.1182 17.5412C28.2064 18.6568 28.15 20.6819 28.0078 21.4272C27.9367 21.8072 27.9171 21.893 27.9 21.969C27.8828 22.0377 27.9 22.0278 28.0544 21.8587C28.1525 21.7557 28.3413 21.5571 28.4786 21.4149ZM5.63858 11.032C7.78381 10.37 8.33544 10.2131 9.13224 10.0489C9.62013 9.94836 9.63729 9.94591 9.78194 9.90668C9.92414 9.8699 10.2061 9.83558 10.7013 9.7939C10.9857 9.76938 11.1206 9.75467 11.5717 9.69583C11.9002 9.65415 12.1061 9.62964 12.3636 9.60022C12.496 9.58551 12.6136 9.56834 12.6259 9.56099C12.6382 9.55363 13.1604 9.54138 13.7831 9.53647C14.4083 9.52912 15.1659 9.51196 15.4699 9.49725C15.7739 9.48254 16.2201 9.46292 16.4628 9.45066C17.316 9.40898 19.0273 9.39427 19.547 9.42369C20.3169 9.46783 20.8611 9.53892 21.2975 9.64925C21.5329 9.71054 21.5525 9.70809 21.6359 9.62228C21.6751 9.58305 21.7143 9.54873 21.7241 9.54873C21.7364 9.54873 21.7732 9.52176 21.8099 9.48744C21.8467 9.45312 21.886 9.42615 21.8982 9.42615C21.9105 9.42615 21.962 9.39427 22.011 9.3575C22.1949 9.2153 22.6778 8.88677 22.6999 8.88677C22.7122 8.88677 22.7391 8.86716 22.7563 8.84019C22.7735 8.81568 22.8274 8.76909 22.874 8.73722C23.0015 8.65141 23.026 8.62935 23.3324 8.33514C23.4869 8.18804 23.6414 8.01887 23.6781 7.96249C23.7149 7.90364 23.7517 7.85706 23.7615 7.85706C23.7688 7.85706 23.7909 7.81784 23.8056 7.77125C23.8203 7.72467 23.8424 7.68544 23.8547 7.68544C23.8669 7.68544 23.8865 7.64867 23.9012 7.60699C23.9135 7.56286 23.965 7.43292 24.014 7.31769C24.0631 7.20246 24.1121 7.08723 24.1243 7.06026C24.1685 6.95484 24.2739 6.5356 24.3082 6.33701C24.4063 5.74861 24.4063 5.62847 24.3058 4.90277C24.2592 4.57179 24.2273 4.44676 24.1194 4.17462C23.992 3.85345 23.889 3.69899 23.6463 3.45627C23.2466 3.05665 22.7293 2.75754 22.0772 2.55405C21.5991 2.40205 20.9224 2.27946 20.2262 2.21817C20.0717 2.20591 19.8241 2.18385 19.6745 2.16914C19.5274 2.15443 19.118 2.13236 18.7674 2.1201C18.4168 2.10539 18.0049 2.08823 17.8554 2.07842C17.6543 2.06862 17.5783 2.07107 17.5783 2.09313C17.5783 2.13236 16.4113 2.13236 16.3868 2.09313C16.3745 2.07352 16.2863 2.06862 16.0852 2.08087C15.9283 2.08823 15.5606 2.10539 15.2688 2.1201C14.2514 2.16423 13.0795 2.32114 12.4175 2.50011C11.9566 2.62515 11.6403 2.72077 11.3633 2.81883C11.1892 2.88258 10.9955 2.94877 10.9342 2.97084C10.8729 2.99045 10.792 3.02232 10.7504 3.03949C10.7111 3.05665 10.5567 3.12039 10.4071 3.18168C10.1448 3.28956 9.89717 3.40234 9.74517 3.48324C9.70594 3.50531 9.53432 3.59602 9.36515 3.68428C9.19599 3.77254 9.03172 3.86326 8.9974 3.88532C8.96308 3.90984 8.88707 3.95397 8.82578 3.98339C8.65662 4.0692 7.88924 4.58405 7.80833 4.66741C7.76665 4.70909 7.72252 4.74341 7.70781 4.74341C7.69065 4.74341 7.64407 4.77774 7.59994 4.81696C7.55581 4.85864 7.51658 4.89051 7.51167 4.89051C7.46754 4.89051 7.01398 5.29014 6.7492 5.55983C6.57022 5.7437 6.40596 5.90552 6.38144 5.92513C6.33241 5.95945 6.11421 6.21443 5.98182 6.38605C5.93524 6.44734 5.88865 6.50128 5.87885 6.50373C5.86659 6.50863 5.85923 6.52825 5.85923 6.54786C5.85923 6.56992 5.82736 6.61405 5.78568 6.64838C5.74646 6.68025 5.71213 6.72928 5.71213 6.75625C5.71213 6.78077 5.70233 6.80284 5.68762 6.80284C5.67536 6.80284 5.6631 6.82 5.6631 6.83961C5.6631 6.86168 5.64839 6.88374 5.62878 6.8911C5.58219 6.90826 5.44245 7.1093 5.44245 7.15588C5.44245 7.17794 5.43264 7.19511 5.41793 7.19511C5.40567 7.19511 5.39341 7.21227 5.39341 7.23188C5.39341 7.25149 5.38361 7.26866 5.37135 7.26866C5.33948 7.26866 5.17276 7.54079 5.17276 7.59228C5.17276 7.6168 5.16295 7.63641 5.15315 7.63641C5.12618 7.63641 5.02566 7.81784 5.02566 7.86687C5.02566 7.88893 5.01585 7.9061 5.00114 7.9061C4.97172 7.9061 4.85404 8.14391 4.85404 8.2052C4.85404 8.22972 4.84423 8.24933 4.83197 8.24933C4.80746 8.24933 4.76578 8.34985 4.74371 8.46508C4.73391 8.50676 4.71674 8.54354 4.70449 8.54354C4.69223 8.54354 4.68242 8.56315 4.68242 8.59012C4.68242 8.64651 4.56229 8.96768 4.53532 8.98484C4.52306 8.9922 4.48629 9.11478 4.45196 9.25943C4.39803 9.48254 4.38822 9.5806 4.38822 9.89197C4.38822 10.0955 4.40048 10.3431 4.41274 10.4387C4.46912 10.8236 4.52551 11.1546 4.56229 11.2943C4.58435 11.385 4.58435 11.385 4.68978 11.3385C4.74617 11.3115 5.17521 11.1742 5.63858 11.032Z" fill="black"/>
<path d="M15.7837 29.3144C15.5778 29.3071 15.568 29.3046 15.568 29.2531C15.568 29.2164 15.6317 29.133 15.7518 29.0153C16.0559 28.7138 16.3108 28.297 16.4408 27.89C16.4775 27.7748 16.5168 27.6669 16.529 27.6522C16.5437 27.6301 16.7963 27.6277 17.4509 27.6375C18.1766 27.6473 18.4463 27.6399 18.841 27.6081C19.6868 27.5345 20.106 27.4242 20.7116 27.1153C21.3221 26.8063 21.8002 26.4607 22.2415 26.0145C22.8421 25.4089 23.2099 24.8107 23.5164 23.9428C23.5874 23.7466 23.6512 23.5799 23.6586 23.5726C23.6659 23.5652 23.6733 23.5382 23.6733 23.5113C23.6806 23.4353 23.9307 22.4595 23.9503 22.4448C23.9577 22.4374 23.9675 22.3786 23.9699 22.3099C23.9724 22.2437 23.9846 22.1261 23.9993 22.0525C24.0459 21.8024 24.0802 21.5622 24.1513 20.9615C24.1906 20.6354 24.1906 19.3753 24.1513 19.135C24.1342 19.0345 24.1121 18.8898 24.0974 18.8163C23.965 18.0734 23.6831 17.3281 23.2736 16.6465C22.5626 15.4599 21.4888 14.5528 20.2017 14.0477C19.5863 13.805 18.7576 13.5795 17.9216 13.425C17.2768 13.3049 15.8475 13.1774 15.1634 13.1774C14.5677 13.1774 13.4374 13.2656 12.773 13.3613C12.2508 13.4348 12.138 13.4544 11.6575 13.55C10.7896 13.7192 9.96585 13.9497 9.32105 14.1973C8.84787 14.3812 7.83042 14.9034 7.70293 15.0309C7.68577 15.0505 7.63674 15.0799 7.59261 15.102C7.54848 15.1216 7.47493 15.1706 7.42834 15.2123C7.38176 15.2515 7.33273 15.2858 7.32292 15.2858C7.31066 15.2858 7.2886 15.3006 7.27144 15.3177C7.25182 15.3324 7.21259 15.3643 7.18317 15.3839C7.02872 15.4893 6.93801 15.5629 6.93801 15.5825C6.93801 15.5948 6.92329 15.6046 6.90858 15.6046C6.82278 15.607 5.56506 16.8034 5.56506 16.8819C5.56506 16.8942 5.54054 16.9309 5.50867 16.9603C5.43757 17.0265 5.29537 17.2349 5.29537 17.2693C5.29537 17.284 5.28311 17.2962 5.2684 17.2962C5.25614 17.2962 5.24879 17.306 5.25614 17.3183C5.26595 17.3306 5.26105 17.3453 5.24879 17.3502C5.18014 17.3747 4.78052 18.3872 4.78052 18.5392C4.78052 18.5638 4.76335 18.63 4.74374 18.6888C4.72167 18.7476 4.71187 18.804 4.71922 18.8163C4.72658 18.8285 4.72168 18.858 4.70942 18.8825C4.66038 18.9756 4.5427 19.7675 4.53289 20.074C4.52554 20.2652 4.52554 20.2652 4.37599 20.3339C3.98372 20.5153 3.55222 20.861 3.22369 21.2557C3.16975 21.3195 3.11582 21.3857 3.10111 21.4004C3.03736 21.4715 2.92949 21.6259 2.93439 21.6382C2.93684 21.648 2.91233 21.6848 2.88045 21.7191C2.84613 21.7559 2.81916 21.7951 2.81916 21.8098C2.81916 21.8221 2.802 21.8392 2.78239 21.8466C2.76277 21.8539 2.73335 21.8981 2.71619 21.9446C2.70148 21.9912 2.67696 22.028 2.66716 22.028C2.65735 22.028 2.64754 22.0427 2.64754 22.0623C2.64754 22.0819 2.63038 22.1163 2.60832 22.1359C2.5887 22.1579 2.5789 22.1751 2.5887 22.1751C2.59851 22.1751 2.5887 22.1947 2.56909 22.2192C2.49799 22.2977 2.31166 22.6973 2.19888 23.0087C2.0861 23.32 2.02481 23.5701 1.99784 23.8251C1.98313 23.9526 1.97823 23.9648 1.92184 23.9648C1.87036 23.9648 1.84829 23.9379 1.787 23.8006C1.60312 23.3911 1.40944 22.7071 1.3506 22.2609C1.33344 22.1408 1.31137 21.9667 1.29911 21.876C1.26724 21.6602 1.26724 20.9517 1.29911 20.7114C1.37266 20.1525 1.49034 19.6253 1.54428 19.6253C1.55654 19.6253 1.56144 19.6082 1.55409 19.5886C1.54428 19.569 1.55164 19.5518 1.5688 19.5518C1.58351 19.5518 1.59086 19.542 1.58351 19.5297C1.56389 19.5003 1.61783 19.3557 1.64725 19.3557C1.65951 19.3557 1.66196 19.3434 1.65461 19.3287C1.63009 19.2919 2.02481 18.5098 2.2234 18.1985C2.62548 17.5635 3.24821 16.7618 3.57673 16.4553C3.64538 16.3916 3.70177 16.3278 3.70177 16.3156C3.70177 16.2567 4.50593 15.4771 4.97175 15.0824C5.96713 14.2439 6.95272 13.5697 8.03636 12.996C8.3747 12.817 9.09795 12.4664 9.13227 12.4664C9.13717 12.4664 9.20092 12.4394 9.27202 12.4076C9.77707 12.1795 10.439 11.9491 11.1157 11.7701C11.4222 11.6868 12.4494 11.4833 12.903 11.4122C12.9937 11.3999 13.1359 11.3778 13.2217 11.3631C13.4423 11.3288 14.1386 11.2455 14.4524 11.216C15.1978 11.1449 15.3645 11.1351 15.7273 11.1376C15.9725 11.14 16.203 11.1278 16.3402 11.1057C16.7105 11.0469 17.3479 11.0199 18.3604 11.0199C19.2627 11.0199 19.5397 11.0322 20.1281 11.0959C20.4003 11.1253 20.9519 11.2283 21.1088 11.2773C21.1701 11.2969 21.2804 11.3313 21.354 11.3533C21.5624 11.4171 22.1483 11.672 22.4082 11.8093C23.6218 12.459 24.2372 12.8538 24.7692 13.3294C25.5635 14.033 25.9509 14.6754 26.2132 15.7149C26.2622 15.9159 26.299 16.0974 26.3677 16.5117C26.4412 16.9653 26.451 17.0413 26.478 17.3453C26.4927 17.5144 26.5148 17.7473 26.5295 17.8626C26.5589 18.1347 26.5589 19.7675 26.5295 20.0397C26.5148 20.1549 26.4927 20.378 26.478 20.5325C26.4314 21.04 26.3039 21.7485 26.1838 22.1874C26.1421 22.3369 26.1029 22.484 26.0955 22.5159C26.0882 22.5502 26.0759 22.587 26.0661 22.6017C26.0588 22.6164 26.049 22.6409 26.049 22.6532C26.0465 22.6679 26.0367 22.6998 26.0269 22.7267C25.8675 23.1166 25.816 23.2563 25.816 23.2882C25.816 23.3102 25.8038 23.3274 25.7866 23.3274C25.7719 23.3274 25.767 23.3348 25.7744 23.3446C25.7842 23.3519 25.7793 23.374 25.7646 23.3936C25.7498 23.4108 25.7449 23.4255 25.7547 23.4255C25.7646 23.4255 25.7621 23.4402 25.7474 23.4573C25.7327 23.472 25.6886 23.5701 25.6493 23.6706C25.4605 24.1438 24.9457 25.2446 24.904 25.2593C24.8942 25.2642 24.8893 25.2789 24.8991 25.2912C24.9065 25.3035 24.9016 25.3133 24.8868 25.3133C24.8746 25.3133 24.8329 25.3721 24.7986 25.4432C24.7054 25.6246 24.6883 25.6516 24.573 25.8306C24.5142 25.9188 24.4676 26.0022 24.4676 26.0169C24.4676 26.0316 24.4578 26.0488 24.448 26.0537C24.421 26.0635 24.2102 26.3675 24.1906 26.4239C24.1808 26.446 24.166 26.4656 24.1538 26.4656C24.1415 26.4656 24.095 26.5195 24.0484 26.5881C24.0018 26.6543 23.9552 26.7107 23.9454 26.7107C23.9331 26.7107 23.9307 26.7205 23.9405 26.7328C23.9478 26.7451 23.9258 26.7769 23.8915 26.8039C23.8571 26.8309 23.8302 26.8627 23.8302 26.875C23.8302 26.902 22.9819 27.7404 22.9549 27.7404C22.9427 27.7404 22.9157 27.7601 22.8936 27.7846C22.8716 27.8066 22.8005 27.8655 22.7343 27.9121C22.6705 27.9586 22.6068 28.0126 22.597 28.0273C22.5872 28.0445 22.5651 28.0592 22.5528 28.0592C22.5381 28.0592 22.4646 28.1008 22.3886 28.1548C22.2145 28.2725 21.7438 28.5225 21.5011 28.6255C20.768 28.9369 19.9859 29.106 18.7552 29.2237C18.3261 29.2654 16.5535 29.3389 16.2177 29.3291C16.0975 29.3242 15.9014 29.3193 15.7837 29.3144Z" fill="#1F8E9E"/>
<path d="M27.7774 22.1577C27.7799 22.1455 27.8019 22.0327 27.8289 21.9052C27.8534 21.7777 27.8877 21.6012 27.9 21.5154C27.9147 21.4296 27.9294 21.3511 27.9368 21.3413C27.9441 21.3315 27.9539 21.2628 27.9588 21.1917C27.9637 21.1182 27.9858 20.8951 28.0103 20.6916C28.1157 19.7452 28.1084 18.1615 27.9956 17.0631C27.9785 16.916 27.9637 16.737 27.9613 16.6684C27.9588 16.5973 27.949 16.5311 27.9392 16.5164C27.9319 16.5041 27.9123 16.4158 27.8975 16.3251C27.851 16.0236 27.8338 15.9402 27.7676 15.6289C27.7308 15.4597 27.6965 15.2954 27.6941 15.2611C27.6916 15.2268 27.6769 15.1728 27.6622 15.1385C27.6475 15.1042 27.5837 14.9203 27.5224 14.7291C27.4023 14.3589 27.2135 13.9323 27.0468 13.6577C26.9904 13.567 26.9438 13.4861 26.9438 13.4787C26.9438 13.4468 26.4756 12.8633 26.277 12.65C25.9877 12.3362 25.5635 11.9636 25.1909 11.6914C25.1369 11.6522 25.0879 11.613 25.0806 11.6056C25.0634 11.5836 24.421 11.1741 24.2028 11.0442C24.1023 10.9853 24.0165 10.9216 24.0092 10.902C24.0018 10.8848 24.0165 10.8481 24.041 10.8235C24.1685 10.701 25.8651 9.53885 26.456 9.17109C26.9218 8.87934 27.5617 8.54346 27.8068 8.4601C28.1378 8.34978 28.5742 8.31545 28.8243 8.38165C29.1479 8.46746 29.4372 8.66359 29.8785 9.09019C30.2487 9.45059 30.6238 9.89189 30.869 10.2621C30.9009 10.3111 30.9818 10.4313 31.0455 10.5293C31.3642 11.0099 31.7394 11.7307 31.9526 12.27C32.0458 12.5103 32.1733 12.9393 32.2223 13.1772C32.4185 14.1627 32.4552 14.4251 32.4749 15.0404C32.4896 15.467 32.4798 15.5774 32.394 16.0456C32.3719 16.1609 32.3523 16.2712 32.3498 16.2908C32.3474 16.3104 32.34 16.3447 32.3302 16.3644C32.313 16.406 32.1684 16.8302 32.1561 16.867C32.1537 16.8817 32.1022 16.992 32.0458 17.1121C31.987 17.2347 31.9379 17.3475 31.9379 17.3647C31.9379 17.3794 31.9281 17.3941 31.9159 17.3941C31.9061 17.3941 31.8963 17.4161 31.8963 17.4431C31.8963 17.4701 31.8865 17.4921 31.8742 17.4921C31.8619 17.4921 31.8203 17.5534 31.7835 17.627C31.7492 17.703 31.7075 17.7692 31.6977 17.7765C31.6854 17.7839 31.6584 17.8256 31.6413 17.8722C31.6217 17.9163 31.5824 17.9776 31.5555 18.0045C31.5261 18.034 31.4672 18.1149 31.4255 18.186C31.3814 18.2546 31.3324 18.3257 31.3177 18.338C31.2637 18.3821 30.9891 18.7401 30.9891 18.767C30.9891 18.7793 30.9818 18.7915 30.9695 18.7915C30.9597 18.7915 30.9033 18.8577 30.8445 18.9386C30.7856 19.0195 30.7268 19.0857 30.717 19.0857C30.7047 19.0857 30.6949 19.098 30.6949 19.1103C30.6949 19.1348 30.6336 19.2108 30.4865 19.3677C30.2879 19.581 30.0943 19.8041 30.0943 19.8188C30.0943 19.8262 30.0403 19.8899 29.9717 19.9585C29.9055 20.0247 29.7952 20.1449 29.7265 20.2233C29.6603 20.3018 29.5671 20.4072 29.5206 20.4562C29.474 20.5053 29.371 20.6156 29.2901 20.7039C29.2117 20.7921 28.9665 21.052 28.7483 21.28C28.5301 21.5105 28.2506 21.8047 28.1305 21.9346C27.9564 22.1234 27.8975 22.1724 27.8461 22.1749C27.8068 22.1749 27.7774 22.1675 27.7774 22.1577Z" fill="#1F8E9E"/>
<path d="M4.48883 11.3702C4.43244 11.1128 4.39321 10.8921 4.33928 10.5121C4.32702 10.4165 4.31476 10.137 4.31476 9.89428C4.31476 9.50201 4.32211 9.4211 4.3785 9.18084C4.41528 9.03374 4.4545 8.91115 4.46676 8.91115C4.47902 8.91115 4.48147 8.90134 4.47412 8.88663C4.46676 8.87438 4.47167 8.86212 4.48638 8.86212C4.50354 8.86212 4.51089 8.84741 4.50354 8.82779C4.49618 8.80818 4.50109 8.78857 4.51335 8.78366C4.5256 8.77876 4.54031 8.75179 4.54277 8.71992C4.54277 8.6905 4.55502 8.66598 4.56728 8.66598C4.57954 8.66598 4.58444 8.64882 4.57464 8.62921C4.56728 8.60959 4.57219 8.59243 4.5869 8.59243C4.60161 8.59243 4.60651 8.57037 4.5967 8.5434C4.5869 8.51153 4.59425 8.48946 4.61877 8.47965C4.63838 8.4723 4.64819 8.45023 4.64083 8.43062C4.63348 8.41101 4.63838 8.3963 4.65064 8.3963C4.6629 8.3963 4.67516 8.38159 4.67516 8.36197C4.67516 8.30803 4.73645 8.17564 4.76097 8.17564C4.77323 8.17564 4.77813 8.16829 4.77077 8.15603C4.75361 8.12906 4.89826 7.83241 4.92768 7.83241C4.94239 7.83241 4.94975 7.8226 4.93994 7.80789C4.92768 7.78828 5.03065 7.59704 5.07233 7.56272C5.07969 7.55537 5.08949 7.5333 5.0944 7.51369C5.10665 7.45975 5.21943 7.27097 5.27337 7.21703C5.29789 7.19251 5.3126 7.17045 5.30279 7.17045C5.29053 7.17045 5.30034 7.15574 5.31995 7.13858C5.33957 7.12142 5.35918 7.09445 5.36408 7.07483C5.37634 7.0209 5.51854 6.83212 5.55777 6.81741C5.57738 6.81005 5.58474 6.79289 5.57738 6.77818C5.57003 6.76347 5.57983 6.74631 5.59945 6.73895C5.62151 6.7316 5.63132 6.71443 5.62396 6.70218C5.61661 6.68992 5.64603 6.64088 5.69261 6.59675C5.73674 6.55017 5.77597 6.49869 5.78087 6.47907C5.78577 6.46191 5.79803 6.4423 5.80784 6.43494C5.81519 6.42759 5.86178 6.37365 5.90836 6.31236C6.0383 6.14319 6.25895 5.88821 6.30798 5.85144C6.3325 5.83183 6.49676 5.67001 6.67574 5.48614C6.94052 5.21645 7.39408 4.81682 7.43821 4.81682C7.44312 4.81682 7.48235 4.78495 7.52648 4.74327C7.57061 4.70405 7.61719 4.66972 7.63435 4.66972C7.64906 4.66972 7.69319 4.6354 7.73487 4.59372C7.81578 4.51036 8.58316 3.99551 8.75232 3.9097C8.81361 3.88028 8.88962 3.83615 8.92394 3.81163C8.95826 3.78957 9.12253 3.69885 9.29169 3.61059C9.46086 3.52233 9.63248 3.43162 9.67171 3.40955C9.82371 3.32865 10.0713 3.21587 10.3337 3.10799C10.4832 3.0467 10.6377 2.98296 10.6769 2.9658C10.7186 2.94863 10.7995 2.91676 10.8608 2.89715C10.9221 2.87508 11.1158 2.80889 11.2898 2.74514C11.5669 2.64708 11.8831 2.55146 12.3441 2.42642C13.0085 2.24745 14.173 2.09054 15.2076 2.04396C16.3918 1.99002 16.4286 1.99002 16.458 2.01944C16.4972 2.05867 17.5049 2.05867 17.5049 2.01944C17.5049 1.99983 17.6005 1.99493 17.8432 2.00473C18.0271 2.01209 18.4708 2.02925 18.8288 2.04396C19.1867 2.05867 19.6011 2.08074 19.7482 2.09545C19.8977 2.11016 20.1453 2.13222 20.2998 2.14448C21.1481 2.22048 21.8542 2.36268 22.4695 2.58578C22.6485 2.64953 23.0996 2.89225 23.3154 3.0369C23.5507 3.19626 23.916 3.56156 24.0239 3.74543C24.1171 3.90725 24.2617 4.25293 24.3083 4.43681C24.35 4.59617 24.4064 4.9958 24.4456 5.38807C24.475 5.7166 24.4603 5.96667 24.3794 6.42268C24.3426 6.63598 24.2372 7.04051 24.1857 7.15819C24.1048 7.35187 24.046 7.51369 24.0509 7.5284C24.0533 7.5382 24.0435 7.55291 24.0264 7.56272C24.0117 7.57253 23.9969 7.59459 23.992 7.61421C23.9798 7.69266 23.9479 7.75886 23.9259 7.75886C23.9111 7.75886 23.9087 7.77111 23.916 7.78337C23.9234 7.79808 23.9185 7.80789 23.9038 7.80789C23.8891 7.80789 23.8817 7.8177 23.8891 7.8275C23.8964 7.83976 23.8817 7.87163 23.8597 7.89615C23.8351 7.92067 23.7812 7.99177 23.7395 8.05306C23.6978 8.11435 23.5434 8.27861 23.3938 8.42081C23.0972 8.70521 23.0751 8.72482 22.9476 8.81063C22.901 8.8425 22.8471 8.88909 22.8299 8.9136C22.8128 8.94057 22.7858 8.96019 22.7736 8.96019C22.7515 8.96019 22.2685 9.28871 22.0846 9.43091C22.0356 9.46769 21.9841 9.49956 21.9719 9.49956C21.9596 9.49956 21.9204 9.52653 21.8836 9.56085C21.8468 9.59517 21.81 9.62214 21.7978 9.62214C21.788 9.62214 21.7438 9.66137 21.6973 9.70795C21.6507 9.75453 21.5918 9.79376 21.5649 9.79376C21.5379 9.79376 21.4055 9.76679 21.2682 9.73492C20.7215 9.60253 20.2851 9.54369 19.503 9.49956C19.0176 9.47014 17.3504 9.4824 16.561 9.52162C15.2567 9.58782 14.9355 9.59763 13.8666 9.60988C13.234 9.61724 12.7094 9.6295 12.6971 9.6344C12.6873 9.64176 12.5696 9.65892 12.4372 9.67363C12.1798 9.70305 11.9738 9.72757 11.6453 9.76924C11.1942 9.82808 11.0594 9.84279 10.775 9.86731C10.2797 9.90899 9.99778 9.94331 9.85558 9.98009C9.71093 10.0193 9.69377 10.0218 9.20589 10.1223C8.62729 10.2424 7.86481 10.4435 7.02388 10.7009C5.44499 11.1839 4.84923 11.3727 4.70948 11.4364C4.62367 11.4781 4.54522 11.5099 4.53541 11.5099C4.5256 11.5099 4.50599 11.4462 4.48883 11.3702ZM5.00123 8.8376C5.08949 8.82534 5.26111 8.80328 5.38124 8.78857C5.50383 8.77386 5.673 8.75179 5.76126 8.73953C6.03585 8.70276 6.30063 8.66843 6.63161 8.62675C6.80813 8.60714 7.2764 8.54585 7.67358 8.49436C8.07075 8.44043 8.48999 8.38649 8.60522 8.37178C8.85039 8.33991 9.03182 8.31539 9.50009 8.24919C9.68887 8.22468 10.064 8.17319 10.3337 8.13887C10.6034 8.10454 11.0618 8.04325 11.3511 8.00402C11.6404 7.9648 11.9616 7.92067 12.0621 7.90596C13.0281 7.77357 14.325 7.58969 15.0041 7.48917C15.1733 7.46465 15.4994 7.41562 15.7274 7.3813C17.3676 7.13858 18.8827 6.87625 19.5888 6.71443C21.3761 6.3001 23.0653 5.5793 24.0092 4.82418C24.2029 4.66972 24.2053 4.65992 24.1024 4.35345C23.9871 4.01022 23.8695 3.78956 23.7052 3.60814C23.5287 3.412 23.129 3.10554 22.8447 2.94863C22.2293 2.60785 21.2412 2.37739 19.9688 2.28177C18.2673 2.15429 17.0587 2.11996 15.9235 2.169C14.6143 2.22538 13.8788 2.29648 13.1163 2.43623C11.3707 2.7574 9.62267 3.49536 8.0732 4.5643C7.10724 5.22871 6.22708 6.11132 5.59209 7.04786C5.25131 7.54801 4.86639 8.26881 4.69477 8.72237C4.62612 8.9087 4.58935 8.89399 5.00123 8.8376Z" fill="#1F8E9E"/>
<path d="M15.7764 29.3144C15.6562 29.3095 15.5459 29.2973 15.5336 29.285C15.5189 29.2703 15.5949 29.1722 15.742 29.0227C16.0853 28.6696 16.3059 28.3117 16.4408 27.89C16.4775 27.7748 16.5168 27.6669 16.529 27.6522C16.5437 27.6301 16.7963 27.6277 17.4509 27.6375C18.1766 27.6473 18.4463 27.6399 18.841 27.6081C19.6868 27.5345 20.106 27.4242 20.7116 27.1153C21.3221 26.8063 21.8002 26.4607 22.2415 26.0145C22.8421 25.4089 23.2099 24.8107 23.5164 23.9428C23.5874 23.7466 23.6512 23.5799 23.6586 23.5726C23.6659 23.5652 23.6733 23.5382 23.6733 23.5113C23.6831 23.4009 23.938 22.4448 23.9601 22.4448C23.9724 22.4448 23.9773 22.4693 23.9699 22.5012C23.8302 23.1435 23.7811 23.3298 23.6291 23.7932C23.2418 24.997 22.6092 25.8894 21.6335 26.62C21.2338 26.9191 20.5326 27.304 20.1453 27.434C19.4686 27.6595 18.2428 27.7625 17.0267 27.6914C16.7006 27.6718 16.605 27.6742 16.583 27.6988C16.5683 27.7135 16.5266 27.8164 16.4898 27.9243C16.3427 28.346 16.0902 28.7628 15.8058 29.0447C15.7028 29.1477 15.644 29.2213 15.6562 29.2384C15.6783 29.2752 17.6298 29.2531 18.1668 29.2115C19.1254 29.1379 19.6844 29.0693 20.2654 28.9516C21.2069 28.7603 22.1459 28.3239 22.8667 27.738C23.8228 26.9584 24.6686 25.7644 25.3502 24.2223C25.5782 23.7074 25.8283 23.092 25.9533 22.7439C26.1274 22.2585 26.3113 21.4519 26.3799 20.8757C26.3946 20.7482 26.4192 20.5594 26.4314 20.4589C26.4829 20.0593 26.5074 18.9462 26.4804 18.2745C26.4559 17.6321 26.4437 17.4899 26.3652 16.8672C26.3284 16.5828 26.2279 16.0336 26.1495 15.7026C25.9362 14.8029 25.5905 14.1973 24.9187 13.5451C24.3769 13.0205 23.7909 12.6233 22.6779 12.0202C21.6482 11.4612 21.1333 11.2847 20.1404 11.1498C19.8609 11.1106 19.6231 11.1057 18.2281 11.1057C16.8061 11.1057 16.6124 11.1106 16.4359 11.1498C16.2863 11.1817 16.0853 11.194 15.6513 11.2013C14.3666 11.2209 12.3808 11.4955 11.1181 11.8265C9.48777 12.2556 7.725 13.1063 6.17553 14.212C5.39344 14.7734 4.85652 15.2319 4.11611 15.9699C2.59115 17.4973 1.69383 18.9119 1.43395 20.1966C1.27705 20.986 1.29176 21.724 1.48789 22.69C1.5786 23.1386 1.86055 23.933 1.90713 23.8766C1.91939 23.8643 1.94145 23.7662 1.95862 23.6584C2.0052 23.3617 2.20379 22.7905 2.38766 22.4252C2.87555 21.4469 3.57673 20.6698 4.30734 20.302C4.4618 20.226 4.48631 20.1843 4.48631 20.0127C4.48631 19.9392 4.50838 19.721 4.53535 19.5248C4.70696 18.2843 5.00852 17.4629 5.52093 16.8476C6.0603 16.1979 6.67077 15.656 7.50189 15.0946C8.65419 14.3125 10.01 13.7928 11.6943 13.4863C11.9566 13.4373 12.2288 13.3882 12.295 13.3735C12.4298 13.349 13.0231 13.2681 13.3737 13.2264C13.8052 13.1774 14.6927 13.1284 15.1487 13.1284C15.9357 13.1284 17.0292 13.2191 17.7745 13.3466C19.6133 13.6628 20.8612 14.1409 21.8075 14.896C22.3003 15.2883 22.6607 15.6781 23.1633 16.3646C23.2687 16.5068 23.4722 16.8721 23.6218 17.1761C23.8817 17.7204 24.0925 18.3946 24.1881 19.0173C24.2421 19.3581 24.2519 20.5864 24.2028 20.9983C24.1366 21.5499 24.117 21.6848 24.0606 22.028C24.0263 22.2241 23.9895 22.3933 23.9748 22.408C23.9503 22.4325 23.9626 22.2315 23.9993 22.0525C24.0361 21.8735 24.0802 21.5524 24.1513 20.9615C24.1906 20.6354 24.1906 19.3753 24.1513 19.135C24.1342 19.0345 24.1121 18.8898 24.0974 18.8163C23.965 18.0734 23.6831 17.3281 23.2736 16.6465C22.5626 15.4599 21.4888 14.5528 20.2017 14.0477C19.5863 13.805 18.7576 13.5795 17.9216 13.425C17.2768 13.3049 15.8475 13.1774 15.1634 13.1774C14.5677 13.1774 13.4374 13.2656 12.773 13.3613C12.2508 13.4348 12.138 13.4544 11.6575 13.55C10.7896 13.7192 9.96585 13.9497 9.32105 14.1973C8.84787 14.3812 7.83042 14.9034 7.70293 15.0309C7.68577 15.0505 7.63674 15.0799 7.59261 15.102C7.54848 15.1216 7.47493 15.1706 7.42834 15.2123C7.38176 15.2515 7.33273 15.2858 7.32292 15.2858C7.31066 15.2858 7.2886 15.3006 7.27144 15.3177C7.25182 15.3324 7.21259 15.3643 7.18317 15.3839C7.02872 15.4893 6.93801 15.5629 6.93801 15.5825C6.93801 15.5948 6.92329 15.6046 6.90858 15.6046C6.82278 15.607 5.56506 16.8034 5.56506 16.8819C5.56506 16.8942 5.54054 16.9309 5.50867 16.9603C5.43757 17.0265 5.29537 17.2349 5.29537 17.2693C5.29537 17.284 5.28311 17.2962 5.2684 17.2962C5.25614 17.2962 5.24879 17.306 5.25614 17.3183C5.26595 17.3306 5.26105 17.3453 5.24879 17.3502C5.18014 17.3747 4.78052 18.3872 4.78052 18.5392C4.78052 18.5638 4.76335 18.63 4.74374 18.6888C4.72167 18.7476 4.71187 18.804 4.71922 18.8163C4.72658 18.8285 4.72168 18.858 4.70942 18.8825C4.66038 18.9756 4.5427 19.7675 4.53289 20.074C4.52554 20.2652 4.52554 20.2652 4.37599 20.3339C3.98372 20.5153 3.55222 20.861 3.22369 21.2557C3.16975 21.3195 3.11582 21.3857 3.10111 21.4004C3.03736 21.4715 2.92949 21.6259 2.93439 21.6382C2.93684 21.648 2.91233 21.6848 2.88045 21.7191C2.84613 21.7559 2.81916 21.7951 2.81916 21.8098C2.81916 21.8221 2.802 21.8392 2.78239 21.8466C2.76277 21.8539 2.73335 21.8981 2.71619 21.9446C2.70148 21.9912 2.67696 22.028 2.66716 22.028C2.65735 22.028 2.64754 22.0427 2.64754 22.0623C2.64754 22.0819 2.63038 22.1163 2.60832 22.1359C2.5887 22.1579 2.5789 22.1751 2.5887 22.1751C2.59851 22.1751 2.5887 22.1947 2.56909 22.2192C2.50289 22.2928 2.31411 22.69 2.20869 22.9817C2.0763 23.3372 2.01746 23.5922 1.99539 23.8815C1.98559 24.009 1.97088 24.1119 1.96107 24.1119C1.88016 24.1119 1.55654 23.2587 1.43641 22.7267C1.40453 22.5919 1.36531 22.3835 1.3506 22.2609C1.33344 22.1408 1.31137 21.9667 1.29911 21.876C1.26724 21.6602 1.26724 20.9517 1.29911 20.7114C1.37266 20.1525 1.49034 19.6253 1.54428 19.6253C1.55654 19.6253 1.56144 19.6082 1.55409 19.5886C1.54428 19.569 1.55164 19.5518 1.5688 19.5518C1.58351 19.5518 1.59086 19.542 1.58351 19.5297C1.56389 19.5003 1.61783 19.3557 1.64725 19.3557C1.65951 19.3557 1.66196 19.3434 1.65461 19.3287C1.63009 19.2919 2.02481 18.5098 2.2234 18.1985C2.62548 17.5635 3.24821 16.7618 3.57673 16.4553C3.64538 16.3916 3.70177 16.3278 3.70177 16.3156C3.70177 16.2567 4.50593 15.4771 4.97175 15.0824C5.96713 14.2439 6.95272 13.5697 8.03636 12.996C8.3747 12.817 9.09795 12.4664 9.13227 12.4664C9.13717 12.4664 9.20092 12.4394 9.27202 12.4076C9.77707 12.1795 10.439 11.9491 11.1157 11.7701C11.4222 11.6868 12.4494 11.4833 12.903 11.4122C12.9937 11.3999 13.1359 11.3778 13.2217 11.3631C13.4423 11.3288 14.1386 11.2455 14.4524 11.216C15.1978 11.1449 15.3645 11.1351 15.7273 11.1376C15.9725 11.14 16.203 11.1278 16.3402 11.1057C16.7105 11.0469 17.3479 11.0199 18.3604 11.0199C19.2627 11.0199 19.5397 11.0322 20.1281 11.0959C20.4003 11.1253 20.9519 11.2283 21.1088 11.2773C21.1701 11.2969 21.2804 11.3313 21.354 11.3533C21.5624 11.4171 22.1483 11.672 22.4082 11.8093C23.6218 12.459 24.2372 12.8538 24.7692 13.3294C25.5635 14.033 25.9509 14.6754 26.2132 15.7149C26.2622 15.9159 26.299 16.0974 26.3677 16.5117C26.4412 16.9653 26.451 17.0413 26.478 17.3453C26.4927 17.5144 26.5148 17.7473 26.5295 17.8626C26.5589 18.1347 26.5589 19.7675 26.5295 20.0397C26.5148 20.1549 26.4927 20.378 26.478 20.5325C26.4314 21.04 26.3039 21.7485 26.1838 22.1874C26.1421 22.3369 26.1029 22.484 26.0955 22.5159C26.0882 22.5502 26.0759 22.587 26.0661 22.6017C26.0588 22.6164 26.049 22.6409 26.049 22.6532C26.0465 22.6679 26.0367 22.6998 26.0269 22.7267C25.8675 23.1166 25.816 23.2563 25.816 23.2882C25.816 23.3102 25.8038 23.3274 25.7866 23.3274C25.7719 23.3274 25.767 23.3348 25.7744 23.3446C25.7842 23.3519 25.7793 23.374 25.7646 23.3936C25.7498 23.4108 25.7449 23.4255 25.7547 23.4255C25.7646 23.4255 25.7621 23.4402 25.7474 23.4573C25.7327 23.472 25.6886 23.5701 25.6493 23.6706C25.4605 24.1438 24.9457 25.2446 24.904 25.2593C24.8942 25.2642 24.8893 25.2789 24.8991 25.2912C24.9065 25.3035 24.9016 25.3133 24.8868 25.3133C24.8746 25.3133 24.8329 25.3721 24.7986 25.4432C24.7054 25.6246 24.6883 25.6516 24.573 25.8306C24.5142 25.9188 24.4676 26.0022 24.4676 26.0169C24.4676 26.0316 24.4578 26.0488 24.448 26.0537C24.421 26.0635 24.2102 26.3675 24.1906 26.4239C24.1808 26.446 24.166 26.4656 24.1538 26.4656C24.1415 26.4656 24.095 26.5195 24.0484 26.5881C24.0018 26.6543 23.9552 26.7107 23.9454 26.7107C23.9331 26.7107 23.9307 26.7205 23.9405 26.7328C23.9478 26.7451 23.9258 26.7769 23.8915 26.8039C23.8571 26.8309 23.8302 26.8627 23.8302 26.875C23.8302 26.902 22.9819 27.7404 22.9549 27.7404C22.9427 27.7404 22.9157 27.7601 22.8936 27.7846C22.8716 27.8066 22.8005 27.8655 22.7343 27.9121C22.6705 27.9586 22.6068 28.0126 22.597 28.0273C22.5872 28.0445 22.5651 28.0592 22.5528 28.0592C22.5381 28.0592 22.4646 28.1008 22.3886 28.1548C22.2145 28.2725 21.7438 28.5225 21.5011 28.6255C20.768 28.9369 19.9859 29.106 18.7552 29.2237C18.3261 29.2654 16.5535 29.3389 16.2177 29.3291C16.0975 29.3242 15.8989 29.3193 15.7764 29.3144Z" fill="#185258"/>
<path d="M16.9777 26.0682C16.8159 26.0559 16.6761 26.0388 16.6688 26.029C16.6614 26.0192 16.6369 25.8623 16.6148 25.6808C16.5094 24.8007 16.225 24.2147 15.4748 23.3272C15.3767 23.2144 15.2983 23.0968 15.2983 23.0698C15.2983 23.0011 15.4503 22.8785 15.7886 22.6775C16.4481 22.2877 16.7644 22.0327 17.061 21.6478C17.4778 21.1109 17.5465 20.4734 17.267 19.7232C17.0537 19.1495 16.8257 18.8259 16.2716 18.3061C15.72 17.7913 15.3081 17.529 14.6363 17.2642C13.5478 16.8351 12.9594 16.8229 12.1797 17.2127C11.5889 17.5069 10.9245 17.9727 10.4562 18.4238C10.2944 18.5807 10.1007 18.7524 10.0271 18.8038C9.95358 18.8578 9.75009 19.0269 9.57357 19.1765C9.3995 19.3285 9.22298 19.4682 9.1813 19.4879C9.0342 19.559 8.47521 19.6399 7.5877 19.7208C7.4406 19.7355 7.22485 19.7526 7.10962 19.76C6.99439 19.7698 6.73696 19.7968 6.53347 19.8213C6.33243 19.8458 6.15836 19.8605 6.1461 19.8532C6.08481 19.8164 6.2221 19.098 6.37656 18.6322C6.54573 18.1223 6.67567 17.9335 7.21259 17.4039C7.94074 16.6856 8.80129 16.1045 9.72067 15.7147C10.591 15.3445 12.1037 14.9939 13.4595 14.8468C13.587 14.8321 13.8199 14.8076 13.9744 14.7904C14.3495 14.7487 15.9504 14.7487 16.328 14.7904C17.0046 14.864 17.061 14.8713 17.5906 14.9547C18.3065 15.0699 19.1278 15.2906 19.677 15.5186C20.3316 15.7907 20.7999 16.1045 21.2681 16.5875C21.9031 17.2446 22.342 18.0585 22.5308 18.9387C22.5994 19.2525 22.6607 20.1253 22.6288 20.3239C22.6166 20.4048 22.6043 20.5372 22.6043 20.6181C22.6043 20.7431 22.5577 21.1795 22.5185 21.4271C22.4008 22.1847 22.3175 22.5647 22.1483 23.1286C21.8811 24.0137 21.4937 24.6389 20.9028 25.1366C20.3439 25.6048 19.7432 25.9064 19.1769 26.002C18.6767 26.0878 17.6396 26.1172 16.9777 26.0682Z" fill="#185258"/>
<path d="M27.7774 22.1822C27.7799 22.1577 27.8019 22.0327 27.8289 21.9052C27.8534 21.7777 27.8877 21.6012 27.9 21.5154C27.9147 21.4296 27.9294 21.3511 27.9368 21.3413C27.9441 21.3315 27.9539 21.2628 27.9588 21.1917C27.9637 21.1182 27.9858 20.8951 28.0103 20.6916C28.1157 19.7452 28.1084 18.1615 27.9956 17.0631C27.9785 16.916 27.9637 16.737 27.9613 16.6684C27.9588 16.5973 27.949 16.5311 27.9392 16.5164C27.9319 16.5041 27.9123 16.4158 27.8975 16.3251C27.851 16.0236 27.8338 15.9402 27.7676 15.6289C27.7308 15.4597 27.6965 15.2954 27.6941 15.2611C27.6916 15.2268 27.6769 15.1728 27.6622 15.1385C27.6475 15.1042 27.5837 14.9203 27.5224 14.7291C27.4023 14.3589 27.2135 13.9323 27.0468 13.6577C26.9904 13.567 26.9438 13.4861 26.9438 13.4787C26.9438 13.4468 26.4756 12.8633 26.277 12.65C25.9877 12.3362 25.5635 11.9636 25.1909 11.6914C25.1369 11.6522 25.0879 11.613 25.0806 11.6056C25.0634 11.5836 24.421 11.1741 24.2028 11.0442C24.1023 10.9853 24.0165 10.9216 24.0092 10.902C24.0018 10.8848 24.0165 10.8481 24.041 10.8235C24.1685 10.701 25.8651 9.53885 26.456 9.17109C26.9218 8.87934 27.5617 8.54346 27.8068 8.4601C28.1378 8.34978 28.5742 8.31545 28.8243 8.38165C29.1479 8.46746 29.4372 8.66359 29.8785 9.09019C30.2487 9.45059 30.6238 9.89189 30.869 10.2621C30.9009 10.3111 30.9818 10.4313 31.0455 10.5293C31.3642 11.0099 31.7394 11.7307 31.9526 12.27C32.0458 12.5103 32.1733 12.9393 32.2223 13.1772C32.4185 14.1627 32.4552 14.4251 32.4749 15.0404C32.4896 15.467 32.4798 15.5774 32.394 16.0456C32.3719 16.1609 32.3523 16.2712 32.3498 16.2908C32.3474 16.3104 32.34 16.3447 32.3302 16.3644C32.313 16.406 32.1684 16.8302 32.1561 16.867C32.1537 16.8817 32.1022 16.992 32.0458 17.1121C31.987 17.2347 31.9379 17.3475 31.9379 17.3647C31.9379 17.3794 31.9281 17.3941 31.9159 17.3941C31.9061 17.3941 31.8963 17.4161 31.8963 17.4431C31.8963 17.4701 31.8865 17.4921 31.8742 17.4921C31.8619 17.4921 31.8203 17.5534 31.7835 17.627C31.7492 17.703 31.7075 17.7692 31.6977 17.7765C31.6854 17.7839 31.6584 17.8256 31.6413 17.8722C31.6217 17.9163 31.5824 17.9776 31.5555 18.0045C31.5261 18.034 31.4672 18.1149 31.4255 18.186C31.3814 18.2546 31.3324 18.3257 31.3177 18.338C31.2637 18.3821 30.9891 18.7401 30.9891 18.767C30.9891 18.7793 30.9818 18.7915 30.9695 18.7915C30.9597 18.7915 30.9033 18.8577 30.8445 18.9386C30.7856 19.0195 30.7268 19.0857 30.717 19.0857C30.7047 19.0857 30.6949 19.098 30.6949 19.1103C30.6949 19.1348 30.6336 19.2108 30.4865 19.3677C30.2879 19.581 30.0943 19.8041 30.0943 19.8188C30.0943 19.8262 30.0403 19.8899 29.9717 19.9585C29.9055 20.0247 29.7952 20.1449 29.7265 20.2233C29.6603 20.3018 29.5671 20.4072 29.5206 20.4562C29.474 20.5053 29.371 20.6156 29.2901 20.7039C29.2117 20.7921 28.9665 21.052 28.7483 21.28C28.5276 21.5105 28.2408 21.8145 28.1059 21.9616C27.8755 22.2116 27.7774 22.2778 27.7774 22.1822ZM28.3438 21.6232C29.6922 20.2331 31.0038 18.7082 31.5261 17.9261C32.2199 16.889 32.5362 15.7098 32.4087 14.6384C32.3572 14.2093 32.2101 13.3635 32.1267 13.0055C31.9306 12.1867 31.477 11.2452 30.8053 10.2695C30.6974 10.1125 30.5969 9.9728 30.5846 9.95564C30.5699 9.94093 30.4645 9.81344 30.3468 9.67124C30.082 9.34762 29.6382 8.91367 29.3808 8.72243C28.9591 8.41352 28.5938 8.33262 28.0912 8.44539C27.6695 8.53856 27.2626 8.74205 26.3064 9.33536C25.615 9.76686 24.0876 10.8284 24.0876 10.8775C24.0876 10.8946 24.1734 10.9584 24.2788 11.0221C24.9506 11.4242 25.4998 11.8263 25.9632 12.2578C27.0493 13.263 27.5911 14.3074 27.8877 15.9549C28.0226 16.715 28.0471 16.9062 28.1231 17.8109C28.1623 18.2963 28.1574 19.6962 28.1108 20.2258C28.0496 20.9392 27.9883 21.3903 27.8902 21.8562C27.8461 22.0645 27.8436 22.1087 27.8706 22.0964C27.8828 22.094 28.0937 21.8782 28.3438 21.6232Z" fill="#185258"/>
<path d="M4.48883 11.3702C4.43244 11.1128 4.39321 10.8922 4.33928 10.5121C4.32702 10.4165 4.31476 10.137 4.31476 9.89432C4.31476 9.50205 4.32211 9.42115 4.3785 9.18088C4.41528 9.03378 4.4545 8.91119 4.46676 8.91119C4.47902 8.91119 4.48147 8.90139 4.47412 8.88668C4.46676 8.87442 4.47167 8.86216 4.48638 8.86216C4.50354 8.86216 4.51089 8.845 4.50109 8.82539C4.49128 8.80087 4.50354 8.78861 4.53541 8.78861C4.56238 8.78861 4.58444 8.7788 4.58444 8.76409C4.58444 8.75183 4.57464 8.73958 4.56483 8.73958C4.55257 8.73958 4.54277 8.72241 4.54277 8.7028C4.54277 8.66112 4.57709 8.65377 4.58935 8.69054C4.59425 8.70525 4.61141 8.68319 4.62612 8.64151C4.65064 8.57531 4.65064 8.56796 4.61877 8.59493C4.59915 8.60964 4.57709 8.61699 4.56728 8.60718C4.55993 8.59983 4.56483 8.59247 4.58199 8.59247C4.60161 8.59247 4.60651 8.57531 4.5967 8.54344C4.5869 8.51157 4.59425 8.4895 4.61877 8.4797C4.63838 8.47234 4.64819 8.45028 4.64083 8.43066C4.63348 8.41105 4.63838 8.39634 4.65064 8.39634C4.6629 8.39634 4.67516 8.38163 4.67516 8.36202C4.67516 8.30808 4.73645 8.17569 4.76097 8.17569C4.77323 8.17569 4.77813 8.16833 4.77077 8.15607C4.75361 8.1291 4.89826 7.83245 4.92768 7.83245C4.94239 7.83245 4.94975 7.82264 4.93994 7.80793C4.92768 7.78832 5.03065 7.59709 5.07233 7.56276C5.07969 7.55541 5.08949 7.53334 5.0944 7.51373C5.10665 7.45979 5.21943 7.27101 5.27337 7.21707C5.29789 7.19256 5.3126 7.17049 5.30279 7.17049C5.29053 7.17049 5.30034 7.15578 5.31995 7.13862C5.33957 7.12146 5.35918 7.09449 5.36408 7.07488C5.37634 7.02094 5.51854 6.83216 5.55777 6.815C5.58474 6.80519 5.58964 6.81255 5.57983 6.84442C5.55777 6.90326 5.57493 6.88119 5.76371 6.63112C6.52619 5.61367 7.44067 4.80461 8.67387 4.04949C9.27208 3.68419 10.0223 3.31153 10.7039 3.04429C10.8927 2.97074 11.1329 2.87513 11.2408 2.83345C11.3487 2.79177 11.4051 2.76235 11.3634 2.77216C11.253 2.79422 10.8117 2.95603 10.5053 3.08842C10.4661 3.10559 10.3925 3.13501 10.3459 3.15217C10.2356 3.1914 9.42899 3.58612 9.20589 3.7087C8.82587 3.9171 8.53657 4.09362 8.17617 4.33388C7.93836 4.49324 7.93591 4.4957 7.62454 4.73351C7.50931 4.82177 7.37447 4.92474 7.32544 4.96397C7.19305 5.06204 6.99446 5.23856 6.73458 5.48373C6.61199 5.60141 6.50657 5.69212 6.50167 5.68722C6.4698 5.65535 7.36957 4.81687 7.43821 4.81687C7.44312 4.81687 7.48235 4.785 7.52648 4.74332C7.57061 4.70409 7.61719 4.66977 7.63435 4.66977C7.64906 4.66977 7.69319 4.63544 7.73487 4.59376C7.81578 4.51041 8.58316 3.99555 8.75232 3.90974C8.81361 3.88032 8.88962 3.83619 8.92394 3.81167C8.95826 3.78961 9.12253 3.6989 9.29169 3.61063C9.46086 3.52237 9.63248 3.43166 9.67171 3.4096C9.82371 3.32869 10.0713 3.21591 10.3337 3.10804C10.4832 3.04675 10.6377 2.983 10.6769 2.96584C10.7186 2.94868 10.7995 2.91681 10.8608 2.89719C10.9221 2.87513 11.1158 2.80893 11.2898 2.74519C11.5669 2.64712 11.8831 2.5515 12.3441 2.42647C13.0085 2.24749 14.173 2.09058 15.2076 2.044C16.3501 1.99252 16.4286 1.99007 16.4531 2.01458C16.4703 2.03174 16.2741 2.044 15.8941 2.05626C14.2417 2.10284 12.979 2.27691 11.8537 2.61034C11.7605 2.63976 11.638 2.67409 11.584 2.68635C11.4982 2.70841 11.41 2.75745 11.4565 2.75745C11.4639 2.75745 11.6429 2.70841 11.8488 2.64712C12.9987 2.31124 13.9695 2.17639 15.85 2.09549C16.5291 2.06607 16.5487 2.06607 16.5487 2.09058C16.5487 2.10284 16.2864 2.12 15.9677 2.12981C14.3152 2.17639 13.0526 2.35046 11.9273 2.68389C11.8341 2.71331 11.7115 2.74764 11.6576 2.7599C11.6061 2.77461 11.5497 2.79422 11.535 2.80403C11.5227 2.81629 11.4786 2.831 11.4369 2.8408C11.3143 2.87022 10.8657 3.03939 10.5788 3.16197C10.5396 3.17914 10.4661 3.20856 10.4195 3.22572C10.3091 3.26495 9.50254 3.65967 9.27944 3.78225C8.89942 3.99065 8.61012 4.16717 8.24973 4.40743C8.01191 4.56679 8.00946 4.56925 7.69809 4.80706C7.58286 4.89532 7.44802 4.99829 7.39899 5.03752C7.13175 5.23611 6.47225 5.876 6.23198 6.16775C5.99417 6.4595 5.79558 6.71693 5.67545 6.88855C5.6117 6.98416 5.54306 7.06997 5.52589 7.07978C5.50628 7.08959 5.49157 7.1092 5.49157 7.12391C5.49157 7.13617 5.41067 7.28082 5.31015 7.44753C5.21208 7.6118 5.10175 7.80303 5.06498 7.86922C5.03065 7.93787 4.99143 8.00897 4.97917 8.02859C4.96691 8.0482 4.90562 8.18795 4.84187 8.33505C4.78058 8.4846 4.71684 8.62189 4.70458 8.64151C4.68006 8.68319 4.68006 8.68319 4.63103 8.83519C4.58935 8.97003 4.51825 9.00926 4.54522 8.88668C4.56973 8.75429 4.53786 8.81803 4.48392 8.99946C4.32211 9.55844 4.32211 10.0856 4.48883 11.1177C4.5158 11.2893 4.55748 11.4364 4.57464 11.4364C4.58199 11.4364 4.62612 11.4168 4.67761 11.3899C4.78058 11.3384 5.23414 11.1888 5.94513 10.9706C6.21482 10.8873 6.56296 10.7818 6.71742 10.7328C6.87187 10.6838 7.12685 10.6078 7.28131 10.5661C7.43576 10.522 7.67848 10.4509 7.82068 10.4092C8.16637 10.3062 8.98523 10.1052 9.3775 10.0267C9.55403 9.99239 9.75261 9.94826 9.81881 9.9311C9.97327 9.88697 10.2209 9.85264 10.6401 9.81587C10.9466 9.79135 11.5963 9.72025 12.0008 9.67122C12.0964 9.65896 12.2779 9.6369 12.4053 9.62219C12.5328 9.60748 12.6554 9.59031 12.675 9.58296C12.6946 9.5756 13.2316 9.56334 13.8641 9.55844C14.4991 9.55354 15.2321 9.53638 15.4945 9.52167C16.6174 9.46283 16.9827 9.45057 17.9462 9.43586C19.579 9.40889 20.3709 9.47018 21.3467 9.69328C21.5502 9.73987 21.5502 9.73987 21.7022 9.62464C21.788 9.56089 21.9571 9.44076 22.0797 9.35985C23.0187 8.72977 23.5826 8.23453 23.8155 7.83245C24.0337 7.46224 24.2421 6.86648 24.3353 6.35653C24.4407 5.77058 24.3745 4.75803 24.1955 4.21865C24.0533 3.7847 23.8621 3.51502 23.4845 3.21101C22.6853 2.56621 21.7218 2.29162 19.7482 2.14452C18.9636 2.08813 17.5956 2.02439 17.5245 2.04155C17.5122 2.044 17.5049 2.0342 17.5049 2.01949C17.5049 1.99987 17.6005 1.99497 17.8432 2.00478C18.0271 2.01213 18.4708 2.02929 18.8288 2.044C19.1867 2.05871 19.6011 2.08078 19.7482 2.09549C19.8977 2.1102 20.1453 2.13226 20.2998 2.14452C21.1481 2.22052 21.8542 2.36272 22.4695 2.58583C22.6485 2.64957 23.0996 2.89229 23.3154 3.03694C23.5507 3.1963 23.916 3.5616 24.0239 3.74548C24.1171 3.90729 24.2617 4.25298 24.3083 4.43685C24.35 4.59621 24.4064 4.99584 24.4456 5.38811C24.475 5.71664 24.4603 5.96671 24.3794 6.42273C24.3426 6.63602 24.2372 7.04055 24.1857 7.15823C24.1048 7.35192 24.046 7.51373 24.0509 7.52844C24.0533 7.53825 24.0435 7.55296 24.0264 7.56276C24.0117 7.57257 23.9969 7.59464 23.992 7.61425C23.9798 7.6927 23.9479 7.7589 23.9259 7.7589C23.9111 7.7589 23.9087 7.77116 23.916 7.78342C23.9234 7.79813 23.9185 7.80793 23.9038 7.80793C23.8891 7.80793 23.8817 7.81774 23.8891 7.82755C23.8964 7.8398 23.8817 7.87168 23.8597 7.89619C23.8351 7.92071 23.7812 7.99181 23.7395 8.0531C23.6978 8.11439 23.5434 8.27866 23.3938 8.42086C23.0972 8.70525 23.0751 8.72487 22.9476 8.81067C22.901 8.84255 22.8471 8.88913 22.8299 8.91365C22.8128 8.94061 22.7858 8.96023 22.7736 8.96023C22.7515 8.96023 22.2685 9.28876 22.0846 9.43095C22.0356 9.46773 21.9841 9.4996 21.9719 9.4996C21.9596 9.4996 21.9204 9.52657 21.8836 9.56089C21.8468 9.59522 21.81 9.62219 21.7978 9.62219C21.788 9.62219 21.7438 9.66141 21.6973 9.70799C21.6507 9.75458 21.5918 9.7938 21.5649 9.7938C21.5379 9.7938 21.4055 9.76684 21.2682 9.73496C20.7215 9.60257 20.2851 9.54373 19.503 9.4996C19.0176 9.47018 17.3504 9.48244 16.561 9.52167C15.2567 9.58786 14.9355 9.59767 13.8666 9.60993C13.234 9.61728 12.7094 9.62954 12.6971 9.63444C12.6873 9.6418 12.5696 9.65896 12.4372 9.67367C12.1798 9.70309 11.9738 9.72761 11.6453 9.76929C11.1942 9.82813 11.0594 9.84284 10.775 9.86735C10.2797 9.90903 9.99778 9.94336 9.85558 9.98013C9.71093 10.0194 9.69377 10.0218 9.20589 10.1223C8.62729 10.2425 7.86481 10.4435 7.02388 10.7009C5.44499 11.1839 4.84923 11.3727 4.70948 11.4364C4.62367 11.4781 4.54522 11.51 4.53541 11.51C4.5256 11.51 4.50599 11.4462 4.48883 11.3702Z" fill="#185258"/>
<path d="M4.53534 8.92602C4.53534 8.79608 4.86387 8.06793 5.14336 7.57514C5.82738 6.37626 6.82277 5.29997 7.99958 4.49091C9.54905 3.42197 11.2971 2.68401 13.0427 2.36284C13.6385 2.25252 14.0602 2.20348 14.906 2.14709C16.5486 2.03431 17.951 2.05148 20.0423 2.20838C21.3147 2.304 22.3028 2.53446 22.9181 2.87525C23.2025 3.03215 23.6022 3.33862 23.7787 3.53475C23.9871 3.76521 24.2175 4.27516 24.2641 4.60859C24.2788 4.71892 24.2764 4.72382 24.1611 4.82924C24.0974 4.89054 23.9331 5.01557 23.7958 5.10629C22.5455 5.95212 20.8366 6.58956 18.8042 6.96222C18.0197 7.10687 16.8306 7.303 15.8009 7.45501C15.5729 7.48933 15.2468 7.53837 15.0776 7.56288C14.3985 7.6634 13.1016 7.84728 12.1356 7.97967C12.0351 7.99438 11.7139 8.03851 11.4246 8.07774C11.1353 8.11696 10.6768 8.17826 10.4071 8.21258C10.1375 8.2469 9.76235 8.29839 9.57357 8.32291C9.10529 8.3891 8.92387 8.41362 8.6787 8.44549C8.56347 8.4602 8.14423 8.51414 7.74706 8.56808C7.34988 8.61956 6.88161 8.68085 6.70509 8.70047C6.53102 8.72253 6.34224 8.74705 6.2883 8.7544C6.16817 8.76912 5.93526 8.80099 5.45472 8.86228C5.25369 8.88925 5.00361 8.92112 4.90309 8.93338C4.63586 8.97015 4.53534 8.9677 4.53534 8.92602Z" fill="#1DB7CF"/>
<path d="M11.4613 27.924C10.8876 27.8015 10.2428 27.3896 9.97804 26.9752C9.86526 26.8012 9.66667 26.4064 9.59312 26.2079C9.53919 26.0681 9.36757 25.4454 9.27686 25.0654C9.18614 24.6854 9.18614 24.6805 9.22782 24.5873C9.30137 24.423 9.31118 24.3961 9.3406 24.2539C9.38228 24.07 9.36021 23.7807 9.29892 23.6704C9.25969 23.6017 9.23518 23.5846 9.17388 23.5796C9.12975 23.5772 9.07827 23.5919 9.06111 23.6115C9.04149 23.6311 9.01452 23.6458 8.99981 23.6458C8.9851 23.6458 8.94833 23.6728 8.92136 23.7047C8.89194 23.739 8.85271 23.7586 8.83555 23.7513C8.81594 23.7439 8.80123 23.7537 8.80123 23.7758C8.80123 23.7978 8.77671 23.8224 8.74729 23.8322C8.71542 23.8395 8.63696 23.9082 8.57322 23.9793C8.50702 24.0528 8.44083 24.1117 8.42367 24.1117C8.38444 24.1117 8.28637 24.2146 8.28637 24.2539C8.28637 24.271 8.27166 24.2833 8.2545 24.2833C8.23734 24.2833 8.21037 24.3053 8.19321 24.3323C8.17605 24.3593 8.14908 24.3814 8.13192 24.3814C8.09269 24.3838 7.99217 24.4672 7.99217 24.5015C7.99217 24.5162 7.97991 24.5285 7.96275 24.5285C7.93578 24.5285 7.90636 24.553 7.78623 24.6707C7.75435 24.7001 7.72248 24.7246 7.71268 24.7246C7.68326 24.7246 7.55086 24.83 7.55086 24.8545C7.55086 24.8889 7.44544 24.9673 7.39641 24.9698C7.37189 24.9698 7.34737 24.9869 7.34002 25.0065C7.33021 25.0261 7.30815 25.0433 7.29098 25.0433C7.27137 25.0433 7.24931 25.0605 7.24195 25.0801C7.23214 25.0997 7.21498 25.1169 7.20272 25.1169C7.18801 25.1169 7.15614 25.1438 7.13162 25.1782C7.10466 25.21 7.06788 25.2321 7.04827 25.2247C7.03111 25.2174 7.00414 25.2345 6.98697 25.2615C6.97226 25.2909 6.94039 25.313 6.91342 25.313C6.88891 25.313 6.86439 25.3204 6.85949 25.3326C6.84232 25.3718 6.64129 25.4601 6.56528 25.4601C6.44025 25.4601 6.06023 25.389 5.88371 25.3351C5.31247 25.1561 4.68974 24.5848 4.50831 24.07C4.47889 23.9866 4.46173 23.8739 4.46173 23.7562C4.46173 23.2977 4.64806 22.8662 5.10653 22.2484C5.45467 21.7826 5.7268 21.5472 5.94255 21.5276C6.00385 21.5202 6.0774 21.5104 6.10191 21.5006C6.12888 21.4933 6.19753 21.481 6.25637 21.4761C6.31521 21.4687 6.46722 21.4516 6.5947 21.4369C6.72219 21.4222 6.91097 21.405 7.01149 21.3976C7.11201 21.3903 7.20763 21.3756 7.21989 21.3658C7.2346 21.3535 7.39886 21.3363 7.58764 21.329C7.77397 21.3216 7.93823 21.3069 7.95294 21.2971C7.96765 21.2873 8.02894 21.2775 8.09024 21.2751C8.30599 21.2652 8.92136 21.1917 9.1935 21.1451C9.28176 21.1304 9.37738 21.1181 9.4068 21.1181C9.43622 21.1181 9.49015 21.1034 9.52938 21.0838C9.56616 21.0642 9.61274 21.047 9.6299 21.047C9.64706 21.047 9.67893 21.0372 9.70345 21.025C9.72552 21.0127 9.78926 20.9809 9.8432 20.9563C10.0001 20.8828 10.2085 20.7381 10.363 20.6008C10.4414 20.5273 10.5664 20.4194 10.64 20.3581C10.7135 20.2944 10.8239 20.1963 10.8852 20.1375C11.0151 20.01 11.3927 19.6986 11.4196 19.6986C11.4294 19.6986 11.5079 19.63 11.5962 19.5491C11.682 19.4657 11.8021 19.3676 11.8585 19.3284C11.9173 19.2867 11.9639 19.2475 11.9639 19.2377C11.9639 19.2279 11.9835 19.2083 12.0105 19.196C12.035 19.1813 12.1699 19.0955 12.3096 18.9999C12.4493 18.9067 12.5768 18.8234 12.5891 18.8185C12.6038 18.8136 12.6553 18.7817 12.7068 18.7498C12.8514 18.6591 13.153 18.5463 13.256 18.5439C13.3614 18.5414 13.5207 18.5659 13.5943 18.5954C13.6213 18.6052 13.6924 18.6272 13.7536 18.6419C13.8983 18.6787 14.0037 18.7204 14.3298 18.865C14.5504 18.9631 14.7711 19.1053 14.9942 19.2892C15.2271 19.4829 15.6096 19.8702 15.5998 19.8997C15.5949 19.9119 15.6022 19.9193 15.6145 19.9193C15.6365 19.9193 15.7616 20.1497 15.7738 20.2184C15.7787 20.2355 15.7984 20.2919 15.8229 20.341C15.8449 20.3924 15.8621 20.4856 15.8621 20.5518C15.8621 20.6646 15.8547 20.6817 15.7469 20.7847C15.3718 21.1451 15.2394 21.2432 15.1413 21.2432C15.1192 21.2432 15.0898 21.2652 15.0727 21.2898C15.0579 21.3143 15.0285 21.3314 15.0114 21.3241C14.9942 21.3167 14.9795 21.3241 14.9795 21.3388C14.9795 21.3731 14.8079 21.4785 14.7662 21.4687C14.749 21.4638 14.7343 21.4736 14.7343 21.4884C14.7343 21.5006 14.7172 21.5129 14.6975 21.5129C14.6779 21.5129 14.6608 21.5251 14.6608 21.5374C14.6608 21.5521 14.6461 21.5619 14.6264 21.5619C14.6093 21.5619 14.5578 21.6011 14.5112 21.6477C14.4646 21.6943 14.4181 21.7335 14.4058 21.7335C14.3837 21.7335 14.1214 22.0032 14.1214 22.0253C14.1214 22.0326 14.092 22.0743 14.0528 22.1135C14.016 22.1552 13.9718 22.2141 13.9547 22.2484C13.9228 22.317 13.8713 22.4004 13.8517 22.42C13.8444 22.4274 13.8125 22.5107 13.7806 22.6039C13.6825 22.9005 13.6825 23.2683 13.7831 23.56C13.8247 23.6753 13.9792 23.9989 14.0013 24.0136C14.0111 24.021 14.0528 24.0724 14.0895 24.1288C14.1606 24.2342 14.3396 24.45 14.4352 24.5407C14.4646 24.5701 14.4892 24.6045 14.4892 24.6143C14.4892 24.629 14.5504 24.7123 14.6436 24.8227C14.7245 24.9207 14.8569 25.1242 14.8569 25.1536C14.8569 25.1732 14.8667 25.1929 14.879 25.2002C14.9158 25.2247 15.0236 25.5336 15.0555 25.7053C15.0702 25.7935 15.0825 25.9995 15.0825 26.1662C15.0825 26.4653 15.08 26.4702 14.9991 26.6026C14.8275 26.8894 14.4548 27.294 14.2587 27.4092C14.0062 27.5563 13.4325 27.7598 12.9961 27.8529C12.4959 27.9608 11.7825 27.9927 11.4613 27.924Z" fill="white"/>
<path d="M12.1601 28.7038C12.1258 28.6965 12.0866 28.6817 12.0719 28.6695C12.0571 28.6572 11.8463 28.645 11.606 28.645C11.3069 28.6425 11.1623 28.6352 11.15 28.6155C11.1402 28.5984 11.0789 28.591 10.998 28.5935C10.9122 28.5959 10.8607 28.5886 10.8607 28.5714C10.8607 28.5567 10.8411 28.5518 10.8117 28.5616C10.7823 28.5714 10.7626 28.5665 10.7626 28.5493C10.7626 28.5322 10.743 28.5273 10.7136 28.5371C10.6842 28.5469 10.6474 28.5395 10.6278 28.5248C10.6082 28.5077 10.5616 28.4905 10.5248 28.4881C10.4856 28.4856 10.4366 28.4733 10.4145 28.4635C10.3924 28.4537 10.3606 28.4537 10.3459 28.4635C10.3336 28.4709 10.3213 28.466 10.3213 28.4513C10.3213 28.4341 10.3017 28.4292 10.2723 28.439C10.2453 28.4464 10.2233 28.4439 10.2233 28.4317C10.2233 28.3998 10.0786 28.3483 10.0468 28.3679C10.0345 28.3753 10.01 28.3679 9.99527 28.3483C9.97811 28.3287 9.90701 28.287 9.83346 28.2576C9.56622 28.1448 9.22299 27.8996 9.07588 27.7182C8.78168 27.3505 8.52425 26.2962 8.664 26.0266C8.68606 25.9849 8.70323 25.9334 8.70323 25.9113C8.70323 25.8378 8.88465 25.3523 9.0244 25.0532C9.04892 24.9968 9.07098 24.9454 9.07098 24.938C9.07098 24.9282 9.11511 24.8301 9.16905 24.7149C9.22299 24.6021 9.26712 24.4967 9.26712 24.4844C9.26712 24.4697 9.27692 24.4526 9.29163 24.4428C9.30389 24.4354 9.29899 24.4697 9.28183 24.5212C9.25486 24.5997 9.25731 24.634 9.29654 24.7713C9.32105 24.8596 9.3848 25.1096 9.43873 25.3254C9.58338 25.904 9.64713 26.1026 9.79178 26.4164C9.96094 26.789 10.1473 27.0734 10.3042 27.2058C10.7014 27.5417 11.1329 27.7673 11.5472 27.8531C12.0915 27.9658 13.1138 27.804 13.8763 27.4804C14.2563 27.3211 14.3323 27.2647 14.6143 26.9386C14.8325 26.6861 15.0041 26.4311 15.0041 26.3624C15.0041 26.3379 15.0188 26.3183 15.0384 26.3183C15.0899 26.3183 15.1144 26.6517 15.0654 26.7008C15.0237 26.7425 15.0163 26.8086 15.0531 26.8086C15.0678 26.8086 15.0776 26.8356 15.0776 26.8699C15.0776 26.9043 15.0654 26.9312 15.0531 26.9312C15.0359 26.9312 15.0335 26.9631 15.0409 27.0121C15.058 27.0955 15.0163 27.299 14.9845 27.299C14.9747 27.299 14.9649 27.3333 14.9649 27.3774C14.9624 27.4216 14.9501 27.4608 14.9354 27.4657C14.9207 27.4706 14.9134 27.4878 14.9207 27.5074C14.9281 27.5245 14.9134 27.5613 14.8864 27.5883C14.8594 27.6153 14.8423 27.6447 14.8496 27.652C14.8594 27.6594 14.8521 27.6667 14.8349 27.6667C14.8177 27.6667 14.8128 27.679 14.8202 27.6913C14.8276 27.706 14.8177 27.7231 14.7981 27.7305C14.7761 27.7378 14.7638 27.755 14.7712 27.7648C14.7785 27.7771 14.7638 27.7967 14.7417 27.8114C14.7172 27.8236 14.6976 27.8555 14.6976 27.88C14.6976 27.907 14.6756 27.9266 14.6412 27.9315C14.6094 27.9364 14.5775 27.956 14.5701 27.9757C14.5628 27.9953 14.5407 28.01 14.5235 28.01C14.5039 28.01 14.4819 28.0271 14.4745 28.0468C14.4672 28.0664 14.3863 28.1179 14.298 28.1595C14.2073 28.2012 14.1288 28.2429 14.1215 28.2527C14.1141 28.26 14.0038 28.3213 13.8763 28.3826C13.7488 28.4464 13.5723 28.5371 13.484 28.5861C13.3247 28.6719 13.3247 28.6719 12.7926 28.6719C12.4519 28.6719 12.2582 28.6817 12.2582 28.6965C12.2582 28.7112 12.2508 28.7185 12.241 28.7185C12.2288 28.7161 12.1944 28.7087 12.1601 28.7038Z" fill="#C8C8C7"/>
<path d="M15.0776 26.1467C15.0776 26.1197 15.0629 26.0977 15.0432 26.0977C15.0187 26.0977 15.0065 26.0462 14.9991 25.9089C14.9918 25.8035 14.9942 25.7152 15.0065 25.7103C15.0408 25.6956 15.0334 25.6564 14.9967 25.6564C14.955 25.6564 14.8765 25.345 14.9158 25.3278C14.9305 25.3229 14.9256 25.3156 14.901 25.3156C14.8667 25.3131 14.7883 25.166 14.825 25.166C14.8324 25.166 14.8152 25.1464 14.7883 25.1243C14.7638 25.0998 14.7074 25.0214 14.6657 24.9527C14.5995 24.8448 14.2219 24.3472 14.1729 24.3079C14.119 24.2638 13.9302 24.0113 13.8493 23.8715C13.6973 23.6116 13.6311 23.3714 13.6311 23.0747C13.6311 22.5795 13.7929 22.2313 14.2121 21.8146C14.4205 21.6086 14.6951 21.4149 15.0236 21.236C15.2565 21.1109 15.5458 20.8952 15.6856 20.7456C15.8057 20.6132 15.818 20.525 15.742 20.3092C15.6292 19.9782 15.4502 19.7453 15.0285 19.3678C14.8814 19.2354 14.5382 18.9878 14.5014 18.9878C14.4965 18.9878 14.4107 18.9485 14.3126 18.8995C14.2146 18.8505 13.9841 18.7622 13.8027 18.6985C13.5232 18.6053 13.4398 18.5881 13.2707 18.5857C13.1456 18.5832 13.0892 18.5759 13.1211 18.5636C13.2192 18.5268 13.4693 18.544 13.5943 18.5955C13.6213 18.6053 13.6924 18.6274 13.7537 18.6421C13.8983 18.6788 14.0037 18.7205 14.3298 18.8652C14.5505 18.9632 14.7711 19.1054 14.9942 19.2893C15.2271 19.483 15.6096 19.8704 15.5973 19.8998C15.5949 19.912 15.6022 19.9194 15.6145 19.9194C15.6366 19.9194 15.7616 20.1499 15.7738 20.2185C15.7788 20.2357 15.7984 20.2896 15.8204 20.3362C15.8548 20.4146 15.8719 20.5274 15.8646 20.6328C15.8621 20.6696 15.7763 20.7628 15.5262 20.9908C15.3301 21.1698 15.2198 21.2433 15.1413 21.2433C15.1192 21.2433 15.0898 21.2654 15.0727 21.2899C15.058 21.3144 15.0285 21.3316 15.0114 21.3242C14.9942 21.3169 14.9795 21.3242 14.9795 21.3389C14.9795 21.3733 14.8079 21.4787 14.7662 21.4689C14.749 21.464 14.7343 21.4738 14.7343 21.4885C14.7343 21.5007 14.7172 21.513 14.6976 21.513C14.6779 21.513 14.6608 21.5253 14.6608 21.5375C14.6608 21.5522 14.6461 21.562 14.6265 21.562C14.6093 21.562 14.5578 21.6013 14.5112 21.6478C14.4646 21.6944 14.4181 21.7336 14.4058 21.7336C14.3837 21.7336 14.1214 22.0033 14.1214 22.0254C14.1214 22.0328 14.092 22.0744 14.0528 22.1137C14.016 22.1553 13.9719 22.2142 13.9547 22.2485C13.9228 22.3172 13.8713 22.4005 13.8517 22.4201C13.8444 22.4275 13.8125 22.5108 13.7806 22.604C13.6826 22.9007 13.6826 23.2684 13.7831 23.5602C13.8248 23.6754 13.9792 23.999 14.0013 24.0137C14.0111 24.0211 14.0528 24.0726 14.0895 24.129C14.1606 24.2344 14.3396 24.4501 14.4352 24.5408C14.4646 24.5703 14.4892 24.6046 14.4892 24.6144C14.4892 24.6291 14.5505 24.7125 14.6436 24.8228C14.7245 24.9209 14.8569 25.1243 14.8569 25.1538C14.8569 25.1734 14.8667 25.193 14.879 25.2003C14.9158 25.2224 15.0236 25.5313 15.0531 25.6931C15.0849 25.8672 15.1094 26.1957 15.0898 26.1957C15.0825 26.1957 15.0776 26.1737 15.0776 26.1467Z" fill="#C8C8C7"/>
<path d="M5.01098 25.6759C5.00363 25.6636 4.98401 25.6563 4.9693 25.6587C4.95214 25.6612 4.92272 25.6587 4.90311 25.6489C4.88349 25.6416 4.80504 25.6171 4.73149 25.5925C4.37844 25.4822 4.07689 25.2689 3.91262 25.009C3.82681 24.8717 3.67726 24.553 3.67726 24.5089C3.67726 24.4917 3.66745 24.4599 3.6552 24.4353C3.56939 24.2662 3.56693 23.8641 3.65274 23.6582C3.66255 23.6312 3.68707 23.5699 3.70423 23.5233C3.71894 23.4767 3.76062 23.3787 3.79249 23.3076C3.82191 23.2365 3.84888 23.1752 3.84888 23.1703C3.84888 23.1531 4.1014 22.7241 4.17495 22.6186C4.31225 22.4127 4.56968 22.1209 4.72904 21.9885C4.90311 21.8439 5.16299 21.6992 5.29538 21.6723C5.34196 21.6625 5.39345 21.6453 5.4057 21.6355C5.43267 21.6159 5.80533 21.5399 5.94753 21.5252C6.00147 21.5203 6.09218 21.5056 6.15347 21.4909C6.21231 21.4786 6.26625 21.4712 6.27115 21.4761C6.27851 21.481 6.24909 21.4933 6.21231 21.5007C5.85682 21.5767 5.56016 21.8145 5.18015 22.322C4.74865 22.9006 4.53535 23.3762 4.53535 23.7562C4.53535 24.2637 5.26105 25.036 5.94508 25.2591C6.02598 25.2861 6.20741 25.3253 6.34715 25.3498C6.59723 25.3915 6.59723 25.3915 6.74923 25.3155C7.00421 25.188 7.40874 24.8889 8.02902 24.3691C8.10992 24.3029 8.27418 24.1534 8.39677 24.0382C8.65665 23.7905 8.75962 23.7096 8.96801 23.5895C9.14208 23.4865 9.21563 23.4767 9.27693 23.5454C9.38235 23.6631 9.42648 24.0995 9.35048 24.2833C9.32106 24.3569 9.31861 24.3593 9.33332 24.2956C9.34557 24.2564 9.35293 24.1166 9.35048 23.9891C9.34803 23.7023 9.29899 23.5871 9.17396 23.5797C9.12983 23.5772 9.07834 23.592 9.06118 23.6116C9.04156 23.6312 9.0146 23.6459 8.99989 23.6459C8.98518 23.6459 8.9484 23.6729 8.92143 23.7047C8.89201 23.7391 8.85278 23.7587 8.83562 23.7513C8.81601 23.744 8.8013 23.7538 8.8013 23.7758C8.8013 23.7979 8.77678 23.8224 8.74736 23.8322C8.71549 23.8396 8.63704 23.9082 8.57329 23.9793C8.5071 24.0529 8.4409 24.1117 8.42374 24.1117C8.38451 24.1117 8.28644 24.2147 8.28644 24.2539C8.28644 24.2711 8.27173 24.2833 8.25457 24.2833C8.23741 24.2833 8.21044 24.3054 8.19328 24.3324C8.17612 24.3593 8.14915 24.3814 8.13199 24.3814C8.09276 24.3839 7.99224 24.4672 7.99224 24.5015C7.99224 24.5162 7.97998 24.5285 7.96282 24.5285C7.93585 24.5285 7.90643 24.553 7.7863 24.6707C7.75443 24.7001 7.72255 24.7246 7.71275 24.7246C7.68333 24.7246 7.55094 24.8301 7.55094 24.8546C7.55094 24.8889 7.44551 24.9674 7.39648 24.9698C7.37196 24.9698 7.34744 24.987 7.34009 25.0066C7.33028 25.0262 7.30822 25.0434 7.29106 25.0434C7.27144 25.0434 7.24938 25.0605 7.24202 25.0801C7.23222 25.0997 7.21505 25.1169 7.20279 25.1169C7.18808 25.1169 7.15621 25.1439 7.1317 25.1782C7.10473 25.2101 7.06795 25.2321 7.04834 25.2248C7.03118 25.2174 7.00421 25.2346 6.98705 25.2616C6.97234 25.291 6.94046 25.313 6.9135 25.313C6.88898 25.313 6.86446 25.3204 6.85956 25.3327C6.84485 25.367 6.63155 25.4577 6.53103 25.47C6.47709 25.4773 6.38148 25.5043 6.32264 25.5312C6.2638 25.5582 6.17308 25.5876 6.12405 25.595C6.07256 25.6048 6.03089 25.6244 6.03089 25.6367C6.03089 25.6514 5.97695 25.6538 5.88378 25.644C5.79552 25.6342 5.73668 25.6367 5.73668 25.6514C5.73668 25.6636 5.70971 25.6685 5.67539 25.6612C5.64107 25.6563 5.6141 25.6612 5.6141 25.671C5.6141 25.7004 5.02814 25.7029 5.01098 25.6759Z" fill="#C8C8C7"/>
</svg>
