<svg width="101" height="50" viewBox="0 0 101 50" fill="none" xmlns="http://www.w3.org/2000/svg">
<path d="M2.8524 25.0735L89.3593 46.8563L89.3593 3.29061L2.8524 25.0735Z" fill="#D9D9D9"/>
<path fill-rule="evenodd" clip-rule="evenodd" d="M0.10549 25.0735C0.10549 26.1003 0.903649 27.0051 2.06804 27.2983L88.575 49.0812C89.4062 49.2905 90.3057 49.1557 91.0011 48.7175C91.6965 48.2794 92.1062 47.5894 92.1062 46.8563L92.1062 3.29061C92.1062 2.55754 91.6965 1.86753 91.0011 1.42939C90.3057 0.991243 89.4062 0.856436 88.575 1.06576L2.06804 22.8486C0.903649 23.1418 0.10549 24.0466 0.10549 25.0735ZM2.8524 25.0735L89.3593 3.29061L89.3593 46.8563L2.8524 25.0735Z" fill="black"/>
<path d="M2.8524 25.0735L89.3593 46.8563L89.3593 3.29061L2.8524 25.0735Z" fill="#323242"/>
<path fill-rule="evenodd" clip-rule="evenodd" d="M0.654873 25.0735C0.654873 25.8949 1.2934 26.6188 2.22492 26.8533L88.7318 48.6362C89.3969 48.8036 90.1164 48.6958 90.6728 48.3453C91.2291 47.9948 91.5568 47.4428 91.5568 46.8563L91.5568 3.29061C91.5568 2.70415 91.2291 2.15215 90.6728 1.80163C90.1164 1.45112 89.3969 1.34327 88.7318 1.51073L2.22492 23.2936C1.2934 23.5281 0.654873 24.252 0.654873 25.0735ZM2.8524 25.0735L89.3593 3.29061L89.3593 46.8563L2.8524 25.0735Z" fill="white"/>
<path d="M11.5194 25.0735L78.83 42.149L78.83 7.99796L11.5194 25.0735Z" fill="#CC3300"/>
<path d="M87.354 44.6927L19.5491 25.0734L87.354 25.0734L87.354 44.6927Z" fill="#AABBBB"/>
<path d="M19.5491 25.0734L87.354 5.4542L87.354 25.0734L19.5491 25.0734Z" fill="#BBC9CC"/>
<path d="M66.7311 25.0734L87.2311 44.6927L87.2311 5.45418L66.7311 25.0734Z" fill="#CCDDDD"/>
<mask id="path-2-outside-1_107_538" maskUnits="userSpaceOnUse" x="5.89325" y="10.8281" width="95" height="26" fill="black">
<rect fill="white" x="5.89325" y="10.8281" width="95" height="26"/>
<path d="M12.1152 34.9403C11.5982 34.9403 11.1291 34.7995 10.7079 34.5178C10.2866 34.2361 9.92283 33.8527 9.61648 33.3676C9.06122 32.5225 8.64956 31.3645 8.3815 29.8935C8.19003 28.8763 8.04643 27.7026 7.95069 26.3724L7.92197 25.1283V23.8607C7.90282 23.4539 7.89325 22.9609 7.89325 22.3819C7.89325 21.443 7.94112 20.6135 8.03685 19.8937C8.11344 19.1425 8.30491 18.3992 8.61126 17.6637C8.91761 17.0221 9.35799 16.5682 9.9324 16.3022C10.277 16.177 10.6217 16.1144 10.9663 16.1144C11.9811 16.1144 12.7853 16.443 13.3789 17.1003C14.0299 17.8358 14.4607 18.6574 14.6713 19.5651C14.9776 20.6605 15.15 21.709 15.1882 22.7105C15.2648 23.8216 15.3031 24.8701 15.3031 25.856V27.194C15.3031 27.46 15.2553 27.9608 15.1595 28.6963C15.0829 29.2753 15.0446 29.7683 15.0446 30.1752V30.2691C14.9298 30.7072 14.8723 31.2237 14.8723 31.8183C14.8723 32.2565 14.7574 32.7103 14.5277 33.1798C14.2979 33.6493 13.9724 34.0483 13.5512 34.377C13.1299 34.7526 12.6513 34.9403 12.1152 34.9403ZM12.1726 33.6493C12.5555 33.6493 12.881 33.3598 13.1491 32.7808C13.3789 32.2643 13.5416 31.6384 13.6373 30.9029C13.7522 30.1517 13.848 29.3066 13.9245 28.3677C13.9628 27.9608 13.982 27.4366 13.982 26.795L13.9533 24.6354C13.915 23.7903 13.8001 22.734 13.6086 21.4664C13.4554 20.3866 13.1682 19.432 12.747 18.6026C12.5555 18.2114 12.3162 17.9062 12.029 17.6872C11.7418 17.4681 11.4354 17.3585 11.1099 17.3585C10.6313 17.3585 10.277 17.6637 10.0473 18.274C9.76008 18.9156 9.56861 19.6198 9.47288 20.3866C9.35799 21.216 9.29098 22.0063 9.27183 22.7575L9.24311 23.5321C9.22396 23.7512 9.21439 24.0485 9.21439 24.4241V24.518C9.21439 25.5665 9.34842 26.8576 9.61648 28.3912C9.92283 30.4725 10.3728 31.9514 10.9663 32.8277C11.3493 33.3754 11.7514 33.6493 12.1726 33.6493Z"/>
<path d="M20.0268 34.33C19.6438 34.33 19.3087 34.2596 19.0215 34.1188C18.7535 33.9779 18.6194 33.7823 18.6194 33.5319C19.0407 33.1876 19.2513 32.2722 19.2513 30.7855C19.2513 29.8935 19.1651 28.5946 18.9928 26.8889C18.8013 25.2613 18.7056 23.9781 18.7056 23.0392L18.7631 21.7481C18.7822 21.3725 18.7918 20.9422 18.7918 20.4571C18.7918 20.0189 18.696 19.4633 18.5046 18.7904C18.2748 18.0862 18.1599 17.5933 18.1599 17.3116C18.1599 16.7639 18.8971 16.49 20.3714 16.49H20.8022C21.8361 16.49 22.736 16.7482 23.5019 17.2646C24.1146 17.7028 24.6316 18.3366 25.0528 19.166C25.34 19.7294 25.589 20.5118 25.7996 21.5134C25.9144 22.3897 25.9719 23.0783 25.9719 23.5791V25.4335C25.9336 25.4961 25.9144 25.5587 25.9144 25.6213C25.9144 25.7465 25.924 25.8404 25.9432 25.903C25.9623 25.9656 25.9719 26.0438 25.9719 26.1377C25.9719 26.6385 25.8762 27.241 25.6847 27.9452C25.5124 28.6337 25.2539 29.3379 24.9092 30.0578C24.0476 31.7792 23.0807 32.9998 22.0085 33.7197C21.3766 34.1266 20.716 34.33 20.0268 34.33ZM20.6299 32.9685C21.3383 32.6086 21.9606 32.0922 22.4967 31.4193C23.0328 30.7307 23.4445 29.9717 23.7317 29.1423C24.2487 27.6087 24.5071 26.0595 24.5071 24.4945C24.5071 23.6495 24.4114 22.7262 24.2199 21.7246C24.0093 20.7544 23.5594 19.878 22.8701 19.0956C22.5446 18.72 22.1329 18.4305 21.6351 18.2271C21.1373 18.008 20.5724 17.8984 19.9406 17.8984V17.9219C19.9406 19.3303 20.0555 21.4586 20.2852 24.3067C20.515 27.1392 20.6299 29.2832 20.6299 30.7385V32.9685Z"/>
<path d="M34.4705 34.6352C34.2215 34.6352 34.0301 34.5569 33.896 34.4004C33.7812 34.2596 33.7237 34.0796 33.7237 33.8605C33.7237 30.5899 33.6471 27.8278 33.494 25.5743C33.0344 25.5117 32.7089 25.4804 32.5175 25.4804C31.7324 25.4804 31.1676 25.5352 30.823 25.6447C30.823 26.5211 30.9091 27.8435 31.0814 29.6118C31.2346 31.4897 31.3112 32.8199 31.3112 33.6023C31.3112 33.7588 31.2538 33.9075 31.1389 34.0483C31.024 34.1735 30.8804 34.2361 30.7081 34.2361C30.4592 34.2361 30.2294 33.8762 30.0188 33.1563C29.7124 32.0922 29.4635 29.8622 29.2721 26.4663C29.138 24.1659 29.071 21.6933 29.071 19.0486C29.0519 18.5635 29.0423 17.8749 29.0423 16.9829C29.0423 16.7013 29.205 16.5604 29.5305 16.5604C29.722 16.5604 29.9135 16.5995 30.1049 16.6778C30.3156 16.756 30.4687 16.8421 30.5645 16.936C30.4879 17.4368 30.4496 18.0236 30.4496 18.6965C30.4496 19.3538 30.4879 20.1519 30.5645 21.0908C30.6219 22.1706 30.6506 22.9844 30.6506 23.5321V23.9546C30.6315 24.0798 30.6219 24.2285 30.6219 24.4006C30.6219 24.5571 30.6411 24.7606 30.6794 25.011C30.7942 25.011 30.9857 25.0031 31.2538 24.9875C31.5218 24.9718 31.7899 24.9484 32.0579 24.9171C32.6898 24.8701 33.1589 24.8466 33.4652 24.8466C33.4652 23.4852 33.4461 22.2254 33.4078 21.0674L33.3504 17.1473V16.5135C33.5993 16.5135 33.8195 16.5526 34.0109 16.6308C34.2024 16.6934 34.346 16.7795 34.4417 16.8891C34.6141 17.0612 34.7194 17.3585 34.7577 17.7811V18.3209C34.7577 19.6668 34.8534 22.2411 35.0449 26.0438C35.2172 29.4866 35.3034 32.0687 35.3034 33.7901C35.3034 34.0092 35.2172 34.2048 35.0449 34.377C34.8917 34.5491 34.7002 34.6352 34.4705 34.6352Z"/>
<path d="M40.2455 34.5413C39.9966 34.5413 39.7668 34.463 39.5562 34.3066C39.3648 34.1657 39.269 33.9936 39.269 33.7901C39.269 33.6493 39.3073 33.4771 39.3839 33.2737C39.4413 33.0546 39.4701 32.8903 39.4701 32.7808C39.4701 31.388 39.3743 28.712 39.1829 24.7527C38.9914 21.3725 38.8957 18.7044 38.8957 16.7482C38.8957 16.6074 38.9627 16.4978 39.0967 16.4196C39.2307 16.3257 39.3935 16.2787 39.5849 16.2787C39.8147 16.2787 40.0158 16.3492 40.1881 16.49C40.3604 16.6152 40.4466 16.7717 40.4466 16.9595C40.4466 17.8984 40.504 19.3068 40.6189 21.1847C40.7146 23.2661 40.7625 24.6745 40.7625 25.41L40.7912 25.6917V26.2551C40.8486 27.6165 40.8774 29.6509 40.8774 32.3582V32.9685H43.0888C43.4909 33.2033 43.692 33.438 43.692 33.6728C43.692 33.8449 43.6154 34.0014 43.4622 34.1422C43.3282 34.2674 43.1654 34.33 42.974 34.33C42.9165 34.33 42.8112 34.3144 42.658 34.2831L42.5432 34.2596C42.4283 34.2753 42.2464 34.2831 41.9975 34.2831H41.5092C41.3752 34.2674 41.222 34.2596 41.0497 34.2596C40.8582 34.4474 40.5902 34.5413 40.2455 34.5413Z"/>
<path d="M51.7911 34.2831C51.4848 34.2831 51.255 34.2361 51.1019 34.1422C50.9678 34.0483 50.9008 33.8918 50.9008 33.6728V30.5977C50.6519 30.4569 50.1828 30.3317 49.4935 30.2221C48.8042 30.1126 48.1532 30.0422 47.5405 30.0109C47.3299 30.3395 47.1767 30.7385 47.081 31.208L46.9661 31.6775C46.947 31.787 46.8895 32.0296 46.7938 32.4052C46.6981 32.7808 46.5927 33.1094 46.4779 33.3911C46.363 33.6571 46.2481 33.8684 46.1332 34.0249C45.4056 34.0249 44.9844 33.8684 44.8695 33.5554C45.0801 33.305 45.3195 32.5695 45.5875 31.3489L46.5353 27.0532C46.9565 25.0188 47.3395 23.2817 47.6841 21.842C48.0479 20.4023 48.4309 19.1973 48.8329 18.2271C49.2733 17.1473 49.6946 16.6074 50.0966 16.6074C50.4987 16.6074 50.8051 16.67 51.0157 16.7952C51.0157 17.4211 51.1976 18.9313 51.5614 21.3256C51.9443 23.673 52.1358 25.277 52.1358 26.1377C52.1358 26.9671 52.2411 28.1564 52.4517 29.7057C52.6432 31.2863 52.7389 32.546 52.7389 33.485C52.7389 34.017 52.423 34.2831 51.7911 34.2831ZM50.2977 29.2362C50.4509 29.2362 50.6423 29.2128 50.8721 29.1658C50.8147 28.4772 50.7189 27.6244 50.5849 26.6072C50.1445 23.0705 49.9243 20.9031 49.9243 20.105V19.9172C49.7328 20.0737 49.4648 20.7857 49.1201 22.0533C48.7946 23.3052 48.4883 24.651 48.2011 26.0907C47.9139 27.5305 47.7607 28.4851 47.7416 28.9545C48.5457 29.1423 49.3978 29.2362 50.2977 29.2362ZM49.5797 16.0909C49.4648 16.0909 49.3595 16.0675 49.2637 16.0205C49.168 15.9579 49.1201 15.8797 49.1201 15.7858C49.1201 15.7075 49.168 15.6293 49.2637 15.551L49.7233 15.2224C49.819 15.1442 50.3551 14.7608 51.3316 14.0722L53.0261 12.875C53.1027 12.8437 53.1889 12.8281 53.2846 12.8281C53.5144 12.8281 53.725 12.922 53.9165 13.1098C54.1079 13.2976 54.2037 13.4932 54.2037 13.6966C54.2037 13.8844 54.1367 14.0096 54.0026 14.0722C53.3133 14.5104 51.9156 15.1676 49.8094 16.044C49.7711 16.0753 49.6946 16.0909 49.5797 16.0909Z"/>
<path d="M57.7825 34.7995C57.0932 34.7995 56.4997 34.6978 56.0018 34.4943C55.6955 34.3535 55.5423 34.1892 55.5423 34.0014C55.5423 33.8136 55.5998 33.6649 55.7146 33.5554C55.8295 33.4302 55.9923 33.3676 56.2029 33.3676C56.3943 33.3676 56.672 33.4302 57.0358 33.5554C57.4379 33.6806 57.6868 33.7432 57.7825 33.7432C58.1463 33.7432 58.4718 33.618 58.759 33.3676C59.0654 33.1016 59.3047 32.7573 59.477 32.3348C59.8217 31.5523 59.994 30.8481 59.994 30.2221C59.994 29.5492 59.86 28.845 59.5919 28.1095C59.343 27.3583 58.9983 26.6306 58.558 25.9264L58.0984 25.1753C57.6198 24.3928 57.2464 23.7747 56.9783 23.3209C56.7294 22.867 56.5092 22.3741 56.3178 21.842C56.0306 21.0908 55.887 20.3632 55.887 19.6589C55.887 19.0956 56.0018 18.5635 56.2316 18.0627C56.4805 17.562 56.8443 17.1394 57.323 16.7952C57.8017 16.4196 58.3952 16.2318 59.1036 16.2318C59.4483 16.2318 59.7834 16.3179 60.1089 16.49C60.4344 16.6465 60.6641 16.8499 60.7982 17.1003L60.3099 17.5933C59.8121 17.5933 59.4387 17.515 59.1898 17.3585C58.8452 17.3898 58.5388 17.5307 58.2708 17.7811C58.0218 18.0158 57.8304 18.2896 57.6963 18.6026C57.5815 18.9 57.524 19.1973 57.524 19.4946C57.524 20.0893 57.6198 20.6996 57.8112 21.3256C58.0218 21.9359 58.2899 22.5149 58.6154 23.0626L60.6258 26.349C60.9513 26.9123 61.2098 27.5461 61.4013 28.2503C61.5928 28.9545 61.6885 29.6588 61.6885 30.363C61.6885 31.3958 61.3821 32.3661 60.7694 33.2737C60.4439 33.7432 60.0227 34.1109 59.5057 34.377C58.9888 34.6587 58.4144 34.7995 57.7825 34.7995Z"/>
<path d="M66.7617 34.2596C65.1151 34.2596 64.2917 34.0249 64.2917 33.5554C64.2917 33.1798 64.5789 32.992 65.1533 32.992H65.498C65.5746 33.0077 65.6607 33.0155 65.7565 33.0155C65.9097 33.0155 66.015 32.9764 66.0724 32.8981C66.149 32.8199 66.1873 32.679 66.1873 32.4756C66.1873 31.1454 66.0916 29.3301 65.9001 27.0297C65.7278 24.6354 65.6416 22.8279 65.6416 21.6073C65.6416 21.1691 65.6512 20.77 65.6703 20.4101L65.699 19.2129C65.699 18.6965 65.6703 18.2662 65.6129 17.9219C65.4023 17.9845 65.1821 18.0158 64.9523 18.0158C64.5119 18.0158 64.2917 17.828 64.2917 17.4524C64.2917 17.2646 64.4258 17.1003 64.6938 16.9595C64.981 16.8186 65.3448 16.7169 65.7852 16.6543C66.5894 16.5448 67.2691 16.49 67.8243 16.49C68.0541 16.49 68.2456 16.5526 68.3988 16.6778C68.5711 16.803 68.6572 16.9516 68.6572 17.1238C68.6572 17.2959 68.5902 17.4446 68.4562 17.5698C68.3413 17.695 68.1881 17.7576 67.9967 17.7576C67.8818 17.7576 67.7861 17.7498 67.7095 17.7341H67.4797C67.2882 17.7341 67.1446 17.7732 67.0489 17.8515C66.9723 17.9141 66.934 18.0393 66.934 18.2271C66.934 19.8859 67.0585 22.1706 67.3074 25.0814C67.5371 28.133 67.652 30.4256 67.652 31.9592V32.8512C67.7861 32.8355 67.9775 32.8277 68.2264 32.8277C69.0306 32.8277 69.4327 33.1016 69.4327 33.6493V33.7901L68.7147 34.1892C68.6955 34.1892 68.6381 34.197 68.5424 34.2127C68.4466 34.2127 68.2552 34.2127 67.968 34.2127C67.317 34.244 66.9149 34.2596 66.7617 34.2596Z"/>
<path d="M74.4828 34.4474C74.1956 34.4474 73.9658 34.3378 73.7935 34.1188C73.6403 33.884 73.5637 33.6023 73.5637 33.2737C73.5637 32.7573 73.602 32.1235 73.6786 31.3723L73.7361 30.762L73.7935 29.5179C73.7935 28.9702 73.7265 27.7496 73.5925 25.856C73.4584 23.9625 73.3914 22.7418 73.3914 22.1941C73.3914 22.1472 73.3914 22.0611 73.3914 21.9359C73.4106 21.7951 73.4201 21.5838 73.4201 21.3021C73.4393 20.9891 73.4489 20.6057 73.4489 20.1519C73.4489 19.0095 73.3531 18.2818 73.1616 17.9688C73.0468 17.9688 72.7979 17.9923 72.4149 18.0393L71.6107 18.0862C71.3618 18.0862 71.1416 18.0314 70.9502 17.9219C70.7587 17.7967 70.663 17.6402 70.663 17.4524C70.663 17.2646 70.8927 17.1003 71.3523 16.9595C72.0224 16.7717 73.1616 16.6387 74.77 16.5604C75.421 16.5291 75.8135 16.5135 75.9475 16.5135C76.1773 16.5135 76.3879 16.5761 76.5794 16.7013C76.7709 16.8265 76.8666 16.9829 76.8666 17.1707C76.8666 17.3585 76.7804 17.515 76.6081 17.6402C76.4549 17.7498 76.2539 17.8045 76.005 17.8045L75.488 17.7811C75.3348 17.7654 75.1625 17.7576 74.971 17.7576H74.6838C74.8179 18.8217 74.8849 19.7841 74.8849 20.6448L74.8562 22.1472C74.837 22.601 74.8274 23.1096 74.8274 23.673C74.8274 24.4241 74.8657 25.3239 74.9423 26.3724C75.0381 27.6713 75.0859 28.5711 75.0859 29.0719C75.0859 29.6666 75.1242 30.3708 75.2008 31.1845C75.2774 32.014 75.3157 32.7182 75.3157 33.2972C75.3157 34.064 75.0381 34.4474 74.4828 34.4474Z"/>
<path d="M86.7274 34.7995C86.0381 34.7995 85.4445 34.6978 84.9467 34.4943C84.6403 34.3535 84.4872 34.1892 84.4872 34.0014C84.4872 33.8136 84.5446 33.6649 84.6595 33.5554C84.7744 33.4302 84.9371 33.3676 85.1477 33.3676C85.3392 33.3676 85.6168 33.4302 85.9806 33.5554C86.3827 33.6806 86.6316 33.7432 86.7274 33.7432C87.0912 33.7432 87.4167 33.618 87.7039 33.3676C88.0102 33.1016 88.2495 32.7573 88.4219 32.3348C88.7665 31.5523 88.9388 30.8481 88.9388 30.2221C88.9388 29.5492 88.8048 28.845 88.5368 28.1095C88.2878 27.3583 87.9432 26.6306 87.5028 25.9264L87.0433 25.1753C86.5646 24.3928 86.1912 23.7747 85.9232 23.3209C85.6743 22.867 85.4541 22.3741 85.2626 21.842C84.9754 21.0908 84.8318 20.3632 84.8318 19.6589C84.8318 19.0956 84.9467 18.5635 85.1765 18.0627C85.4254 17.562 85.7892 17.1394 86.2678 16.7952C86.7465 16.4196 87.3401 16.2318 88.0485 16.2318C88.3932 16.2318 88.7282 16.3179 89.0537 16.49C89.3792 16.6465 89.609 16.8499 89.743 17.1003L89.2548 17.5933C88.7569 17.5933 88.3836 17.515 88.1347 17.3585C87.79 17.3898 87.4837 17.5307 87.2156 17.7811C86.9667 18.0158 86.7752 18.2896 86.6412 18.6026C86.5263 18.9 86.4689 19.1973 86.4689 19.4946C86.4689 20.0893 86.5646 20.6996 86.7561 21.3256C86.9667 21.9359 87.2348 22.5149 87.5603 23.0626L89.5707 26.349C89.8962 26.9123 90.1547 27.5461 90.3461 28.2503C90.5376 28.9545 90.6333 29.6588 90.6333 30.363C90.6333 31.3958 90.327 32.3661 89.7143 33.2737C89.3888 33.7432 88.9676 34.1109 88.4506 34.377C87.9336 34.6587 87.3592 34.7995 86.7274 34.7995Z"/>
<path d="M95.5342 34.4239C95.1704 34.4239 94.8545 34.3848 94.5864 34.3066C94.2609 34.2283 94.0982 34.0092 94.0982 33.6493V20.0111C94.0982 19.745 94.0408 19.346 93.9259 18.8139C93.7918 18.3288 93.7248 17.9297 93.7248 17.6167V17.5463C94.0503 17.1081 94.2897 16.8265 94.4428 16.7013C94.7109 16.7013 95.0651 16.67 95.5055 16.6074C95.9076 16.5448 96.2618 16.5135 96.5682 16.5135C96.8745 16.5135 97.1713 16.5917 97.4585 16.7482C97.7457 16.8891 97.8893 17.0612 97.8893 17.2646C97.8893 17.7341 97.4489 17.9688 96.5682 17.9688H96.1661C96.0512 17.9532 95.9172 17.9454 95.764 17.9454C95.5917 17.9454 95.4864 17.9532 95.4481 17.9688C95.4481 18.5009 95.4864 19.1425 95.5629 19.8937L95.6204 20.551L95.6778 21.842C95.6778 22.1393 95.6491 22.5932 95.5917 23.2035L95.5342 24.518L95.9363 24.4476C96.3193 24.3537 96.6352 24.3067 96.8841 24.3067C97.0947 24.3067 97.2862 24.3772 97.4585 24.518C97.6308 24.6432 97.717 24.7919 97.717 24.964C97.717 25.1518 97.6404 25.3239 97.4872 25.4804C97.3532 25.6213 97.1809 25.6917 96.9702 25.6917L96.6256 25.6682H96.2522C95.965 25.6682 95.764 25.723 95.6491 25.8325V33.0859L97.2575 33.0155C98.3488 33.0155 98.8945 33.2189 98.8945 33.6258V33.7197C98.7796 33.9075 98.569 34.064 98.2627 34.1892C97.9563 34.2987 97.6595 34.3691 97.3723 34.4004L96.4246 34.4239H95.5342Z"/>
</mask>
<path d="M12.1152 34.9403C11.5982 34.9403 11.1291 34.7995 10.7079 34.5178C10.2866 34.2361 9.92283 33.8527 9.61648 33.3676C9.06122 32.5225 8.64956 31.3645 8.3815 29.8935C8.19003 28.8763 8.04643 27.7026 7.95069 26.3724L7.92197 25.1283V23.8607C7.90282 23.4539 7.89325 22.9609 7.89325 22.3819C7.89325 21.443 7.94112 20.6135 8.03685 19.8937C8.11344 19.1425 8.30491 18.3992 8.61126 17.6637C8.91761 17.0221 9.35799 16.5682 9.9324 16.3022C10.277 16.177 10.6217 16.1144 10.9663 16.1144C11.9811 16.1144 12.7853 16.443 13.3789 17.1003C14.0299 17.8358 14.4607 18.6574 14.6713 19.5651C14.9776 20.6605 15.15 21.709 15.1882 22.7105C15.2648 23.8216 15.3031 24.8701 15.3031 25.856V27.194C15.3031 27.46 15.2553 27.9608 15.1595 28.6963C15.0829 29.2753 15.0446 29.7683 15.0446 30.1752V30.2691C14.9298 30.7072 14.8723 31.2237 14.8723 31.8183C14.8723 32.2565 14.7574 32.7103 14.5277 33.1798C14.2979 33.6493 13.9724 34.0483 13.5512 34.377C13.1299 34.7526 12.6513 34.9403 12.1152 34.9403ZM12.1726 33.6493C12.5555 33.6493 12.881 33.3598 13.1491 32.7808C13.3789 32.2643 13.5416 31.6384 13.6373 30.9029C13.7522 30.1517 13.848 29.3066 13.9245 28.3677C13.9628 27.9608 13.982 27.4366 13.982 26.795L13.9533 24.6354C13.915 23.7903 13.8001 22.734 13.6086 21.4664C13.4554 20.3866 13.1682 19.432 12.747 18.6026C12.5555 18.2114 12.3162 17.9062 12.029 17.6872C11.7418 17.4681 11.4354 17.3585 11.1099 17.3585C10.6313 17.3585 10.277 17.6637 10.0473 18.274C9.76008 18.9156 9.56861 19.6198 9.47288 20.3866C9.35799 21.216 9.29098 22.0063 9.27183 22.7575L9.24311 23.5321C9.22396 23.7512 9.21439 24.0485 9.21439 24.4241V24.518C9.21439 25.5665 9.34842 26.8576 9.61648 28.3912C9.92283 30.4725 10.3728 31.9514 10.9663 32.8277C11.3493 33.3754 11.7514 33.6493 12.1726 33.6493Z" stroke="white" stroke-width="2.9" mask="url(#path-2-outside-1_107_538)"/>
<path d="M20.0268 34.33C19.6438 34.33 19.3087 34.2596 19.0215 34.1188C18.7535 33.9779 18.6194 33.7823 18.6194 33.5319C19.0407 33.1876 19.2513 32.2722 19.2513 30.7855C19.2513 29.8935 19.1651 28.5946 18.9928 26.8889C18.8013 25.2613 18.7056 23.9781 18.7056 23.0392L18.7631 21.7481C18.7822 21.3725 18.7918 20.9422 18.7918 20.4571C18.7918 20.0189 18.696 19.4633 18.5046 18.7904C18.2748 18.0862 18.1599 17.5933 18.1599 17.3116C18.1599 16.7639 18.8971 16.49 20.3714 16.49H20.8022C21.8361 16.49 22.736 16.7482 23.5019 17.2646C24.1146 17.7028 24.6316 18.3366 25.0528 19.166C25.34 19.7294 25.589 20.5118 25.7996 21.5134C25.9144 22.3897 25.9719 23.0783 25.9719 23.5791V25.4335C25.9336 25.4961 25.9144 25.5587 25.9144 25.6213C25.9144 25.7465 25.924 25.8404 25.9432 25.903C25.9623 25.9656 25.9719 26.0438 25.9719 26.1377C25.9719 26.6385 25.8762 27.241 25.6847 27.9452C25.5124 28.6337 25.2539 29.3379 24.9092 30.0578C24.0476 31.7792 23.0807 32.9998 22.0085 33.7197C21.3766 34.1266 20.716 34.33 20.0268 34.33ZM20.6299 32.9685C21.3383 32.6086 21.9606 32.0922 22.4967 31.4193C23.0328 30.7307 23.4445 29.9717 23.7317 29.1423C24.2487 27.6087 24.5071 26.0595 24.5071 24.4945C24.5071 23.6495 24.4114 22.7262 24.2199 21.7246C24.0093 20.7544 23.5594 19.878 22.8701 19.0956C22.5446 18.72 22.1329 18.4305 21.6351 18.2271C21.1373 18.008 20.5724 17.8984 19.9406 17.8984V17.9219C19.9406 19.3303 20.0555 21.4586 20.2852 24.3067C20.515 27.1392 20.6299 29.2832 20.6299 30.7385V32.9685Z" stroke="white" stroke-width="2.9" mask="url(#path-2-outside-1_107_538)"/>
<path d="M34.4705 34.6352C34.2215 34.6352 34.0301 34.5569 33.896 34.4004C33.7812 34.2596 33.7237 34.0796 33.7237 33.8605C33.7237 30.5899 33.6471 27.8278 33.494 25.5743C33.0344 25.5117 32.7089 25.4804 32.5175 25.4804C31.7324 25.4804 31.1676 25.5352 30.823 25.6447C30.823 26.5211 30.9091 27.8435 31.0814 29.6118C31.2346 31.4897 31.3112 32.8199 31.3112 33.6023C31.3112 33.7588 31.2538 33.9075 31.1389 34.0483C31.024 34.1735 30.8804 34.2361 30.7081 34.2361C30.4592 34.2361 30.2294 33.8762 30.0188 33.1563C29.7124 32.0922 29.4635 29.8622 29.2721 26.4663C29.138 24.1659 29.071 21.6933 29.071 19.0486C29.0519 18.5635 29.0423 17.8749 29.0423 16.9829C29.0423 16.7013 29.205 16.5604 29.5305 16.5604C29.722 16.5604 29.9135 16.5995 30.1049 16.6778C30.3156 16.756 30.4687 16.8421 30.5645 16.936C30.4879 17.4368 30.4496 18.0236 30.4496 18.6965C30.4496 19.3538 30.4879 20.1519 30.5645 21.0908C30.6219 22.1706 30.6506 22.9844 30.6506 23.5321V23.9546C30.6315 24.0798 30.6219 24.2285 30.6219 24.4006C30.6219 24.5571 30.6411 24.7606 30.6794 25.011C30.7942 25.011 30.9857 25.0031 31.2538 24.9875C31.5218 24.9718 31.7899 24.9484 32.0579 24.9171C32.6898 24.8701 33.1589 24.8466 33.4652 24.8466C33.4652 23.4852 33.4461 22.2254 33.4078 21.0674L33.3504 17.1473V16.5135C33.5993 16.5135 33.8195 16.5526 34.0109 16.6308C34.2024 16.6934 34.346 16.7795 34.4417 16.8891C34.6141 17.0612 34.7194 17.3585 34.7577 17.7811V18.3209C34.7577 19.6668 34.8534 22.2411 35.0449 26.0438C35.2172 29.4866 35.3034 32.0687 35.3034 33.7901C35.3034 34.0092 35.2172 34.2048 35.0449 34.377C34.8917 34.5491 34.7002 34.6352 34.4705 34.6352Z" stroke="white" stroke-width="2.9" mask="url(#path-2-outside-1_107_538)"/>
<path d="M40.2455 34.5413C39.9966 34.5413 39.7668 34.463 39.5562 34.3066C39.3648 34.1657 39.269 33.9936 39.269 33.7901C39.269 33.6493 39.3073 33.4771 39.3839 33.2737C39.4413 33.0546 39.4701 32.8903 39.4701 32.7808C39.4701 31.388 39.3743 28.712 39.1829 24.7527C38.9914 21.3725 38.8957 18.7044 38.8957 16.7482C38.8957 16.6074 38.9627 16.4978 39.0967 16.4196C39.2307 16.3257 39.3935 16.2787 39.5849 16.2787C39.8147 16.2787 40.0158 16.3492 40.1881 16.49C40.3604 16.6152 40.4466 16.7717 40.4466 16.9595C40.4466 17.8984 40.504 19.3068 40.6189 21.1847C40.7146 23.2661 40.7625 24.6745 40.7625 25.41L40.7912 25.6917V26.2551C40.8486 27.6165 40.8774 29.6509 40.8774 32.3582V32.9685H43.0888C43.4909 33.2033 43.692 33.438 43.692 33.6728C43.692 33.8449 43.6154 34.0014 43.4622 34.1422C43.3282 34.2674 43.1654 34.33 42.974 34.33C42.9165 34.33 42.8112 34.3144 42.658 34.2831L42.5432 34.2596C42.4283 34.2753 42.2464 34.2831 41.9975 34.2831H41.5092C41.3752 34.2674 41.222 34.2596 41.0497 34.2596C40.8582 34.4474 40.5902 34.5413 40.2455 34.5413Z" stroke="white" stroke-width="2.9" mask="url(#path-2-outside-1_107_538)"/>
<path d="M51.7911 34.2831C51.4848 34.2831 51.255 34.2361 51.1019 34.1422C50.9678 34.0483 50.9008 33.8918 50.9008 33.6728V30.5977C50.6519 30.4569 50.1828 30.3317 49.4935 30.2221C48.8042 30.1126 48.1532 30.0422 47.5405 30.0109C47.3299 30.3395 47.1767 30.7385 47.081 31.208L46.9661 31.6775C46.947 31.787 46.8895 32.0296 46.7938 32.4052C46.6981 32.7808 46.5927 33.1094 46.4779 33.3911C46.363 33.6571 46.2481 33.8684 46.1332 34.0249C45.4056 34.0249 44.9844 33.8684 44.8695 33.5554C45.0801 33.305 45.3195 32.5695 45.5875 31.3489L46.5353 27.0532C46.9565 25.0188 47.3395 23.2817 47.6841 21.842C48.0479 20.4023 48.4309 19.1973 48.8329 18.2271C49.2733 17.1473 49.6946 16.6074 50.0966 16.6074C50.4987 16.6074 50.8051 16.67 51.0157 16.7952C51.0157 17.4211 51.1976 18.9313 51.5614 21.3256C51.9443 23.673 52.1358 25.277 52.1358 26.1377C52.1358 26.9671 52.2411 28.1564 52.4517 29.7057C52.6432 31.2863 52.7389 32.546 52.7389 33.485C52.7389 34.017 52.423 34.2831 51.7911 34.2831ZM50.2977 29.2362C50.4509 29.2362 50.6423 29.2128 50.8721 29.1658C50.8147 28.4772 50.7189 27.6244 50.5849 26.6072C50.1445 23.0705 49.9243 20.9031 49.9243 20.105V19.9172C49.7328 20.0737 49.4648 20.7857 49.1201 22.0533C48.7946 23.3052 48.4883 24.651 48.2011 26.0907C47.9139 27.5305 47.7607 28.4851 47.7416 28.9545C48.5457 29.1423 49.3978 29.2362 50.2977 29.2362ZM49.5797 16.0909C49.4648 16.0909 49.3595 16.0675 49.2637 16.0205C49.168 15.9579 49.1201 15.8797 49.1201 15.7858C49.1201 15.7075 49.168 15.6293 49.2637 15.551L49.7233 15.2224C49.819 15.1442 50.3551 14.7608 51.3316 14.0722L53.0261 12.875C53.1027 12.8437 53.1889 12.8281 53.2846 12.8281C53.5144 12.8281 53.725 12.922 53.9165 13.1098C54.1079 13.2976 54.2037 13.4932 54.2037 13.6966C54.2037 13.8844 54.1367 14.0096 54.0026 14.0722C53.3133 14.5104 51.9156 15.1676 49.8094 16.044C49.7711 16.0753 49.6946 16.0909 49.5797 16.0909Z" stroke="white" stroke-width="2.9" mask="url(#path-2-outside-1_107_538)"/>
<path d="M57.7825 34.7995C57.0932 34.7995 56.4997 34.6978 56.0018 34.4943C55.6955 34.3535 55.5423 34.1892 55.5423 34.0014C55.5423 33.8136 55.5998 33.6649 55.7146 33.5554C55.8295 33.4302 55.9923 33.3676 56.2029 33.3676C56.3943 33.3676 56.672 33.4302 57.0358 33.5554C57.4379 33.6806 57.6868 33.7432 57.7825 33.7432C58.1463 33.7432 58.4718 33.618 58.759 33.3676C59.0654 33.1016 59.3047 32.7573 59.477 32.3348C59.8217 31.5523 59.994 30.8481 59.994 30.2221C59.994 29.5492 59.86 28.845 59.5919 28.1095C59.343 27.3583 58.9983 26.6306 58.558 25.9264L58.0984 25.1753C57.6198 24.3928 57.2464 23.7747 56.9783 23.3209C56.7294 22.867 56.5092 22.3741 56.3178 21.842C56.0306 21.0908 55.887 20.3632 55.887 19.6589C55.887 19.0956 56.0018 18.5635 56.2316 18.0627C56.4805 17.562 56.8443 17.1394 57.323 16.7952C57.8017 16.4196 58.3952 16.2318 59.1036 16.2318C59.4483 16.2318 59.7834 16.3179 60.1089 16.49C60.4344 16.6465 60.6641 16.8499 60.7982 17.1003L60.3099 17.5933C59.8121 17.5933 59.4387 17.515 59.1898 17.3585C58.8452 17.3898 58.5388 17.5307 58.2708 17.7811C58.0218 18.0158 57.8304 18.2896 57.6963 18.6026C57.5815 18.9 57.524 19.1973 57.524 19.4946C57.524 20.0893 57.6198 20.6996 57.8112 21.3256C58.0218 21.9359 58.2899 22.5149 58.6154 23.0626L60.6258 26.349C60.9513 26.9123 61.2098 27.5461 61.4013 28.2503C61.5928 28.9545 61.6885 29.6588 61.6885 30.363C61.6885 31.3958 61.3821 32.3661 60.7694 33.2737C60.4439 33.7432 60.0227 34.1109 59.5057 34.377C58.9888 34.6587 58.4144 34.7995 57.7825 34.7995Z" stroke="white" stroke-width="2.9" mask="url(#path-2-outside-1_107_538)"/>
<path d="M66.7617 34.2596C65.1151 34.2596 64.2917 34.0249 64.2917 33.5554C64.2917 33.1798 64.5789 32.992 65.1533 32.992H65.498C65.5746 33.0077 65.6607 33.0155 65.7565 33.0155C65.9097 33.0155 66.015 32.9764 66.0724 32.8981C66.149 32.8199 66.1873 32.679 66.1873 32.4756C66.1873 31.1454 66.0916 29.3301 65.9001 27.0297C65.7278 24.6354 65.6416 22.8279 65.6416 21.6073C65.6416 21.1691 65.6512 20.77 65.6703 20.4101L65.699 19.2129C65.699 18.6965 65.6703 18.2662 65.6129 17.9219C65.4023 17.9845 65.1821 18.0158 64.9523 18.0158C64.5119 18.0158 64.2917 17.828 64.2917 17.4524C64.2917 17.2646 64.4258 17.1003 64.6938 16.9595C64.981 16.8186 65.3448 16.7169 65.7852 16.6543C66.5894 16.5448 67.2691 16.49 67.8243 16.49C68.0541 16.49 68.2456 16.5526 68.3988 16.6778C68.5711 16.803 68.6572 16.9516 68.6572 17.1238C68.6572 17.2959 68.5902 17.4446 68.4562 17.5698C68.3413 17.695 68.1881 17.7576 67.9967 17.7576C67.8818 17.7576 67.7861 17.7498 67.7095 17.7341H67.4797C67.2882 17.7341 67.1446 17.7732 67.0489 17.8515C66.9723 17.9141 66.934 18.0393 66.934 18.2271C66.934 19.8859 67.0585 22.1706 67.3074 25.0814C67.5371 28.133 67.652 30.4256 67.652 31.9592V32.8512C67.7861 32.8355 67.9775 32.8277 68.2264 32.8277C69.0306 32.8277 69.4327 33.1016 69.4327 33.6493V33.7901L68.7147 34.1892C68.6955 34.1892 68.6381 34.197 68.5424 34.2127C68.4466 34.2127 68.2552 34.2127 67.968 34.2127C67.317 34.244 66.9149 34.2596 66.7617 34.2596Z" stroke="white" stroke-width="2.9" mask="url(#path-2-outside-1_107_538)"/>
<path d="M74.4828 34.4474C74.1956 34.4474 73.9658 34.3378 73.7935 34.1188C73.6403 33.884 73.5637 33.6023 73.5637 33.2737C73.5637 32.7573 73.602 32.1235 73.6786 31.3723L73.7361 30.762L73.7935 29.5179C73.7935 28.9702 73.7265 27.7496 73.5925 25.856C73.4584 23.9625 73.3914 22.7418 73.3914 22.1941C73.3914 22.1472 73.3914 22.0611 73.3914 21.9359C73.4106 21.7951 73.4201 21.5838 73.4201 21.3021C73.4393 20.9891 73.4489 20.6057 73.4489 20.1519C73.4489 19.0095 73.3531 18.2818 73.1616 17.9688C73.0468 17.9688 72.7979 17.9923 72.4149 18.0393L71.6107 18.0862C71.3618 18.0862 71.1416 18.0314 70.9502 17.9219C70.7587 17.7967 70.663 17.6402 70.663 17.4524C70.663 17.2646 70.8927 17.1003 71.3523 16.9595C72.0224 16.7717 73.1616 16.6387 74.77 16.5604C75.421 16.5291 75.8135 16.5135 75.9475 16.5135C76.1773 16.5135 76.3879 16.5761 76.5794 16.7013C76.7709 16.8265 76.8666 16.9829 76.8666 17.1707C76.8666 17.3585 76.7804 17.515 76.6081 17.6402C76.4549 17.7498 76.2539 17.8045 76.005 17.8045L75.488 17.7811C75.3348 17.7654 75.1625 17.7576 74.971 17.7576H74.6838C74.8179 18.8217 74.8849 19.7841 74.8849 20.6448L74.8562 22.1472C74.837 22.601 74.8274 23.1096 74.8274 23.673C74.8274 24.4241 74.8657 25.3239 74.9423 26.3724C75.0381 27.6713 75.0859 28.5711 75.0859 29.0719C75.0859 29.6666 75.1242 30.3708 75.2008 31.1845C75.2774 32.014 75.3157 32.7182 75.3157 33.2972C75.3157 34.064 75.0381 34.4474 74.4828 34.4474Z" stroke="white" stroke-width="2.9" mask="url(#path-2-outside-1_107_538)"/>
<path d="M86.7274 34.7995C86.0381 34.7995 85.4445 34.6978 84.9467 34.4943C84.6403 34.3535 84.4872 34.1892 84.4872 34.0014C84.4872 33.8136 84.5446 33.6649 84.6595 33.5554C84.7744 33.4302 84.9371 33.3676 85.1477 33.3676C85.3392 33.3676 85.6168 33.4302 85.9806 33.5554C86.3827 33.6806 86.6316 33.7432 86.7274 33.7432C87.0912 33.7432 87.4167 33.618 87.7039 33.3676C88.0102 33.1016 88.2495 32.7573 88.4219 32.3348C88.7665 31.5523 88.9388 30.8481 88.9388 30.2221C88.9388 29.5492 88.8048 28.845 88.5368 28.1095C88.2878 27.3583 87.9432 26.6306 87.5028 25.9264L87.0433 25.1753C86.5646 24.3928 86.1912 23.7747 85.9232 23.3209C85.6743 22.867 85.4541 22.3741 85.2626 21.842C84.9754 21.0908 84.8318 20.3632 84.8318 19.6589C84.8318 19.0956 84.9467 18.5635 85.1765 18.0627C85.4254 17.562 85.7892 17.1394 86.2678 16.7952C86.7465 16.4196 87.3401 16.2318 88.0485 16.2318C88.3932 16.2318 88.7282 16.3179 89.0537 16.49C89.3792 16.6465 89.609 16.8499 89.743 17.1003L89.2548 17.5933C88.7569 17.5933 88.3836 17.515 88.1347 17.3585C87.79 17.3898 87.4837 17.5307 87.2156 17.7811C86.9667 18.0158 86.7752 18.2896 86.6412 18.6026C86.5263 18.9 86.4689 19.1973 86.4689 19.4946C86.4689 20.0893 86.5646 20.6996 86.7561 21.3256C86.9667 21.9359 87.2348 22.5149 87.5603 23.0626L89.5707 26.349C89.8962 26.9123 90.1547 27.5461 90.3461 28.2503C90.5376 28.9545 90.6333 29.6588 90.6333 30.363C90.6333 31.3958 90.327 32.3661 89.7143 33.2737C89.3888 33.7432 88.9676 34.1109 88.4506 34.377C87.9336 34.6587 87.3592 34.7995 86.7274 34.7995Z" stroke="white" stroke-width="2.9" mask="url(#path-2-outside-1_107_538)"/>
<path d="M95.5342 34.4239C95.1704 34.4239 94.8545 34.3848 94.5864 34.3066C94.2609 34.2283 94.0982 34.0092 94.0982 33.6493V20.0111C94.0982 19.745 94.0408 19.346 93.9259 18.8139C93.7918 18.3288 93.7248 17.9297 93.7248 17.6167V17.5463C94.0503 17.1081 94.2897 16.8265 94.4428 16.7013C94.7109 16.7013 95.0651 16.67 95.5055 16.6074C95.9076 16.5448 96.2618 16.5135 96.5682 16.5135C96.8745 16.5135 97.1713 16.5917 97.4585 16.7482C97.7457 16.8891 97.8893 17.0612 97.8893 17.2646C97.8893 17.7341 97.4489 17.9688 96.5682 17.9688H96.1661C96.0512 17.9532 95.9172 17.9454 95.764 17.9454C95.5917 17.9454 95.4864 17.9532 95.4481 17.9688C95.4481 18.5009 95.4864 19.1425 95.5629 19.8937L95.6204 20.551L95.6778 21.842C95.6778 22.1393 95.6491 22.5932 95.5917 23.2035L95.5342 24.518L95.9363 24.4476C96.3193 24.3537 96.6352 24.3067 96.8841 24.3067C97.0947 24.3067 97.2862 24.3772 97.4585 24.518C97.6308 24.6432 97.717 24.7919 97.717 24.964C97.717 25.1518 97.6404 25.3239 97.4872 25.4804C97.3532 25.6213 97.1809 25.6917 96.9702 25.6917L96.6256 25.6682H96.2522C95.965 25.6682 95.764 25.723 95.6491 25.8325V33.0859L97.2575 33.0155C98.3488 33.0155 98.8945 33.2189 98.8945 33.6258V33.7197C98.7796 33.9075 98.569 34.064 98.2627 34.1892C97.9563 34.2987 97.6595 34.3691 97.3723 34.4004L96.4246 34.4239H95.5342Z" stroke="white" stroke-width="2.9" mask="url(#path-2-outside-1_107_538)"/>
<mask id="path-3-outside-2_107_538" maskUnits="userSpaceOnUse" x="6.89325" y="11.8281" width="93" height="24" fill="black">
<rect fill="white" x="6.89325" y="11.8281" width="93" height="24"/>
<path d="M12.1152 34.9403C11.5982 34.9403 11.1291 34.7995 10.7079 34.5178C10.2866 34.2361 9.92283 33.8527 9.61648 33.3676C9.06122 32.5225 8.64956 31.3645 8.3815 29.8935C8.19003 28.8763 8.04643 27.7026 7.95069 26.3724L7.92197 25.1283V23.8607C7.90282 23.4539 7.89325 22.9609 7.89325 22.3819C7.89325 21.443 7.94112 20.6135 8.03685 19.8937C8.11344 19.1425 8.30491 18.3992 8.61126 17.6637C8.91761 17.0221 9.35799 16.5682 9.9324 16.3022C10.277 16.177 10.6217 16.1144 10.9663 16.1144C11.9811 16.1144 12.7853 16.443 13.3789 17.1003C14.0299 17.8358 14.4607 18.6574 14.6713 19.5651C14.9776 20.6605 15.15 21.709 15.1882 22.7105C15.2648 23.8216 15.3031 24.8701 15.3031 25.856V27.194C15.3031 27.46 15.2553 27.9608 15.1595 28.6963C15.0829 29.2753 15.0446 29.7683 15.0446 30.1752V30.2691C14.9298 30.7072 14.8723 31.2237 14.8723 31.8183C14.8723 32.2565 14.7574 32.7103 14.5277 33.1798C14.2979 33.6493 13.9724 34.0483 13.5512 34.377C13.1299 34.7526 12.6513 34.9403 12.1152 34.9403ZM12.1726 33.6493C12.5555 33.6493 12.881 33.3598 13.1491 32.7808C13.3789 32.2643 13.5416 31.6384 13.6373 30.9029C13.7522 30.1517 13.848 29.3066 13.9245 28.3677C13.9628 27.9608 13.982 27.4366 13.982 26.795L13.9533 24.6354C13.915 23.7903 13.8001 22.734 13.6086 21.4664C13.4554 20.3866 13.1682 19.432 12.747 18.6026C12.5555 18.2114 12.3162 17.9062 12.029 17.6872C11.7418 17.4681 11.4354 17.3585 11.1099 17.3585C10.6313 17.3585 10.277 17.6637 10.0473 18.274C9.76008 18.9156 9.56861 19.6198 9.47288 20.3866C9.35799 21.216 9.29098 22.0063 9.27183 22.7575L9.24311 23.5321C9.22396 23.7512 9.21439 24.0485 9.21439 24.4241V24.518C9.21439 25.5665 9.34842 26.8576 9.61648 28.3912C9.92283 30.4725 10.3728 31.9514 10.9663 32.8277C11.3493 33.3754 11.7514 33.6493 12.1726 33.6493Z"/>
<path d="M20.0268 34.33C19.6438 34.33 19.3087 34.2596 19.0215 34.1188C18.7535 33.9779 18.6194 33.7823 18.6194 33.5319C19.0407 33.1876 19.2513 32.2722 19.2513 30.7855C19.2513 29.8935 19.1651 28.5946 18.9928 26.8889C18.8013 25.2613 18.7056 23.9781 18.7056 23.0392L18.7631 21.7481C18.7822 21.3725 18.7918 20.9422 18.7918 20.4571C18.7918 20.0189 18.696 19.4633 18.5046 18.7904C18.2748 18.0862 18.1599 17.5933 18.1599 17.3116C18.1599 16.7639 18.8971 16.49 20.3714 16.49H20.8022C21.8361 16.49 22.736 16.7482 23.5019 17.2646C24.1146 17.7028 24.6316 18.3366 25.0528 19.166C25.34 19.7294 25.589 20.5118 25.7996 21.5134C25.9144 22.3897 25.9719 23.0783 25.9719 23.5791V25.4335C25.9336 25.4961 25.9144 25.5587 25.9144 25.6213C25.9144 25.7465 25.924 25.8404 25.9432 25.903C25.9623 25.9656 25.9719 26.0438 25.9719 26.1377C25.9719 26.6385 25.8762 27.241 25.6847 27.9452C25.5124 28.6337 25.2539 29.3379 24.9092 30.0578C24.0476 31.7792 23.0807 32.9998 22.0085 33.7197C21.3766 34.1266 20.716 34.33 20.0268 34.33ZM20.6299 32.9685C21.3383 32.6086 21.9606 32.0922 22.4967 31.4193C23.0328 30.7307 23.4445 29.9717 23.7317 29.1423C24.2487 27.6087 24.5071 26.0595 24.5071 24.4945C24.5071 23.6495 24.4114 22.7262 24.2199 21.7246C24.0093 20.7544 23.5594 19.878 22.8701 19.0956C22.5446 18.72 22.1329 18.4305 21.6351 18.2271C21.1373 18.008 20.5724 17.8984 19.9406 17.8984V17.9219C19.9406 19.3303 20.0555 21.4586 20.2852 24.3067C20.515 27.1392 20.6299 29.2832 20.6299 30.7385V32.9685Z"/>
<path d="M34.4705 34.6352C34.2215 34.6352 34.0301 34.5569 33.896 34.4004C33.7812 34.2596 33.7237 34.0796 33.7237 33.8605C33.7237 30.5899 33.6471 27.8278 33.494 25.5743C33.0344 25.5117 32.7089 25.4804 32.5175 25.4804C31.7324 25.4804 31.1676 25.5352 30.823 25.6447C30.823 26.5211 30.9091 27.8435 31.0814 29.6118C31.2346 31.4897 31.3112 32.8199 31.3112 33.6023C31.3112 33.7588 31.2538 33.9075 31.1389 34.0483C31.024 34.1735 30.8804 34.2361 30.7081 34.2361C30.4592 34.2361 30.2294 33.8762 30.0188 33.1563C29.7124 32.0922 29.4635 29.8622 29.2721 26.4663C29.138 24.1659 29.071 21.6933 29.071 19.0486C29.0519 18.5635 29.0423 17.8749 29.0423 16.9829C29.0423 16.7013 29.205 16.5604 29.5305 16.5604C29.722 16.5604 29.9135 16.5995 30.1049 16.6778C30.3156 16.756 30.4687 16.8421 30.5645 16.936C30.4879 17.4368 30.4496 18.0236 30.4496 18.6965C30.4496 19.3538 30.4879 20.1519 30.5645 21.0908C30.6219 22.1706 30.6506 22.9844 30.6506 23.5321V23.9546C30.6315 24.0798 30.6219 24.2285 30.6219 24.4006C30.6219 24.5571 30.6411 24.7606 30.6794 25.011C30.7942 25.011 30.9857 25.0031 31.2538 24.9875C31.5218 24.9718 31.7899 24.9484 32.0579 24.9171C32.6898 24.8701 33.1589 24.8466 33.4652 24.8466C33.4652 23.4852 33.4461 22.2254 33.4078 21.0674L33.3504 17.1473V16.5135C33.5993 16.5135 33.8195 16.5526 34.0109 16.6308C34.2024 16.6934 34.346 16.7795 34.4417 16.8891C34.6141 17.0612 34.7194 17.3585 34.7577 17.7811V18.3209C34.7577 19.6668 34.8534 22.2411 35.0449 26.0438C35.2172 29.4866 35.3034 32.0687 35.3034 33.7901C35.3034 34.0092 35.2172 34.2048 35.0449 34.377C34.8917 34.5491 34.7002 34.6352 34.4705 34.6352Z"/>
<path d="M40.2455 34.5413C39.9966 34.5413 39.7668 34.463 39.5562 34.3066C39.3648 34.1657 39.269 33.9936 39.269 33.7901C39.269 33.6493 39.3073 33.4771 39.3839 33.2737C39.4413 33.0546 39.4701 32.8903 39.4701 32.7808C39.4701 31.388 39.3743 28.712 39.1829 24.7527C38.9914 21.3725 38.8957 18.7044 38.8957 16.7482C38.8957 16.6074 38.9627 16.4978 39.0967 16.4196C39.2307 16.3257 39.3935 16.2787 39.5849 16.2787C39.8147 16.2787 40.0158 16.3492 40.1881 16.49C40.3604 16.6152 40.4466 16.7717 40.4466 16.9595C40.4466 17.8984 40.504 19.3068 40.6189 21.1847C40.7146 23.2661 40.7625 24.6745 40.7625 25.41L40.7912 25.6917V26.2551C40.8486 27.6165 40.8774 29.6509 40.8774 32.3582V32.9685H43.0888C43.4909 33.2033 43.692 33.438 43.692 33.6728C43.692 33.8449 43.6154 34.0014 43.4622 34.1422C43.3282 34.2674 43.1654 34.33 42.974 34.33C42.9165 34.33 42.8112 34.3144 42.658 34.2831L42.5432 34.2596C42.4283 34.2753 42.2464 34.2831 41.9975 34.2831H41.5092C41.3752 34.2674 41.222 34.2596 41.0497 34.2596C40.8582 34.4474 40.5902 34.5413 40.2455 34.5413Z"/>
<path d="M51.7911 34.2831C51.4848 34.2831 51.255 34.2361 51.1019 34.1422C50.9678 34.0483 50.9008 33.8918 50.9008 33.6728V30.5977C50.6519 30.4569 50.1828 30.3317 49.4935 30.2221C48.8042 30.1126 48.1532 30.0422 47.5405 30.0109C47.3299 30.3395 47.1767 30.7385 47.081 31.208L46.9661 31.6775C46.947 31.787 46.8895 32.0296 46.7938 32.4052C46.6981 32.7808 46.5927 33.1094 46.4779 33.3911C46.363 33.6571 46.2481 33.8684 46.1332 34.0249C45.4056 34.0249 44.9844 33.8684 44.8695 33.5554C45.0801 33.305 45.3195 32.5695 45.5875 31.3489L46.5353 27.0532C46.9565 25.0188 47.3395 23.2817 47.6841 21.842C48.0479 20.4023 48.4309 19.1973 48.8329 18.2271C49.2733 17.1473 49.6946 16.6074 50.0966 16.6074C50.4987 16.6074 50.8051 16.67 51.0157 16.7952C51.0157 17.4211 51.1976 18.9313 51.5614 21.3256C51.9443 23.673 52.1358 25.277 52.1358 26.1377C52.1358 26.9671 52.2411 28.1564 52.4517 29.7057C52.6432 31.2863 52.7389 32.546 52.7389 33.485C52.7389 34.017 52.423 34.2831 51.7911 34.2831ZM50.2977 29.2362C50.4509 29.2362 50.6423 29.2128 50.8721 29.1658C50.8147 28.4772 50.7189 27.6244 50.5849 26.6072C50.1445 23.0705 49.9243 20.9031 49.9243 20.105V19.9172C49.7328 20.0737 49.4648 20.7857 49.1201 22.0533C48.7946 23.3052 48.4883 24.651 48.2011 26.0907C47.9139 27.5305 47.7607 28.4851 47.7416 28.9545C48.5457 29.1423 49.3978 29.2362 50.2977 29.2362ZM49.5797 16.0909C49.4648 16.0909 49.3595 16.0675 49.2637 16.0205C49.168 15.9579 49.1201 15.8797 49.1201 15.7858C49.1201 15.7075 49.168 15.6293 49.2637 15.551L49.7233 15.2224C49.819 15.1442 50.3551 14.7608 51.3316 14.0722L53.0261 12.875C53.1027 12.8437 53.1889 12.8281 53.2846 12.8281C53.5144 12.8281 53.725 12.922 53.9165 13.1098C54.1079 13.2976 54.2037 13.4932 54.2037 13.6966C54.2037 13.8844 54.1367 14.0096 54.0026 14.0722C53.3133 14.5104 51.9156 15.1676 49.8094 16.044C49.7711 16.0753 49.6946 16.0909 49.5797 16.0909Z"/>
<path d="M57.7825 34.7995C57.0932 34.7995 56.4997 34.6978 56.0018 34.4943C55.6955 34.3535 55.5423 34.1892 55.5423 34.0014C55.5423 33.8136 55.5998 33.6649 55.7146 33.5554C55.8295 33.4302 55.9923 33.3676 56.2029 33.3676C56.3943 33.3676 56.672 33.4302 57.0358 33.5554C57.4379 33.6806 57.6868 33.7432 57.7825 33.7432C58.1463 33.7432 58.4718 33.618 58.759 33.3676C59.0654 33.1016 59.3047 32.7573 59.477 32.3348C59.8217 31.5523 59.994 30.8481 59.994 30.2221C59.994 29.5492 59.86 28.845 59.5919 28.1095C59.343 27.3583 58.9983 26.6306 58.558 25.9264L58.0984 25.1753C57.6198 24.3928 57.2464 23.7747 56.9783 23.3209C56.7294 22.867 56.5092 22.3741 56.3178 21.842C56.0306 21.0908 55.887 20.3632 55.887 19.6589C55.887 19.0956 56.0018 18.5635 56.2316 18.0627C56.4805 17.562 56.8443 17.1394 57.323 16.7952C57.8017 16.4196 58.3952 16.2318 59.1036 16.2318C59.4483 16.2318 59.7834 16.3179 60.1089 16.49C60.4344 16.6465 60.6641 16.8499 60.7982 17.1003L60.3099 17.5933C59.8121 17.5933 59.4387 17.515 59.1898 17.3585C58.8452 17.3898 58.5388 17.5307 58.2708 17.7811C58.0218 18.0158 57.8304 18.2896 57.6963 18.6026C57.5815 18.9 57.524 19.1973 57.524 19.4946C57.524 20.0893 57.6198 20.6996 57.8112 21.3256C58.0218 21.9359 58.2899 22.5149 58.6154 23.0626L60.6258 26.349C60.9513 26.9123 61.2098 27.5461 61.4013 28.2503C61.5928 28.9545 61.6885 29.6588 61.6885 30.363C61.6885 31.3958 61.3821 32.3661 60.7694 33.2737C60.4439 33.7432 60.0227 34.1109 59.5057 34.377C58.9888 34.6587 58.4144 34.7995 57.7825 34.7995Z"/>
<path d="M66.7617 34.2596C65.1151 34.2596 64.2917 34.0249 64.2917 33.5554C64.2917 33.1798 64.5789 32.992 65.1533 32.992H65.498C65.5746 33.0077 65.6607 33.0155 65.7565 33.0155C65.9097 33.0155 66.015 32.9764 66.0724 32.8981C66.149 32.8199 66.1873 32.679 66.1873 32.4756C66.1873 31.1454 66.0916 29.3301 65.9001 27.0297C65.7278 24.6354 65.6416 22.8279 65.6416 21.6073C65.6416 21.1691 65.6512 20.77 65.6703 20.4101L65.699 19.2129C65.699 18.6965 65.6703 18.2662 65.6129 17.9219C65.4023 17.9845 65.1821 18.0158 64.9523 18.0158C64.5119 18.0158 64.2917 17.828 64.2917 17.4524C64.2917 17.2646 64.4258 17.1003 64.6938 16.9595C64.981 16.8186 65.3448 16.7169 65.7852 16.6543C66.5894 16.5448 67.2691 16.49 67.8243 16.49C68.0541 16.49 68.2456 16.5526 68.3988 16.6778C68.5711 16.803 68.6572 16.9516 68.6572 17.1238C68.6572 17.2959 68.5902 17.4446 68.4562 17.5698C68.3413 17.695 68.1881 17.7576 67.9967 17.7576C67.8818 17.7576 67.7861 17.7498 67.7095 17.7341H67.4797C67.2882 17.7341 67.1446 17.7732 67.0489 17.8515C66.9723 17.9141 66.934 18.0393 66.934 18.2271C66.934 19.8859 67.0585 22.1706 67.3074 25.0814C67.5371 28.133 67.652 30.4256 67.652 31.9592V32.8512C67.7861 32.8355 67.9775 32.8277 68.2264 32.8277C69.0306 32.8277 69.4327 33.1016 69.4327 33.6493V33.7901L68.7147 34.1892C68.6955 34.1892 68.6381 34.197 68.5424 34.2127C68.4466 34.2127 68.2552 34.2127 67.968 34.2127C67.317 34.244 66.9149 34.2596 66.7617 34.2596Z"/>
<path d="M74.4828 34.4474C74.1956 34.4474 73.9658 34.3378 73.7935 34.1188C73.6403 33.884 73.5637 33.6023 73.5637 33.2737C73.5637 32.7573 73.602 32.1235 73.6786 31.3723L73.7361 30.762L73.7935 29.5179C73.7935 28.9702 73.7265 27.7496 73.5925 25.856C73.4584 23.9625 73.3914 22.7418 73.3914 22.1941C73.3914 22.1472 73.3914 22.0611 73.3914 21.9359C73.4106 21.7951 73.4201 21.5838 73.4201 21.3021C73.4393 20.9891 73.4489 20.6057 73.4489 20.1519C73.4489 19.0095 73.3531 18.2818 73.1616 17.9688C73.0468 17.9688 72.7979 17.9923 72.4149 18.0393L71.6107 18.0862C71.3618 18.0862 71.1416 18.0314 70.9502 17.9219C70.7587 17.7967 70.663 17.6402 70.663 17.4524C70.663 17.2646 70.8927 17.1003 71.3523 16.9595C72.0224 16.7717 73.1616 16.6387 74.77 16.5604C75.421 16.5291 75.8135 16.5135 75.9475 16.5135C76.1773 16.5135 76.3879 16.5761 76.5794 16.7013C76.7709 16.8265 76.8666 16.9829 76.8666 17.1707C76.8666 17.3585 76.7804 17.515 76.6081 17.6402C76.4549 17.7498 76.2539 17.8045 76.005 17.8045L75.488 17.7811C75.3348 17.7654 75.1625 17.7576 74.971 17.7576H74.6838C74.8179 18.8217 74.8849 19.7841 74.8849 20.6448L74.8562 22.1472C74.837 22.601 74.8274 23.1096 74.8274 23.673C74.8274 24.4241 74.8657 25.3239 74.9423 26.3724C75.0381 27.6713 75.0859 28.5711 75.0859 29.0719C75.0859 29.6666 75.1242 30.3708 75.2008 31.1845C75.2774 32.014 75.3157 32.7182 75.3157 33.2972C75.3157 34.064 75.0381 34.4474 74.4828 34.4474Z"/>
<path d="M86.7274 34.7995C86.0381 34.7995 85.4445 34.6978 84.9467 34.4943C84.6403 34.3535 84.4872 34.1892 84.4872 34.0014C84.4872 33.8136 84.5446 33.6649 84.6595 33.5554C84.7744 33.4302 84.9371 33.3676 85.1477 33.3676C85.3392 33.3676 85.6168 33.4302 85.9806 33.5554C86.3827 33.6806 86.6316 33.7432 86.7274 33.7432C87.0912 33.7432 87.4167 33.618 87.7039 33.3676C88.0102 33.1016 88.2495 32.7573 88.4219 32.3348C88.7665 31.5523 88.9388 30.8481 88.9388 30.2221C88.9388 29.5492 88.8048 28.845 88.5368 28.1095C88.2878 27.3583 87.9432 26.6306 87.5028 25.9264L87.0433 25.1753C86.5646 24.3928 86.1912 23.7747 85.9232 23.3209C85.6743 22.867 85.4541 22.3741 85.2626 21.842C84.9754 21.0908 84.8318 20.3632 84.8318 19.6589C84.8318 19.0956 84.9467 18.5635 85.1765 18.0627C85.4254 17.562 85.7892 17.1394 86.2678 16.7952C86.7465 16.4196 87.3401 16.2318 88.0485 16.2318C88.3932 16.2318 88.7282 16.3179 89.0537 16.49C89.3792 16.6465 89.609 16.8499 89.743 17.1003L89.2548 17.5933C88.7569 17.5933 88.3836 17.515 88.1347 17.3585C87.79 17.3898 87.4837 17.5307 87.2156 17.7811C86.9667 18.0158 86.7752 18.2896 86.6412 18.6026C86.5263 18.9 86.4689 19.1973 86.4689 19.4946C86.4689 20.0893 86.5646 20.6996 86.7561 21.3256C86.9667 21.9359 87.2348 22.5149 87.5603 23.0626L89.5707 26.349C89.8962 26.9123 90.1547 27.5461 90.3461 28.2503C90.5376 28.9545 90.6333 29.6588 90.6333 30.363C90.6333 31.3958 90.327 32.3661 89.7143 33.2737C89.3888 33.7432 88.9676 34.1109 88.4506 34.377C87.9336 34.6587 87.3592 34.7995 86.7274 34.7995Z"/>
<path d="M95.5342 34.4239C95.1704 34.4239 94.8545 34.3848 94.5864 34.3066C94.2609 34.2283 94.0982 34.0092 94.0982 33.6493V20.0111C94.0982 19.745 94.0408 19.346 93.9259 18.8139C93.7918 18.3288 93.7248 17.9297 93.7248 17.6167V17.5463C94.0503 17.1081 94.2897 16.8265 94.4428 16.7013C94.7109 16.7013 95.0651 16.67 95.5055 16.6074C95.9076 16.5448 96.2618 16.5135 96.5682 16.5135C96.8745 16.5135 97.1713 16.5917 97.4585 16.7482C97.7457 16.8891 97.8893 17.0612 97.8893 17.2646C97.8893 17.7341 97.4489 17.9688 96.5682 17.9688H96.1661C96.0512 17.9532 95.9172 17.9454 95.764 17.9454C95.5917 17.9454 95.4864 17.9532 95.4481 17.9688C95.4481 18.5009 95.4864 19.1425 95.5629 19.8937L95.6204 20.551L95.6778 21.842C95.6778 22.1393 95.6491 22.5932 95.5917 23.2035L95.5342 24.518L95.9363 24.4476C96.3193 24.3537 96.6352 24.3067 96.8841 24.3067C97.0947 24.3067 97.2862 24.3772 97.4585 24.518C97.6308 24.6432 97.717 24.7919 97.717 24.964C97.717 25.1518 97.6404 25.3239 97.4872 25.4804C97.3532 25.6213 97.1809 25.6917 96.9702 25.6917L96.6256 25.6682H96.2522C95.965 25.6682 95.764 25.723 95.6491 25.8325V33.0859L97.2575 33.0155C98.3488 33.0155 98.8945 33.2189 98.8945 33.6258V33.7197C98.7796 33.9075 98.569 34.064 98.2627 34.1892C97.9563 34.2987 97.6595 34.3691 97.3723 34.4004L96.4246 34.4239H95.5342Z"/>
</mask>
<path d="M12.1152 34.9403C11.5982 34.9403 11.1291 34.7995 10.7079 34.5178C10.2866 34.2361 9.92283 33.8527 9.61648 33.3676C9.06122 32.5225 8.64956 31.3645 8.3815 29.8935C8.19003 28.8763 8.04643 27.7026 7.95069 26.3724L7.92197 25.1283V23.8607C7.90282 23.4539 7.89325 22.9609 7.89325 22.3819C7.89325 21.443 7.94112 20.6135 8.03685 19.8937C8.11344 19.1425 8.30491 18.3992 8.61126 17.6637C8.91761 17.0221 9.35799 16.5682 9.9324 16.3022C10.277 16.177 10.6217 16.1144 10.9663 16.1144C11.9811 16.1144 12.7853 16.443 13.3789 17.1003C14.0299 17.8358 14.4607 18.6574 14.6713 19.5651C14.9776 20.6605 15.15 21.709 15.1882 22.7105C15.2648 23.8216 15.3031 24.8701 15.3031 25.856V27.194C15.3031 27.46 15.2553 27.9608 15.1595 28.6963C15.0829 29.2753 15.0446 29.7683 15.0446 30.1752V30.2691C14.9298 30.7072 14.8723 31.2237 14.8723 31.8183C14.8723 32.2565 14.7574 32.7103 14.5277 33.1798C14.2979 33.6493 13.9724 34.0483 13.5512 34.377C13.1299 34.7526 12.6513 34.9403 12.1152 34.9403ZM12.1726 33.6493C12.5555 33.6493 12.881 33.3598 13.1491 32.7808C13.3789 32.2643 13.5416 31.6384 13.6373 30.9029C13.7522 30.1517 13.848 29.3066 13.9245 28.3677C13.9628 27.9608 13.982 27.4366 13.982 26.795L13.9533 24.6354C13.915 23.7903 13.8001 22.734 13.6086 21.4664C13.4554 20.3866 13.1682 19.432 12.747 18.6026C12.5555 18.2114 12.3162 17.9062 12.029 17.6872C11.7418 17.4681 11.4354 17.3585 11.1099 17.3585C10.6313 17.3585 10.277 17.6637 10.0473 18.274C9.76008 18.9156 9.56861 19.6198 9.47288 20.3866C9.35799 21.216 9.29098 22.0063 9.27183 22.7575L9.24311 23.5321C9.22396 23.7512 9.21439 24.0485 9.21439 24.4241V24.518C9.21439 25.5665 9.34842 26.8576 9.61648 28.3912C9.92283 30.4725 10.3728 31.9514 10.9663 32.8277C11.3493 33.3754 11.7514 33.6493 12.1726 33.6493Z" fill="black"/>
<path d="M20.0268 34.33C19.6438 34.33 19.3087 34.2596 19.0215 34.1188C18.7535 33.9779 18.6194 33.7823 18.6194 33.5319C19.0407 33.1876 19.2513 32.2722 19.2513 30.7855C19.2513 29.8935 19.1651 28.5946 18.9928 26.8889C18.8013 25.2613 18.7056 23.9781 18.7056 23.0392L18.7631 21.7481C18.7822 21.3725 18.7918 20.9422 18.7918 20.4571C18.7918 20.0189 18.696 19.4633 18.5046 18.7904C18.2748 18.0862 18.1599 17.5933 18.1599 17.3116C18.1599 16.7639 18.8971 16.49 20.3714 16.49H20.8022C21.8361 16.49 22.736 16.7482 23.5019 17.2646C24.1146 17.7028 24.6316 18.3366 25.0528 19.166C25.34 19.7294 25.589 20.5118 25.7996 21.5134C25.9144 22.3897 25.9719 23.0783 25.9719 23.5791V25.4335C25.9336 25.4961 25.9144 25.5587 25.9144 25.6213C25.9144 25.7465 25.924 25.8404 25.9432 25.903C25.9623 25.9656 25.9719 26.0438 25.9719 26.1377C25.9719 26.6385 25.8762 27.241 25.6847 27.9452C25.5124 28.6337 25.2539 29.3379 24.9092 30.0578C24.0476 31.7792 23.0807 32.9998 22.0085 33.7197C21.3766 34.1266 20.716 34.33 20.0268 34.33ZM20.6299 32.9685C21.3383 32.6086 21.9606 32.0922 22.4967 31.4193C23.0328 30.7307 23.4445 29.9717 23.7317 29.1423C24.2487 27.6087 24.5071 26.0595 24.5071 24.4945C24.5071 23.6495 24.4114 22.7262 24.2199 21.7246C24.0093 20.7544 23.5594 19.878 22.8701 19.0956C22.5446 18.72 22.1329 18.4305 21.6351 18.2271C21.1373 18.008 20.5724 17.8984 19.9406 17.8984V17.9219C19.9406 19.3303 20.0555 21.4586 20.2852 24.3067C20.515 27.1392 20.6299 29.2832 20.6299 30.7385V32.9685Z" fill="black"/>
<path d="M34.4705 34.6352C34.2215 34.6352 34.0301 34.5569 33.896 34.4004C33.7812 34.2596 33.7237 34.0796 33.7237 33.8605C33.7237 30.5899 33.6471 27.8278 33.494 25.5743C33.0344 25.5117 32.7089 25.4804 32.5175 25.4804C31.7324 25.4804 31.1676 25.5352 30.823 25.6447C30.823 26.5211 30.9091 27.8435 31.0814 29.6118C31.2346 31.4897 31.3112 32.8199 31.3112 33.6023C31.3112 33.7588 31.2538 33.9075 31.1389 34.0483C31.024 34.1735 30.8804 34.2361 30.7081 34.2361C30.4592 34.2361 30.2294 33.8762 30.0188 33.1563C29.7124 32.0922 29.4635 29.8622 29.2721 26.4663C29.138 24.1659 29.071 21.6933 29.071 19.0486C29.0519 18.5635 29.0423 17.8749 29.0423 16.9829C29.0423 16.7013 29.205 16.5604 29.5305 16.5604C29.722 16.5604 29.9135 16.5995 30.1049 16.6778C30.3156 16.756 30.4687 16.8421 30.5645 16.936C30.4879 17.4368 30.4496 18.0236 30.4496 18.6965C30.4496 19.3538 30.4879 20.1519 30.5645 21.0908C30.6219 22.1706 30.6506 22.9844 30.6506 23.5321V23.9546C30.6315 24.0798 30.6219 24.2285 30.6219 24.4006C30.6219 24.5571 30.6411 24.7606 30.6794 25.011C30.7942 25.011 30.9857 25.0031 31.2538 24.9875C31.5218 24.9718 31.7899 24.9484 32.0579 24.9171C32.6898 24.8701 33.1589 24.8466 33.4652 24.8466C33.4652 23.4852 33.4461 22.2254 33.4078 21.0674L33.3504 17.1473V16.5135C33.5993 16.5135 33.8195 16.5526 34.0109 16.6308C34.2024 16.6934 34.346 16.7795 34.4417 16.8891C34.6141 17.0612 34.7194 17.3585 34.7577 17.7811V18.3209C34.7577 19.6668 34.8534 22.2411 35.0449 26.0438C35.2172 29.4866 35.3034 32.0687 35.3034 33.7901C35.3034 34.0092 35.2172 34.2048 35.0449 34.377C34.8917 34.5491 34.7002 34.6352 34.4705 34.6352Z" fill="black"/>
<path d="M40.2455 34.5413C39.9966 34.5413 39.7668 34.463 39.5562 34.3066C39.3648 34.1657 39.269 33.9936 39.269 33.7901C39.269 33.6493 39.3073 33.4771 39.3839 33.2737C39.4413 33.0546 39.4701 32.8903 39.4701 32.7808C39.4701 31.388 39.3743 28.712 39.1829 24.7527C38.9914 21.3725 38.8957 18.7044 38.8957 16.7482C38.8957 16.6074 38.9627 16.4978 39.0967 16.4196C39.2307 16.3257 39.3935 16.2787 39.5849 16.2787C39.8147 16.2787 40.0158 16.3492 40.1881 16.49C40.3604 16.6152 40.4466 16.7717 40.4466 16.9595C40.4466 17.8984 40.504 19.3068 40.6189 21.1847C40.7146 23.2661 40.7625 24.6745 40.7625 25.41L40.7912 25.6917V26.2551C40.8486 27.6165 40.8774 29.6509 40.8774 32.3582V32.9685H43.0888C43.4909 33.2033 43.692 33.438 43.692 33.6728C43.692 33.8449 43.6154 34.0014 43.4622 34.1422C43.3282 34.2674 43.1654 34.33 42.974 34.33C42.9165 34.33 42.8112 34.3144 42.658 34.2831L42.5432 34.2596C42.4283 34.2753 42.2464 34.2831 41.9975 34.2831H41.5092C41.3752 34.2674 41.222 34.2596 41.0497 34.2596C40.8582 34.4474 40.5902 34.5413 40.2455 34.5413Z" fill="black"/>
<path d="M51.7911 34.2831C51.4848 34.2831 51.255 34.2361 51.1019 34.1422C50.9678 34.0483 50.9008 33.8918 50.9008 33.6728V30.5977C50.6519 30.4569 50.1828 30.3317 49.4935 30.2221C48.8042 30.1126 48.1532 30.0422 47.5405 30.0109C47.3299 30.3395 47.1767 30.7385 47.081 31.208L46.9661 31.6775C46.947 31.787 46.8895 32.0296 46.7938 32.4052C46.6981 32.7808 46.5927 33.1094 46.4779 33.3911C46.363 33.6571 46.2481 33.8684 46.1332 34.0249C45.4056 34.0249 44.9844 33.8684 44.8695 33.5554C45.0801 33.305 45.3195 32.5695 45.5875 31.3489L46.5353 27.0532C46.9565 25.0188 47.3395 23.2817 47.6841 21.842C48.0479 20.4023 48.4309 19.1973 48.8329 18.2271C49.2733 17.1473 49.6946 16.6074 50.0966 16.6074C50.4987 16.6074 50.8051 16.67 51.0157 16.7952C51.0157 17.4211 51.1976 18.9313 51.5614 21.3256C51.9443 23.673 52.1358 25.277 52.1358 26.1377C52.1358 26.9671 52.2411 28.1564 52.4517 29.7057C52.6432 31.2863 52.7389 32.546 52.7389 33.485C52.7389 34.017 52.423 34.2831 51.7911 34.2831ZM50.2977 29.2362C50.4509 29.2362 50.6423 29.2128 50.8721 29.1658C50.8147 28.4772 50.7189 27.6244 50.5849 26.6072C50.1445 23.0705 49.9243 20.9031 49.9243 20.105V19.9172C49.7328 20.0737 49.4648 20.7857 49.1201 22.0533C48.7946 23.3052 48.4883 24.651 48.2011 26.0907C47.9139 27.5305 47.7607 28.4851 47.7416 28.9545C48.5457 29.1423 49.3978 29.2362 50.2977 29.2362ZM49.5797 16.0909C49.4648 16.0909 49.3595 16.0675 49.2637 16.0205C49.168 15.9579 49.1201 15.8797 49.1201 15.7858C49.1201 15.7075 49.168 15.6293 49.2637 15.551L49.7233 15.2224C49.819 15.1442 50.3551 14.7608 51.3316 14.0722L53.0261 12.875C53.1027 12.8437 53.1889 12.8281 53.2846 12.8281C53.5144 12.8281 53.725 12.922 53.9165 13.1098C54.1079 13.2976 54.2037 13.4932 54.2037 13.6966C54.2037 13.8844 54.1367 14.0096 54.0026 14.0722C53.3133 14.5104 51.9156 15.1676 49.8094 16.044C49.7711 16.0753 49.6946 16.0909 49.5797 16.0909Z" fill="black"/>
<path d="M57.7825 34.7995C57.0932 34.7995 56.4997 34.6978 56.0018 34.4943C55.6955 34.3535 55.5423 34.1892 55.5423 34.0014C55.5423 33.8136 55.5998 33.6649 55.7146 33.5554C55.8295 33.4302 55.9923 33.3676 56.2029 33.3676C56.3943 33.3676 56.672 33.4302 57.0358 33.5554C57.4379 33.6806 57.6868 33.7432 57.7825 33.7432C58.1463 33.7432 58.4718 33.618 58.759 33.3676C59.0654 33.1016 59.3047 32.7573 59.477 32.3348C59.8217 31.5523 59.994 30.8481 59.994 30.2221C59.994 29.5492 59.86 28.845 59.5919 28.1095C59.343 27.3583 58.9983 26.6306 58.558 25.9264L58.0984 25.1753C57.6198 24.3928 57.2464 23.7747 56.9783 23.3209C56.7294 22.867 56.5092 22.3741 56.3178 21.842C56.0306 21.0908 55.887 20.3632 55.887 19.6589C55.887 19.0956 56.0018 18.5635 56.2316 18.0627C56.4805 17.562 56.8443 17.1394 57.323 16.7952C57.8017 16.4196 58.3952 16.2318 59.1036 16.2318C59.4483 16.2318 59.7834 16.3179 60.1089 16.49C60.4344 16.6465 60.6641 16.8499 60.7982 17.1003L60.3099 17.5933C59.8121 17.5933 59.4387 17.515 59.1898 17.3585C58.8452 17.3898 58.5388 17.5307 58.2708 17.7811C58.0218 18.0158 57.8304 18.2896 57.6963 18.6026C57.5815 18.9 57.524 19.1973 57.524 19.4946C57.524 20.0893 57.6198 20.6996 57.8112 21.3256C58.0218 21.9359 58.2899 22.5149 58.6154 23.0626L60.6258 26.349C60.9513 26.9123 61.2098 27.5461 61.4013 28.2503C61.5928 28.9545 61.6885 29.6588 61.6885 30.363C61.6885 31.3958 61.3821 32.3661 60.7694 33.2737C60.4439 33.7432 60.0227 34.1109 59.5057 34.377C58.9888 34.6587 58.4144 34.7995 57.7825 34.7995Z" fill="black"/>
<path d="M66.7617 34.2596C65.1151 34.2596 64.2917 34.0249 64.2917 33.5554C64.2917 33.1798 64.5789 32.992 65.1533 32.992H65.498C65.5746 33.0077 65.6607 33.0155 65.7565 33.0155C65.9097 33.0155 66.015 32.9764 66.0724 32.8981C66.149 32.8199 66.1873 32.679 66.1873 32.4756C66.1873 31.1454 66.0916 29.3301 65.9001 27.0297C65.7278 24.6354 65.6416 22.8279 65.6416 21.6073C65.6416 21.1691 65.6512 20.77 65.6703 20.4101L65.699 19.2129C65.699 18.6965 65.6703 18.2662 65.6129 17.9219C65.4023 17.9845 65.1821 18.0158 64.9523 18.0158C64.5119 18.0158 64.2917 17.828 64.2917 17.4524C64.2917 17.2646 64.4258 17.1003 64.6938 16.9595C64.981 16.8186 65.3448 16.7169 65.7852 16.6543C66.5894 16.5448 67.2691 16.49 67.8243 16.49C68.0541 16.49 68.2456 16.5526 68.3988 16.6778C68.5711 16.803 68.6572 16.9516 68.6572 17.1238C68.6572 17.2959 68.5902 17.4446 68.4562 17.5698C68.3413 17.695 68.1881 17.7576 67.9967 17.7576C67.8818 17.7576 67.7861 17.7498 67.7095 17.7341H67.4797C67.2882 17.7341 67.1446 17.7732 67.0489 17.8515C66.9723 17.9141 66.934 18.0393 66.934 18.2271C66.934 19.8859 67.0585 22.1706 67.3074 25.0814C67.5371 28.133 67.652 30.4256 67.652 31.9592V32.8512C67.7861 32.8355 67.9775 32.8277 68.2264 32.8277C69.0306 32.8277 69.4327 33.1016 69.4327 33.6493V33.7901L68.7147 34.1892C68.6955 34.1892 68.6381 34.197 68.5424 34.2127C68.4466 34.2127 68.2552 34.2127 67.968 34.2127C67.317 34.244 66.9149 34.2596 66.7617 34.2596Z" fill="black"/>
<path d="M74.4828 34.4474C74.1956 34.4474 73.9658 34.3378 73.7935 34.1188C73.6403 33.884 73.5637 33.6023 73.5637 33.2737C73.5637 32.7573 73.602 32.1235 73.6786 31.3723L73.7361 30.762L73.7935 29.5179C73.7935 28.9702 73.7265 27.7496 73.5925 25.856C73.4584 23.9625 73.3914 22.7418 73.3914 22.1941C73.3914 22.1472 73.3914 22.0611 73.3914 21.9359C73.4106 21.7951 73.4201 21.5838 73.4201 21.3021C73.4393 20.9891 73.4489 20.6057 73.4489 20.1519C73.4489 19.0095 73.3531 18.2818 73.1616 17.9688C73.0468 17.9688 72.7979 17.9923 72.4149 18.0393L71.6107 18.0862C71.3618 18.0862 71.1416 18.0314 70.9502 17.9219C70.7587 17.7967 70.663 17.6402 70.663 17.4524C70.663 17.2646 70.8927 17.1003 71.3523 16.9595C72.0224 16.7717 73.1616 16.6387 74.77 16.5604C75.421 16.5291 75.8135 16.5135 75.9475 16.5135C76.1773 16.5135 76.3879 16.5761 76.5794 16.7013C76.7709 16.8265 76.8666 16.9829 76.8666 17.1707C76.8666 17.3585 76.7804 17.515 76.6081 17.6402C76.4549 17.7498 76.2539 17.8045 76.005 17.8045L75.488 17.7811C75.3348 17.7654 75.1625 17.7576 74.971 17.7576H74.6838C74.8179 18.8217 74.8849 19.7841 74.8849 20.6448L74.8562 22.1472C74.837 22.601 74.8274 23.1096 74.8274 23.673C74.8274 24.4241 74.8657 25.3239 74.9423 26.3724C75.0381 27.6713 75.0859 28.5711 75.0859 29.0719C75.0859 29.6666 75.1242 30.3708 75.2008 31.1845C75.2774 32.014 75.3157 32.7182 75.3157 33.2972C75.3157 34.064 75.0381 34.4474 74.4828 34.4474Z" fill="black"/>
<path d="M86.7274 34.7995C86.0381 34.7995 85.4445 34.6978 84.9467 34.4943C84.6403 34.3535 84.4872 34.1892 84.4872 34.0014C84.4872 33.8136 84.5446 33.6649 84.6595 33.5554C84.7744 33.4302 84.9371 33.3676 85.1477 33.3676C85.3392 33.3676 85.6168 33.4302 85.9806 33.5554C86.3827 33.6806 86.6316 33.7432 86.7274 33.7432C87.0912 33.7432 87.4167 33.618 87.7039 33.3676C88.0102 33.1016 88.2495 32.7573 88.4219 32.3348C88.7665 31.5523 88.9388 30.8481 88.9388 30.2221C88.9388 29.5492 88.8048 28.845 88.5368 28.1095C88.2878 27.3583 87.9432 26.6306 87.5028 25.9264L87.0433 25.1753C86.5646 24.3928 86.1912 23.7747 85.9232 23.3209C85.6743 22.867 85.4541 22.3741 85.2626 21.842C84.9754 21.0908 84.8318 20.3632 84.8318 19.6589C84.8318 19.0956 84.9467 18.5635 85.1765 18.0627C85.4254 17.562 85.7892 17.1394 86.2678 16.7952C86.7465 16.4196 87.3401 16.2318 88.0485 16.2318C88.3932 16.2318 88.7282 16.3179 89.0537 16.49C89.3792 16.6465 89.609 16.8499 89.743 17.1003L89.2548 17.5933C88.7569 17.5933 88.3836 17.515 88.1347 17.3585C87.79 17.3898 87.4837 17.5307 87.2156 17.7811C86.9667 18.0158 86.7752 18.2896 86.6412 18.6026C86.5263 18.9 86.4689 19.1973 86.4689 19.4946C86.4689 20.0893 86.5646 20.6996 86.7561 21.3256C86.9667 21.9359 87.2348 22.5149 87.5603 23.0626L89.5707 26.349C89.8962 26.9123 90.1547 27.5461 90.3461 28.2503C90.5376 28.9545 90.6333 29.6588 90.6333 30.363C90.6333 31.3958 90.327 32.3661 89.7143 33.2737C89.3888 33.7432 88.9676 34.1109 88.4506 34.377C87.9336 34.6587 87.3592 34.7995 86.7274 34.7995Z" fill="black"/>
<path d="M95.5342 34.4239C95.1704 34.4239 94.8545 34.3848 94.5864 34.3066C94.2609 34.2283 94.0982 34.0092 94.0982 33.6493V20.0111C94.0982 19.745 94.0408 19.346 93.9259 18.8139C93.7918 18.3288 93.7248 17.9297 93.7248 17.6167V17.5463C94.0503 17.1081 94.2897 16.8265 94.4428 16.7013C94.7109 16.7013 95.0651 16.67 95.5055 16.6074C95.9076 16.5448 96.2618 16.5135 96.5682 16.5135C96.8745 16.5135 97.1713 16.5917 97.4585 16.7482C97.7457 16.8891 97.8893 17.0612 97.8893 17.2646C97.8893 17.7341 97.4489 17.9688 96.5682 17.9688H96.1661C96.0512 17.9532 95.9172 17.9454 95.764 17.9454C95.5917 17.9454 95.4864 17.9532 95.4481 17.9688C95.4481 18.5009 95.4864 19.1425 95.5629 19.8937L95.6204 20.551L95.6778 21.842C95.6778 22.1393 95.6491 22.5932 95.5917 23.2035L95.5342 24.518L95.9363 24.4476C96.3193 24.3537 96.6352 24.3067 96.8841 24.3067C97.0947 24.3067 97.2862 24.3772 97.4585 24.518C97.6308 24.6432 97.717 24.7919 97.717 24.964C97.717 25.1518 97.6404 25.3239 97.4872 25.4804C97.3532 25.6213 97.1809 25.6917 96.9702 25.6917L96.6256 25.6682H96.2522C95.965 25.6682 95.764 25.723 95.6491 25.8325V33.0859L97.2575 33.0155C98.3488 33.0155 98.8945 33.2189 98.8945 33.6258V33.7197C98.7796 33.9075 98.569 34.064 98.2627 34.1892C97.9563 34.2987 97.6595 34.3691 97.3723 34.4004L96.4246 34.4239H95.5342Z" fill="black"/>
<path d="M12.1152 34.9403C11.5982 34.9403 11.1291 34.7995 10.7079 34.5178C10.2866 34.2361 9.92283 33.8527 9.61648 33.3676C9.06122 32.5225 8.64956 31.3645 8.3815 29.8935C8.19003 28.8763 8.04643 27.7026 7.95069 26.3724L7.92197 25.1283V23.8607C7.90282 23.4539 7.89325 22.9609 7.89325 22.3819C7.89325 21.443 7.94112 20.6135 8.03685 19.8937C8.11344 19.1425 8.30491 18.3992 8.61126 17.6637C8.91761 17.0221 9.35799 16.5682 9.9324 16.3022C10.277 16.177 10.6217 16.1144 10.9663 16.1144C11.9811 16.1144 12.7853 16.443 13.3789 17.1003C14.0299 17.8358 14.4607 18.6574 14.6713 19.5651C14.9776 20.6605 15.15 21.709 15.1882 22.7105C15.2648 23.8216 15.3031 24.8701 15.3031 25.856V27.194C15.3031 27.46 15.2553 27.9608 15.1595 28.6963C15.0829 29.2753 15.0446 29.7683 15.0446 30.1752V30.2691C14.9298 30.7072 14.8723 31.2237 14.8723 31.8183C14.8723 32.2565 14.7574 32.7103 14.5277 33.1798C14.2979 33.6493 13.9724 34.0483 13.5512 34.377C13.1299 34.7526 12.6513 34.9403 12.1152 34.9403ZM12.1726 33.6493C12.5555 33.6493 12.881 33.3598 13.1491 32.7808C13.3789 32.2643 13.5416 31.6384 13.6373 30.9029C13.7522 30.1517 13.848 29.3066 13.9245 28.3677C13.9628 27.9608 13.982 27.4366 13.982 26.795L13.9533 24.6354C13.915 23.7903 13.8001 22.734 13.6086 21.4664C13.4554 20.3866 13.1682 19.432 12.747 18.6026C12.5555 18.2114 12.3162 17.9062 12.029 17.6872C11.7418 17.4681 11.4354 17.3585 11.1099 17.3585C10.6313 17.3585 10.277 17.6637 10.0473 18.274C9.76008 18.9156 9.56861 19.6198 9.47288 20.3866C9.35799 21.216 9.29098 22.0063 9.27183 22.7575L9.24311 23.5321C9.22396 23.7512 9.21439 24.0485 9.21439 24.4241V24.518C9.21439 25.5665 9.34842 26.8576 9.61648 28.3912C9.92283 30.4725 10.3728 31.9514 10.9663 32.8277C11.3493 33.3754 11.7514 33.6493 12.1726 33.6493Z" stroke="black" stroke-width="0.4" mask="url(#path-3-outside-2_107_538)"/>
<path d="M20.0268 34.33C19.6438 34.33 19.3087 34.2596 19.0215 34.1188C18.7535 33.9779 18.6194 33.7823 18.6194 33.5319C19.0407 33.1876 19.2513 32.2722 19.2513 30.7855C19.2513 29.8935 19.1651 28.5946 18.9928 26.8889C18.8013 25.2613 18.7056 23.9781 18.7056 23.0392L18.7631 21.7481C18.7822 21.3725 18.7918 20.9422 18.7918 20.4571C18.7918 20.0189 18.696 19.4633 18.5046 18.7904C18.2748 18.0862 18.1599 17.5933 18.1599 17.3116C18.1599 16.7639 18.8971 16.49 20.3714 16.49H20.8022C21.8361 16.49 22.736 16.7482 23.5019 17.2646C24.1146 17.7028 24.6316 18.3366 25.0528 19.166C25.34 19.7294 25.589 20.5118 25.7996 21.5134C25.9144 22.3897 25.9719 23.0783 25.9719 23.5791V25.4335C25.9336 25.4961 25.9144 25.5587 25.9144 25.6213C25.9144 25.7465 25.924 25.8404 25.9432 25.903C25.9623 25.9656 25.9719 26.0438 25.9719 26.1377C25.9719 26.6385 25.8762 27.241 25.6847 27.9452C25.5124 28.6337 25.2539 29.3379 24.9092 30.0578C24.0476 31.7792 23.0807 32.9998 22.0085 33.7197C21.3766 34.1266 20.716 34.33 20.0268 34.33ZM20.6299 32.9685C21.3383 32.6086 21.9606 32.0922 22.4967 31.4193C23.0328 30.7307 23.4445 29.9717 23.7317 29.1423C24.2487 27.6087 24.5071 26.0595 24.5071 24.4945C24.5071 23.6495 24.4114 22.7262 24.2199 21.7246C24.0093 20.7544 23.5594 19.878 22.8701 19.0956C22.5446 18.72 22.1329 18.4305 21.6351 18.2271C21.1373 18.008 20.5724 17.8984 19.9406 17.8984V17.9219C19.9406 19.3303 20.0555 21.4586 20.2852 24.3067C20.515 27.1392 20.6299 29.2832 20.6299 30.7385V32.9685Z" stroke="black" stroke-width="0.4" mask="url(#path-3-outside-2_107_538)"/>
<path d="M34.4705 34.6352C34.2215 34.6352 34.0301 34.5569 33.896 34.4004C33.7812 34.2596 33.7237 34.0796 33.7237 33.8605C33.7237 30.5899 33.6471 27.8278 33.494 25.5743C33.0344 25.5117 32.7089 25.4804 32.5175 25.4804C31.7324 25.4804 31.1676 25.5352 30.823 25.6447C30.823 26.5211 30.9091 27.8435 31.0814 29.6118C31.2346 31.4897 31.3112 32.8199 31.3112 33.6023C31.3112 33.7588 31.2538 33.9075 31.1389 34.0483C31.024 34.1735 30.8804 34.2361 30.7081 34.2361C30.4592 34.2361 30.2294 33.8762 30.0188 33.1563C29.7124 32.0922 29.4635 29.8622 29.2721 26.4663C29.138 24.1659 29.071 21.6933 29.071 19.0486C29.0519 18.5635 29.0423 17.8749 29.0423 16.9829C29.0423 16.7013 29.205 16.5604 29.5305 16.5604C29.722 16.5604 29.9135 16.5995 30.1049 16.6778C30.3156 16.756 30.4687 16.8421 30.5645 16.936C30.4879 17.4368 30.4496 18.0236 30.4496 18.6965C30.4496 19.3538 30.4879 20.1519 30.5645 21.0908C30.6219 22.1706 30.6506 22.9844 30.6506 23.5321V23.9546C30.6315 24.0798 30.6219 24.2285 30.6219 24.4006C30.6219 24.5571 30.6411 24.7606 30.6794 25.011C30.7942 25.011 30.9857 25.0031 31.2538 24.9875C31.5218 24.9718 31.7899 24.9484 32.0579 24.9171C32.6898 24.8701 33.1589 24.8466 33.4652 24.8466C33.4652 23.4852 33.4461 22.2254 33.4078 21.0674L33.3504 17.1473V16.5135C33.5993 16.5135 33.8195 16.5526 34.0109 16.6308C34.2024 16.6934 34.346 16.7795 34.4417 16.8891C34.6141 17.0612 34.7194 17.3585 34.7577 17.7811V18.3209C34.7577 19.6668 34.8534 22.2411 35.0449 26.0438C35.2172 29.4866 35.3034 32.0687 35.3034 33.7901C35.3034 34.0092 35.2172 34.2048 35.0449 34.377C34.8917 34.5491 34.7002 34.6352 34.4705 34.6352Z" stroke="black" stroke-width="0.4" mask="url(#path-3-outside-2_107_538)"/>
<path d="M40.2455 34.5413C39.9966 34.5413 39.7668 34.463 39.5562 34.3066C39.3648 34.1657 39.269 33.9936 39.269 33.7901C39.269 33.6493 39.3073 33.4771 39.3839 33.2737C39.4413 33.0546 39.4701 32.8903 39.4701 32.7808C39.4701 31.388 39.3743 28.712 39.1829 24.7527C38.9914 21.3725 38.8957 18.7044 38.8957 16.7482C38.8957 16.6074 38.9627 16.4978 39.0967 16.4196C39.2307 16.3257 39.3935 16.2787 39.5849 16.2787C39.8147 16.2787 40.0158 16.3492 40.1881 16.49C40.3604 16.6152 40.4466 16.7717 40.4466 16.9595C40.4466 17.8984 40.504 19.3068 40.6189 21.1847C40.7146 23.2661 40.7625 24.6745 40.7625 25.41L40.7912 25.6917V26.2551C40.8486 27.6165 40.8774 29.6509 40.8774 32.3582V32.9685H43.0888C43.4909 33.2033 43.692 33.438 43.692 33.6728C43.692 33.8449 43.6154 34.0014 43.4622 34.1422C43.3282 34.2674 43.1654 34.33 42.974 34.33C42.9165 34.33 42.8112 34.3144 42.658 34.2831L42.5432 34.2596C42.4283 34.2753 42.2464 34.2831 41.9975 34.2831H41.5092C41.3752 34.2674 41.222 34.2596 41.0497 34.2596C40.8582 34.4474 40.5902 34.5413 40.2455 34.5413Z" stroke="black" stroke-width="0.4" mask="url(#path-3-outside-2_107_538)"/>
<path d="M51.7911 34.2831C51.4848 34.2831 51.255 34.2361 51.1019 34.1422C50.9678 34.0483 50.9008 33.8918 50.9008 33.6728V30.5977C50.6519 30.4569 50.1828 30.3317 49.4935 30.2221C48.8042 30.1126 48.1532 30.0422 47.5405 30.0109C47.3299 30.3395 47.1767 30.7385 47.081 31.208L46.9661 31.6775C46.947 31.787 46.8895 32.0296 46.7938 32.4052C46.6981 32.7808 46.5927 33.1094 46.4779 33.3911C46.363 33.6571 46.2481 33.8684 46.1332 34.0249C45.4056 34.0249 44.9844 33.8684 44.8695 33.5554C45.0801 33.305 45.3195 32.5695 45.5875 31.3489L46.5353 27.0532C46.9565 25.0188 47.3395 23.2817 47.6841 21.842C48.0479 20.4023 48.4309 19.1973 48.8329 18.2271C49.2733 17.1473 49.6946 16.6074 50.0966 16.6074C50.4987 16.6074 50.8051 16.67 51.0157 16.7952C51.0157 17.4211 51.1976 18.9313 51.5614 21.3256C51.9443 23.673 52.1358 25.277 52.1358 26.1377C52.1358 26.9671 52.2411 28.1564 52.4517 29.7057C52.6432 31.2863 52.7389 32.546 52.7389 33.485C52.7389 34.017 52.423 34.2831 51.7911 34.2831ZM50.2977 29.2362C50.4509 29.2362 50.6423 29.2128 50.8721 29.1658C50.8147 28.4772 50.7189 27.6244 50.5849 26.6072C50.1445 23.0705 49.9243 20.9031 49.9243 20.105V19.9172C49.7328 20.0737 49.4648 20.7857 49.1201 22.0533C48.7946 23.3052 48.4883 24.651 48.2011 26.0907C47.9139 27.5305 47.7607 28.4851 47.7416 28.9545C48.5457 29.1423 49.3978 29.2362 50.2977 29.2362ZM49.5797 16.0909C49.4648 16.0909 49.3595 16.0675 49.2637 16.0205C49.168 15.9579 49.1201 15.8797 49.1201 15.7858C49.1201 15.7075 49.168 15.6293 49.2637 15.551L49.7233 15.2224C49.819 15.1442 50.3551 14.7608 51.3316 14.0722L53.0261 12.875C53.1027 12.8437 53.1889 12.8281 53.2846 12.8281C53.5144 12.8281 53.725 12.922 53.9165 13.1098C54.1079 13.2976 54.2037 13.4932 54.2037 13.6966C54.2037 13.8844 54.1367 14.0096 54.0026 14.0722C53.3133 14.5104 51.9156 15.1676 49.8094 16.044C49.7711 16.0753 49.6946 16.0909 49.5797 16.0909Z" stroke="black" stroke-width="0.4" mask="url(#path-3-outside-2_107_538)"/>
<path d="M57.7825 34.7995C57.0932 34.7995 56.4997 34.6978 56.0018 34.4943C55.6955 34.3535 55.5423 34.1892 55.5423 34.0014C55.5423 33.8136 55.5998 33.6649 55.7146 33.5554C55.8295 33.4302 55.9923 33.3676 56.2029 33.3676C56.3943 33.3676 56.672 33.4302 57.0358 33.5554C57.4379 33.6806 57.6868 33.7432 57.7825 33.7432C58.1463 33.7432 58.4718 33.618 58.759 33.3676C59.0654 33.1016 59.3047 32.7573 59.477 32.3348C59.8217 31.5523 59.994 30.8481 59.994 30.2221C59.994 29.5492 59.86 28.845 59.5919 28.1095C59.343 27.3583 58.9983 26.6306 58.558 25.9264L58.0984 25.1753C57.6198 24.3928 57.2464 23.7747 56.9783 23.3209C56.7294 22.867 56.5092 22.3741 56.3178 21.842C56.0306 21.0908 55.887 20.3632 55.887 19.6589C55.887 19.0956 56.0018 18.5635 56.2316 18.0627C56.4805 17.562 56.8443 17.1394 57.323 16.7952C57.8017 16.4196 58.3952 16.2318 59.1036 16.2318C59.4483 16.2318 59.7834 16.3179 60.1089 16.49C60.4344 16.6465 60.6641 16.8499 60.7982 17.1003L60.3099 17.5933C59.8121 17.5933 59.4387 17.515 59.1898 17.3585C58.8452 17.3898 58.5388 17.5307 58.2708 17.7811C58.0218 18.0158 57.8304 18.2896 57.6963 18.6026C57.5815 18.9 57.524 19.1973 57.524 19.4946C57.524 20.0893 57.6198 20.6996 57.8112 21.3256C58.0218 21.9359 58.2899 22.5149 58.6154 23.0626L60.6258 26.349C60.9513 26.9123 61.2098 27.5461 61.4013 28.2503C61.5928 28.9545 61.6885 29.6588 61.6885 30.363C61.6885 31.3958 61.3821 32.3661 60.7694 33.2737C60.4439 33.7432 60.0227 34.1109 59.5057 34.377C58.9888 34.6587 58.4144 34.7995 57.7825 34.7995Z" stroke="black" stroke-width="0.4" mask="url(#path-3-outside-2_107_538)"/>
<path d="M66.7617 34.2596C65.1151 34.2596 64.2917 34.0249 64.2917 33.5554C64.2917 33.1798 64.5789 32.992 65.1533 32.992H65.498C65.5746 33.0077 65.6607 33.0155 65.7565 33.0155C65.9097 33.0155 66.015 32.9764 66.0724 32.8981C66.149 32.8199 66.1873 32.679 66.1873 32.4756C66.1873 31.1454 66.0916 29.3301 65.9001 27.0297C65.7278 24.6354 65.6416 22.8279 65.6416 21.6073C65.6416 21.1691 65.6512 20.77 65.6703 20.4101L65.699 19.2129C65.699 18.6965 65.6703 18.2662 65.6129 17.9219C65.4023 17.9845 65.1821 18.0158 64.9523 18.0158C64.5119 18.0158 64.2917 17.828 64.2917 17.4524C64.2917 17.2646 64.4258 17.1003 64.6938 16.9595C64.981 16.8186 65.3448 16.7169 65.7852 16.6543C66.5894 16.5448 67.2691 16.49 67.8243 16.49C68.0541 16.49 68.2456 16.5526 68.3988 16.6778C68.5711 16.803 68.6572 16.9516 68.6572 17.1238C68.6572 17.2959 68.5902 17.4446 68.4562 17.5698C68.3413 17.695 68.1881 17.7576 67.9967 17.7576C67.8818 17.7576 67.7861 17.7498 67.7095 17.7341H67.4797C67.2882 17.7341 67.1446 17.7732 67.0489 17.8515C66.9723 17.9141 66.934 18.0393 66.934 18.2271C66.934 19.8859 67.0585 22.1706 67.3074 25.0814C67.5371 28.133 67.652 30.4256 67.652 31.9592V32.8512C67.7861 32.8355 67.9775 32.8277 68.2264 32.8277C69.0306 32.8277 69.4327 33.1016 69.4327 33.6493V33.7901L68.7147 34.1892C68.6955 34.1892 68.6381 34.197 68.5424 34.2127C68.4466 34.2127 68.2552 34.2127 67.968 34.2127C67.317 34.244 66.9149 34.2596 66.7617 34.2596Z" stroke="black" stroke-width="0.4" mask="url(#path-3-outside-2_107_538)"/>
<path d="M74.4828 34.4474C74.1956 34.4474 73.9658 34.3378 73.7935 34.1188C73.6403 33.884 73.5637 33.6023 73.5637 33.2737C73.5637 32.7573 73.602 32.1235 73.6786 31.3723L73.7361 30.762L73.7935 29.5179C73.7935 28.9702 73.7265 27.7496 73.5925 25.856C73.4584 23.9625 73.3914 22.7418 73.3914 22.1941C73.3914 22.1472 73.3914 22.0611 73.3914 21.9359C73.4106 21.7951 73.4201 21.5838 73.4201 21.3021C73.4393 20.9891 73.4489 20.6057 73.4489 20.1519C73.4489 19.0095 73.3531 18.2818 73.1616 17.9688C73.0468 17.9688 72.7979 17.9923 72.4149 18.0393L71.6107 18.0862C71.3618 18.0862 71.1416 18.0314 70.9502 17.9219C70.7587 17.7967 70.663 17.6402 70.663 17.4524C70.663 17.2646 70.8927 17.1003 71.3523 16.9595C72.0224 16.7717 73.1616 16.6387 74.77 16.5604C75.421 16.5291 75.8135 16.5135 75.9475 16.5135C76.1773 16.5135 76.3879 16.5761 76.5794 16.7013C76.7709 16.8265 76.8666 16.9829 76.8666 17.1707C76.8666 17.3585 76.7804 17.515 76.6081 17.6402C76.4549 17.7498 76.2539 17.8045 76.005 17.8045L75.488 17.7811C75.3348 17.7654 75.1625 17.7576 74.971 17.7576H74.6838C74.8179 18.8217 74.8849 19.7841 74.8849 20.6448L74.8562 22.1472C74.837 22.601 74.8274 23.1096 74.8274 23.673C74.8274 24.4241 74.8657 25.3239 74.9423 26.3724C75.0381 27.6713 75.0859 28.5711 75.0859 29.0719C75.0859 29.6666 75.1242 30.3708 75.2008 31.1845C75.2774 32.014 75.3157 32.7182 75.3157 33.2972C75.3157 34.064 75.0381 34.4474 74.4828 34.4474Z" stroke="black" stroke-width="0.4" mask="url(#path-3-outside-2_107_538)"/>
<path d="M86.7274 34.7995C86.0381 34.7995 85.4445 34.6978 84.9467 34.4943C84.6403 34.3535 84.4872 34.1892 84.4872 34.0014C84.4872 33.8136 84.5446 33.6649 84.6595 33.5554C84.7744 33.4302 84.9371 33.3676 85.1477 33.3676C85.3392 33.3676 85.6168 33.4302 85.9806 33.5554C86.3827 33.6806 86.6316 33.7432 86.7274 33.7432C87.0912 33.7432 87.4167 33.618 87.7039 33.3676C88.0102 33.1016 88.2495 32.7573 88.4219 32.3348C88.7665 31.5523 88.9388 30.8481 88.9388 30.2221C88.9388 29.5492 88.8048 28.845 88.5368 28.1095C88.2878 27.3583 87.9432 26.6306 87.5028 25.9264L87.0433 25.1753C86.5646 24.3928 86.1912 23.7747 85.9232 23.3209C85.6743 22.867 85.4541 22.3741 85.2626 21.842C84.9754 21.0908 84.8318 20.3632 84.8318 19.6589C84.8318 19.0956 84.9467 18.5635 85.1765 18.0627C85.4254 17.562 85.7892 17.1394 86.2678 16.7952C86.7465 16.4196 87.3401 16.2318 88.0485 16.2318C88.3932 16.2318 88.7282 16.3179 89.0537 16.49C89.3792 16.6465 89.609 16.8499 89.743 17.1003L89.2548 17.5933C88.7569 17.5933 88.3836 17.515 88.1347 17.3585C87.79 17.3898 87.4837 17.5307 87.2156 17.7811C86.9667 18.0158 86.7752 18.2896 86.6412 18.6026C86.5263 18.9 86.4689 19.1973 86.4689 19.4946C86.4689 20.0893 86.5646 20.6996 86.7561 21.3256C86.9667 21.9359 87.2348 22.5149 87.5603 23.0626L89.5707 26.349C89.8962 26.9123 90.1547 27.5461 90.3461 28.2503C90.5376 28.9545 90.6333 29.6588 90.6333 30.363C90.6333 31.3958 90.327 32.3661 89.7143 33.2737C89.3888 33.7432 88.9676 34.1109 88.4506 34.377C87.9336 34.6587 87.3592 34.7995 86.7274 34.7995Z" stroke="black" stroke-width="0.4" mask="url(#path-3-outside-2_107_538)"/>
<path d="M95.5342 34.4239C95.1704 34.4239 94.8545 34.3848 94.5864 34.3066C94.2609 34.2283 94.0982 34.0092 94.0982 33.6493V20.0111C94.0982 19.745 94.0408 19.346 93.9259 18.8139C93.7918 18.3288 93.7248 17.9297 93.7248 17.6167V17.5463C94.0503 17.1081 94.2897 16.8265 94.4428 16.7013C94.7109 16.7013 95.0651 16.67 95.5055 16.6074C95.9076 16.5448 96.2618 16.5135 96.5682 16.5135C96.8745 16.5135 97.1713 16.5917 97.4585 16.7482C97.7457 16.8891 97.8893 17.0612 97.8893 17.2646C97.8893 17.7341 97.4489 17.9688 96.5682 17.9688H96.1661C96.0512 17.9532 95.9172 17.9454 95.764 17.9454C95.5917 17.9454 95.4864 17.9532 95.4481 17.9688C95.4481 18.5009 95.4864 19.1425 95.5629 19.8937L95.6204 20.551L95.6778 21.842C95.6778 22.1393 95.6491 22.5932 95.5917 23.2035L95.5342 24.518L95.9363 24.4476C96.3193 24.3537 96.6352 24.3067 96.8841 24.3067C97.0947 24.3067 97.2862 24.3772 97.4585 24.518C97.6308 24.6432 97.717 24.7919 97.717 24.964C97.717 25.1518 97.6404 25.3239 97.4872 25.4804C97.3532 25.6213 97.1809 25.6917 96.9702 25.6917L96.6256 25.6682H96.2522C95.965 25.6682 95.764 25.723 95.6491 25.8325V33.0859L97.2575 33.0155C98.3488 33.0155 98.8945 33.2189 98.8945 33.6258V33.7197C98.7796 33.9075 98.569 34.064 98.2627 34.1892C97.9563 34.2987 97.6595 34.3691 97.3723 34.4004L96.4246 34.4239H95.5342Z" stroke="black" stroke-width="0.4" mask="url(#path-3-outside-2_107_538)"/>
</svg>
