<svg width="71" height="59" viewBox="0 0 71 59" fill="none" xmlns="http://www.w3.org/2000/svg">
<path d="M35.4999 56.12L8.83421 3.04713L62.1657 3.04713L35.4999 56.12Z" fill="#D9D9D9"/>
<path fill-rule="evenodd" clip-rule="evenodd" d="M35.4999 58.9619C34.4255 58.9619 33.4429 58.3559 32.9606 57.3958L6.29482 4.32301C5.85219 3.44203 5.89778 2.39459 6.41529 1.55541C6.93281 0.716226 7.84829 0.205231 8.83421 0.205231L62.1657 0.205234C63.1516 0.205234 64.0671 0.71623 64.5846 1.55541C65.1021 2.39459 65.1477 3.44204 64.7051 4.32301L38.0393 57.3958C37.557 58.3559 36.5744 58.9619 35.4999 58.9619ZM35.4999 56.12L62.1657 3.04713L8.83421 3.04713L35.4999 56.12Z" fill="black"/>
<path d="M35.4999 56.12L8.83421 3.04713L62.1657 3.04713L35.4999 56.12Z" fill="#323242"/>
<path fill-rule="evenodd" clip-rule="evenodd" d="M35.4999 58.3935C34.6404 58.3935 33.8543 57.9087 33.4684 57.1407L6.8027 4.06784C6.44859 3.36305 6.48506 2.5251 6.89908 1.85375C7.31309 1.18241 8.04547 0.77361 8.83421 0.77361L62.1657 0.773614C62.9544 0.773614 63.6868 1.18241 64.1008 1.85376C64.5148 2.5251 64.5513 3.36306 64.1972 4.06784L37.5315 57.1407C37.1456 57.9087 36.3595 58.3935 35.4999 58.3935ZM35.4999 56.12L62.1657 3.04713L8.83421 3.04713L35.4999 56.12Z" fill="white"/>
<path d="M35.4999 50.8026L14.5968 9.50694L56.4031 9.50694L35.4999 50.8026Z" fill="#CC3300"/>
<path d="M11.4828 4.27736L35.5 45.8764L35.5 4.27736L11.4828 4.27736Z" fill="#AABBBB"/>
<path d="M35.5 45.8764L59.5171 4.27737L35.5 4.27736L35.5 45.8764Z" fill="#BBC9CC"/>
<path d="M35.5 16.9298L11.4828 4.35282L59.5171 4.35282L35.5 16.9298Z" fill="#CCDDDD"/>
<path fill-rule="evenodd" clip-rule="evenodd" d="M35.4999 56.12L62.1657 3.04713L8.83421 3.04713L35.4999 56.12ZM35.4999 51.0559L58.479 5.32065L12.5209 5.32064L35.4999 51.0559Z" fill="#323242"/>
<mask id="path-2-outside-1_13_346" maskUnits="userSpaceOnUse" x="-0.178589" y="10.3719" width="71" height="29" fill="black">
<rect fill="white" x="-0.178589" y="10.3719" width="71" height="29"/>
<path d="M4.87673 12.9916C5.21309 12.9707 5.51208 13.0231 5.7737 13.1489C6.05401 13.2748 6.21284 13.4373 6.25022 13.6366L6.30628 13.8882C6.34365 14.0665 6.39971 14.229 6.47446 14.3759C6.51184 14.5436 6.5679 14.7272 6.64264 14.9264C6.68002 15.0732 6.82017 15.4035 7.0631 15.9174C7.28734 16.4312 7.45553 16.8612 7.56765 17.2072C7.71714 17.5323 7.86664 17.8888 8.01613 18.2768C8.18432 18.6648 8.4179 19.1787 8.7169 19.8183C9.01589 20.4895 9.24947 20.9823 9.41766 21.2969C9.52978 21.622 9.6419 21.9156 9.75402 22.1778C9.90352 22.4505 10.0343 22.8227 10.1464 23.2946C10.1464 23.3575 10.1651 23.4362 10.2025 23.5306C10.2399 23.4886 10.2773 23.4309 10.3146 23.3575C10.8192 22.634 11.1649 22.1096 11.3518 21.7846C11.5386 21.4175 11.7162 21.0872 11.8843 20.7936C12.0712 20.4895 12.3141 20.0595 12.6131 19.5038C12.9308 18.9165 13.1831 18.4656 13.3699 18.151C13.5568 17.8469 13.7437 17.5428 13.9306 17.2387C14.0987 16.966 14.2576 16.6462 14.4071 16.2792C14.5566 15.9121 14.6874 15.6342 14.7995 15.4455C14.8742 15.2672 14.9864 15.0155 15.1359 14.6905C15.304 14.3339 15.4255 14.0455 15.5003 13.8253C15.5376 13.7205 15.7338 13.5999 16.0889 13.4635C16.4626 13.3167 16.8737 13.2433 17.3222 13.2433C17.7894 13.2433 18.0977 13.3954 18.2472 13.6995C18.3594 13.8882 18.4528 14.1137 18.5275 14.3759C18.6023 14.617 18.6957 15.0575 18.8078 15.6972C18.976 16.3578 19.0788 17.0866 19.1162 17.8836C19.1536 18.6806 19.2096 19.3045 19.2844 19.7554C19.3591 20.2483 19.4245 20.9981 19.4806 22.0048C19.5366 23.001 19.5647 23.7403 19.5647 24.2227C19.5647 24.7051 19.5647 25.1927 19.5647 25.6855C19.5647 26.1574 19.5834 26.8443 19.6207 27.7461C19.6207 28.648 19.6207 29.2981 19.6207 29.6966C19.6207 30.0951 19.6207 30.6352 19.6207 31.3168C19.5834 31.9879 19.5647 32.4598 19.5647 32.7325C19.5647 33.0156 19.546 33.4036 19.5086 33.8965C19.5086 34.3474 19.5086 34.6567 19.5086 34.8245C19.5086 35.0447 19.5086 35.3803 19.5086 35.8312L19.5647 36.5391C19.5647 36.7278 19.4339 36.8904 19.1722 37.0267C18.9293 37.1735 18.6397 37.2522 18.3033 37.2626C17.9669 37.2731 17.6586 37.205 17.3783 37.0581C17.1167 36.9218 16.9859 36.7593 16.9859 36.5705L16.9298 35.8627C16.9298 35.3908 16.9298 35.0605 16.9298 34.8717C16.9298 34.6515 16.9298 34.3054 16.9298 33.8336C16.9672 33.3826 16.9859 33.0156 16.9859 32.7325C16.9859 32.4598 17.0046 31.9774 17.0419 31.2853C17.0419 30.6037 17.0419 30.0689 17.0419 29.6809C17.0419 29.2929 17.0419 28.6585 17.0419 27.7776C17.0046 26.8758 16.9859 26.1784 16.9859 25.6855C16.9859 25.1927 16.9859 24.7103 16.9859 24.2384C16.9859 23.7455 16.9485 23.0115 16.8737 22.0362C16.8364 21.0505 16.7803 20.3322 16.7056 19.8813C16.6308 19.3884 16.5654 18.7435 16.5094 17.9465C16.5094 17.7997 16.5094 17.6529 16.5094 17.5061C16.472 17.569 16.4346 17.6319 16.3972 17.6948C16.2104 18.0199 16.0235 18.3293 15.8366 18.6229C15.6498 18.927 15.3975 19.3465 15.0798 19.8813C14.7808 20.4895 14.5379 20.9404 14.351 21.234C14.1828 21.5172 14.0053 21.8422 13.8184 22.2093C13.6316 22.5658 13.2672 23.1216 12.7252 23.8766C12.1646 24.7155 11.5947 25.308 11.0154 25.6541C10.978 25.6751 10.8285 25.7222 10.5669 25.7957C10.324 25.8691 10.0156 25.9425 9.6419 26.0159C9.28685 26.0893 8.95983 26.0735 8.66083 25.9687C8.36184 25.8638 8.16563 25.6593 8.0722 25.3552C8.03482 25.1874 7.99745 25.0406 7.96007 24.9148C7.88533 24.7575 7.82927 24.5949 7.79189 24.4272C7.75452 24.2804 7.67977 23.9815 7.56765 23.5306C7.45553 23.1006 7.36209 22.7651 7.28734 22.5239C7.17522 22.2722 7.03507 21.9838 6.86689 21.6587C6.71739 21.3336 6.49315 20.8513 6.19416 20.2116C5.87648 19.5405 5.64289 19.0109 5.4934 18.6229C5.45602 18.518 5.41865 18.4027 5.38127 18.2768C5.3439 18.4656 5.32521 18.6386 5.32521 18.7959C5.28784 19.7397 5.26915 20.479 5.26915 21.0138C5.26915 21.5696 5.28784 22.1044 5.32521 22.6182C5.32521 23.1321 5.32521 23.9081 5.32521 24.9462C5.28784 25.9949 5.23178 26.7552 5.15703 27.2271C5.08228 27.699 5.00754 28.1813 4.93279 28.6742C4.85804 29.1461 4.78329 29.812 4.70854 30.6719C4.6338 31.5108 4.56839 32.1138 4.51233 32.4808C4.51233 32.7639 4.49364 33.0418 4.45627 33.3145C4.4189 33.5557 4.40021 33.8388 4.40021 34.1639C4.40021 34.4785 4.4189 34.6882 4.45627 34.7931C4.45627 34.9084 4.50299 35.0605 4.59642 35.2492L4.76461 35.611C4.87673 35.7998 4.83001 35.9885 4.62445 36.1773C4.43758 36.3556 4.16662 36.4657 3.81157 36.5076C3.47521 36.5496 3.15753 36.5233 2.85854 36.429C2.55955 36.3346 2.37268 36.1878 2.29793 35.9885L2.10172 35.6425C1.98959 35.3593 1.91485 35.1339 1.87747 34.9661C1.8401 34.7878 1.82141 34.5204 1.82141 34.1639C1.82141 33.7969 1.8401 33.4718 1.87747 33.1886C1.91485 32.9474 1.93353 32.701 1.93353 32.4493C1.97091 32.0613 2.02697 31.4479 2.10172 30.609C2.19515 29.7281 2.27924 29.0412 2.35399 28.5484C2.42874 28.0555 2.50348 27.5731 2.57823 27.1012C2.65298 26.6503 2.70904 25.9215 2.74642 24.9148C2.74642 23.8976 2.74642 23.1426 2.74642 22.6497C2.70904 22.1359 2.69035 21.6011 2.69035 21.0453C2.69035 20.4895 2.70904 19.7292 2.74642 18.7645C2.82116 17.7892 2.87722 17.1076 2.9146 16.7196C2.95197 16.363 2.97066 16.017 2.97066 15.6814C2.97066 15.3459 2.97066 15.0732 2.97066 14.8635V13.7624C2.97066 13.5736 3.10147 13.4059 3.36308 13.259C3.64339 13.1017 3.95172 13.0231 4.28809 13.0231C4.36284 13.0231 4.43758 13.0336 4.51233 13.0546C4.60577 13.0126 4.72723 12.9916 4.87673 12.9916Z"/>
<path d="M23.4889 13.7939C23.4889 13.6051 23.6011 13.4373 23.8253 13.2905C24.0682 13.1332 24.3579 13.0441 24.6942 13.0231H25.2829C25.6566 13.0021 26.2639 12.9916 27.1049 12.9916C27.9458 12.9916 28.5811 13.0126 29.0109 13.0546C29.3099 13.0755 29.6463 13.0965 30.02 13.1175C30.3751 13.1385 30.7021 13.1594 31.0011 13.1804L31.5337 13.2119C31.87 13.2119 32.1503 13.2957 32.3746 13.4635C32.6175 13.6208 32.7296 13.7991 32.7109 13.9983C32.6923 14.1871 32.5334 14.3444 32.2344 14.4702C31.9541 14.5961 31.6458 14.659 31.3094 14.659L30.7768 14.6275C30.4405 14.6066 30.0574 14.5856 29.6276 14.5646C29.2539 14.5227 28.9081 14.4912 28.5905 14.4702C28.3288 14.4493 27.8336 14.4388 27.1049 14.4388C26.918 14.4388 26.7498 14.4388 26.6003 14.4388L26.5442 14.6905C26.4508 14.9736 26.3854 15.2148 26.348 15.414C26.348 15.5608 26.3293 15.9331 26.292 16.5308C26.2546 17.181 26.2172 17.7315 26.1798 18.1825C26.1051 18.5914 26.0677 19.0109 26.0677 19.4408C26.0304 19.8918 25.993 20.6101 25.9556 21.5958C25.8809 22.5606 25.8248 23.3104 25.7874 23.8452C25.75 24.0654 25.7127 24.2699 25.6753 24.4586H25.7314L26.1798 24.4901C26.4602 24.4901 26.8619 24.4796 27.3852 24.4586C27.9645 24.4167 28.4036 24.3852 28.7026 24.3642L29.1791 24.3328C29.5155 24.3118 29.8238 24.3642 30.1041 24.4901C30.4031 24.6159 30.5713 24.7785 30.6087 24.9777C30.646 25.1665 30.5526 25.3447 30.3284 25.5125C30.1228 25.6698 29.8518 25.7589 29.5155 25.7799L29.0109 25.8114C28.6559 25.8324 28.1887 25.8533 27.6094 25.8743C27.0114 25.9162 26.5162 25.9267 26.1238 25.9058H25.6192C25.5819 25.9058 25.5632 25.9058 25.5632 25.9058C25.4884 26.4196 25.4324 27.0855 25.395 27.9034C25.2642 28.9835 25.1988 29.7228 25.1988 30.1213C25.1614 30.5303 25.124 31.0704 25.0867 31.7415C25.0867 32.4021 25.096 32.8688 25.1147 33.1414C25.1334 33.4141 25.1801 33.7549 25.2548 34.1639C25.3483 34.5624 25.4137 34.8507 25.4511 35.029C25.4884 35.1968 25.5445 35.4118 25.6192 35.6739C25.6192 35.7788 25.6379 35.8837 25.6753 35.9885C25.9743 36.0095 26.3387 36.02 26.7685 36.02C27.4973 36.02 28.0859 36.02 28.5344 36.02C29.0016 35.999 29.6369 35.978 30.4405 35.9571L31.6458 35.8942C31.9821 35.8732 32.2811 35.9361 32.5428 36.0829C32.8231 36.2192 32.9819 36.3818 33.0193 36.5705C33.0566 36.7593 32.9445 36.9271 32.6829 37.0739C32.44 37.2312 32.1503 37.3203 31.814 37.3413L30.6087 37.3727C29.8051 37.4147 29.1511 37.4409 28.6465 37.4514C28.1607 37.4619 27.5347 37.4671 26.7685 37.4671C25.9649 37.4671 25.2922 37.4357 24.7503 37.3727C24.3766 37.3308 24.0122 37.2259 23.6571 37.0581C23.3207 36.9009 23.1526 36.6754 23.1526 36.3818C23.1526 36.2769 23.1152 36.1039 23.0404 35.8627C22.9657 35.5796 22.9003 35.3646 22.8442 35.2178C22.8069 35.029 22.7508 34.7301 22.676 34.3212C22.6013 33.8703 22.5546 33.498 22.5359 33.2044C22.5172 32.9107 22.5079 32.4231 22.5079 31.7415C22.5452 31.0284 22.5826 30.4621 22.62 30.0427C22.6574 29.6232 22.7134 28.8892 22.7882 27.8405C22.8816 26.7919 22.9657 25.9844 23.0404 25.4181C23.0778 24.8414 23.1339 24.2961 23.2086 23.7822C23.246 23.2474 23.3021 22.4976 23.3768 21.5329C23.4142 20.5576 23.4516 19.8446 23.4889 19.3936C23.4889 18.9427 23.5263 18.4918 23.6011 18.0409C23.6384 17.6424 23.6758 17.1286 23.7132 16.4994C23.7505 15.8597 23.7879 15.4297 23.8253 15.2095C23.8627 15.0417 23.9 14.8163 23.9374 14.5332L23.9935 14.3444C23.6945 14.1976 23.5263 14.0141 23.4889 13.7939Z"/>
<path d="M38.9057 12.4096C39.242 12.4096 39.5317 12.4883 39.7746 12.6456C40.0362 12.7924 40.167 12.9602 40.167 13.1489V13.3377C40.167 13.453 40.2044 13.6366 40.2792 13.8882C40.3913 14.1923 40.5034 14.5174 40.6155 14.8635C40.7276 15.199 40.8678 15.5923 41.036 16.0432C41.2228 16.4941 41.5405 17.2806 41.989 18.4027C42.4188 19.5142 42.7645 20.3846 43.0261 21.0138C43.3064 21.6325 43.5961 22.246 43.8951 22.8542C44.1941 23.4519 44.5024 24.0601 44.8201 24.6788C45.1191 25.308 45.4835 26.1889 45.9133 27.3214C46.287 28.4435 46.6047 29.2824 46.8663 29.8382C47.1466 30.394 47.3802 30.9078 47.5671 31.3797C47.7166 31.7467 47.9315 32.1767 48.2118 32.6695C48.2491 32.1557 48.2865 31.4374 48.3239 30.5146C48.3239 29.3715 48.3239 28.5117 48.3239 27.9349C48.2865 27.3581 48.2678 26.7709 48.2678 26.1732C48.2678 25.5649 48.2211 24.6946 48.1277 23.562C48.0529 22.419 47.9969 21.6325 47.9595 21.2026C47.8847 20.7516 47.8287 20.1487 47.7913 19.3936C47.7539 18.6491 47.7352 18.1353 47.7352 17.8521C47.7352 17.5795 47.7166 17.3016 47.6792 17.0185C47.6792 16.7353 47.6792 16.3578 47.6792 15.8859C47.6418 15.414 47.6231 15.005 47.6231 14.659V13.5422C47.6231 13.3429 47.7446 13.1752 47.9875 13.0388C48.2491 12.9025 48.5575 12.8343 48.9125 12.8343C49.2863 12.8343 49.5946 12.9025 49.8375 13.0388C50.0805 13.1752 50.2019 13.3429 50.2019 13.5422V14.659C50.2019 14.9841 50.2206 15.3826 50.258 15.8545C50.258 16.3683 50.258 16.7458 50.258 16.987C50.2954 17.2911 50.314 17.5795 50.314 17.8521C50.314 18.1353 50.3327 18.6386 50.3701 19.3622C50.4075 20.0962 50.4449 20.6678 50.4822 21.0767C50.5757 21.5276 50.6598 22.3351 50.7345 23.4991C50.8092 24.6526 50.8466 25.544 50.8466 26.1732C50.8466 26.7709 50.8653 27.3477 50.9027 27.9034C50.9027 28.4802 50.8933 29.3558 50.8747 30.5303C50.856 31.7048 50.8092 32.5594 50.7345 33.0943C50.6971 33.65 50.6598 34.1429 50.6224 34.5728C50.5289 35.0447 50.4822 35.4642 50.4822 35.8312C50.4449 36.2402 50.4075 36.56 50.3701 36.7907C50.3701 36.8117 50.3608 36.8484 50.3421 36.9009C50.3234 36.9638 50.2673 37.0581 50.1739 37.184C50.0805 37.3098 49.9683 37.4094 49.8375 37.4829C49.7067 37.5667 49.5012 37.6087 49.2209 37.6087C48.9592 37.6087 48.6602 37.5405 48.3239 37.4042C48.081 37.3413 47.9128 37.2731 47.8193 37.1997C47.7259 37.1263 47.6698 37.0634 47.6512 37.011C47.6325 36.9585 47.6231 36.9009 47.6231 36.8379C47.6231 36.7855 47.6231 36.7593 47.6231 36.7593C47.5484 36.5705 47.4176 36.2822 47.2307 35.8942C47.0251 35.5061 46.8476 35.1968 46.6981 34.9661C46.586 34.7039 46.3337 34.2268 45.9413 33.5347C45.5676 32.8321 45.2873 32.2344 45.1004 31.7415C44.8761 31.2696 44.6239 30.7558 44.3436 30.2C44.0819 29.6127 43.7549 28.7528 43.3625 27.6203C42.9514 26.4982 42.5963 25.6488 42.2973 25.0721C42.017 24.4534 41.7274 23.8399 41.4284 23.2317C41.1107 22.613 40.8117 21.9891 40.5314 21.3599C40.2511 20.7202 39.8867 19.8446 39.4382 18.733C39.0084 17.6109 38.6908 16.814 38.4852 16.3421C38.4852 16.3421 38.4852 16.3211 38.4852 16.2792C38.4478 16.751 38.4291 17.5428 38.4291 18.6543C38.4665 19.8183 38.5039 20.6992 38.5413 21.2969C38.6347 22.0729 38.6814 22.7703 38.6814 23.389C38.6814 23.9972 38.7188 24.6107 38.7935 25.2294C38.8309 25.8586 38.8683 26.5035 38.9057 27.1641C38.9057 27.8038 38.943 28.6532 39.0178 29.7124C39.0925 30.761 39.1486 31.5055 39.186 31.946C39.2233 32.3864 39.2607 32.7692 39.2981 33.0943C39.3355 33.3984 39.3541 33.6658 39.3541 33.8965C39.3915 34.1377 39.4102 34.3736 39.4102 34.6043C39.4476 34.8455 39.485 35.1234 39.5223 35.438C39.5597 35.784 39.5784 36.0567 39.5784 36.2559V36.5391C39.5784 36.7278 39.4476 36.8904 39.186 37.0267C38.9243 37.1735 38.616 37.2469 38.261 37.2469C37.9246 37.2469 37.6256 37.1735 37.364 37.0267C37.1211 36.8904 36.9996 36.7278 36.9996 36.5391V36.2559C36.9996 36.0986 36.9809 35.8627 36.9435 35.5481C36.9062 35.202 36.8688 34.9084 36.8314 34.6672C36.8314 34.4575 36.8127 34.232 36.7753 33.9909C36.7753 33.7392 36.7567 33.4613 36.7193 33.1572C36.6819 32.8321 36.6445 32.4546 36.6072 32.0246C36.5698 31.5737 36.5137 30.8187 36.439 29.7595C36.3642 28.7004 36.3269 27.8458 36.3269 27.1956C36.2895 26.5559 36.2428 25.9215 36.1867 25.2923C36.112 24.6526 36.0746 24.0182 36.0746 23.389C36.0746 22.7913 36.0372 22.1621 35.9625 21.5014C35.9251 20.8093 35.8971 19.8708 35.8784 18.6858C35.8597 17.4903 35.869 16.6567 35.9064 16.1848C35.9438 15.6919 35.9812 15.2725 36.0185 14.9264C36.0933 14.5803 36.1306 14.2867 36.1306 14.0455C36.168 13.7309 36.2708 13.4426 36.439 13.1804L36.6072 12.8973C36.6819 12.698 36.8781 12.5512 37.1958 12.4568C37.5322 12.3624 37.8685 12.3467 38.2049 12.4096C38.2796 12.4306 38.3544 12.4516 38.4291 12.4726C38.5973 12.4306 38.7562 12.4096 38.9057 12.4096Z"/>
<path d="M56.3686 14.3759V14.5646C56.3686 14.7219 56.3686 14.9683 56.3686 15.3039C56.406 15.6709 56.4247 15.996 56.4247 16.2792C56.4247 16.5518 56.4434 16.8716 56.4807 17.2387C56.4807 17.6057 56.5088 17.9937 56.5648 18.4027C56.6022 18.8326 56.6302 19.2626 56.6489 19.6925C56.6676 20.1225 56.677 20.5419 56.677 20.9509C56.7143 21.3389 56.733 21.7583 56.733 22.2093C56.7704 22.6812 56.7891 23.1426 56.7891 23.5935V27.2271C56.7891 27.5941 56.7891 27.9506 56.7891 28.2967C56.7891 28.6322 56.7704 28.9731 56.733 29.3191C56.6956 29.6652 56.677 29.9798 56.677 30.2629C56.677 30.5565 56.677 30.8659 56.677 31.191C56.6396 31.4951 56.6022 31.773 56.5648 32.0246C56.5648 32.2658 56.5835 32.6119 56.6209 33.0628C56.6956 33.5137 56.733 33.8021 56.733 33.9279C56.7704 34.0328 56.8451 34.1953 56.9573 34.4156C57.032 34.6043 57.2002 34.8298 57.4618 35.0919C57.7047 35.3646 57.9196 35.5691 58.1065 35.7054C58.2186 35.7893 58.4242 35.8837 58.7232 35.9885C59.1156 36.1144 59.4239 36.1983 59.6482 36.2402C59.8724 36.2717 60.1247 36.2979 60.405 36.3189C60.6666 36.3398 60.9282 36.3398 61.1898 36.3189C61.3954 36.3189 61.5916 36.2979 61.7785 36.2559C61.9654 36.2035 62.1896 36.1458 62.4512 36.0829C62.582 36.041 62.8156 35.9256 63.152 35.7369C63.5444 35.4957 63.778 35.3331 63.8527 35.2492C63.9649 35.1444 64.0957 34.9923 64.2452 34.7931C64.3947 34.6043 64.5068 34.3998 64.5815 34.1796C64.6937 33.9699 64.8712 33.6081 65.1141 33.0943C65.301 32.6014 65.4318 32.1924 65.5065 31.8673C65.5813 31.5213 65.6747 31.191 65.7868 30.8764C65.8616 30.6142 65.9363 30.2891 66.0111 29.9011C66.0485 29.4921 66.1139 29.1146 66.2073 28.7686C66.2447 28.433 66.3194 27.8667 66.4315 27.0698C66.5063 26.2938 66.553 25.6855 66.5717 25.2451C66.5904 24.8047 66.5997 24.4009 66.5997 24.0339V21.3599C66.5997 20.9509 66.5623 20.3846 66.4876 19.6611C66.3755 18.8851 66.3194 18.3555 66.3194 18.0723C66.282 17.8416 66.2447 17.5952 66.2073 17.333C66.1139 17.0394 66.0485 16.793 66.0111 16.5938C65.9737 16.384 65.955 16.1481 65.955 15.8859C65.9176 15.6762 65.8803 15.4822 65.8429 15.3039L65.7868 15.0522C65.7121 14.8635 65.7775 14.6905 65.9831 14.5332C66.2073 14.3654 66.4969 14.2657 66.852 14.2343C67.2257 14.2028 67.5528 14.2448 67.8331 14.3601C68.1134 14.4755 68.2722 14.6328 68.3096 14.832L68.4217 15.0837C68.4591 15.3039 68.5058 15.5503 68.5618 15.823C68.5618 16.0642 68.5805 16.2687 68.6179 16.4365C68.6553 16.6252 68.6927 16.8612 68.73 17.1443C68.8048 17.4694 68.8608 17.7682 68.8982 18.0409C68.8982 18.2821 68.9543 18.7802 69.0664 19.5352C69.1411 20.3217 69.1785 20.9299 69.1785 21.3599V24.0339C69.1785 24.4219 69.1692 24.8414 69.1505 25.2923C69.1318 25.7432 69.0757 26.3724 68.9823 27.1799C68.8889 27.9873 68.8141 28.5641 68.7581 28.9101C68.702 29.2457 68.6553 29.618 68.6179 30.027C68.5245 30.4569 68.4217 30.8344 68.3096 31.1595C68.2348 31.4426 68.1601 31.7415 68.0853 32.0561C68.0106 32.4231 67.8424 32.8845 67.5808 33.4403C67.3379 33.9646 67.179 34.3421 67.1043 34.5728C66.9548 34.835 66.8053 35.0919 66.6558 35.3436C66.4689 35.6058 66.2727 35.8207 66.0671 35.9885C65.8803 36.1668 65.5439 36.4027 65.058 36.6964C64.4788 37.0424 63.9929 37.2679 63.6005 37.3727C63.3015 37.4566 62.9838 37.5353 62.6474 37.6087C62.255 37.6926 61.8532 37.745 61.4421 37.766C61.0123 37.787 60.5919 37.787 60.1808 37.766C59.751 37.745 59.3212 37.7031 58.8914 37.6402C58.4429 37.5458 57.9477 37.4042 57.4057 37.2154C56.7891 37.0267 56.3312 36.8117 56.0323 36.5705C55.7706 36.3818 55.481 36.1144 55.1633 35.7683C54.8269 35.4223 54.584 35.0972 54.4345 34.7931C54.3224 34.5204 54.2476 34.3054 54.2103 34.1481C54.1542 33.9804 54.0888 33.65 54.0141 33.1572C53.9767 32.6643 53.958 32.2658 53.958 31.9617C53.9954 31.71 54.0327 31.4321 54.0701 31.128C54.0701 30.8239 54.0701 30.5355 54.0701 30.2629C54.0701 29.9588 54.0888 29.6337 54.1262 29.2877C54.1822 28.9416 54.2103 28.6113 54.2103 28.2967C54.2103 27.9506 54.2103 27.5941 54.2103 27.2271V23.5935C54.2103 23.1635 54.1822 22.7126 54.1262 22.2407C54.1262 21.7898 54.1075 21.3599 54.0701 20.9509C54.0701 20.5629 54.0608 20.1592 54.0421 19.7397C54.0234 19.3202 53.9954 18.906 53.958 18.497C53.9206 18.0671 53.9019 17.6581 53.9019 17.2701C53.8646 16.9031 53.8459 16.5833 53.8459 16.3106C53.8459 16.0275 53.8272 15.7024 53.7898 15.3354C53.7898 14.9788 53.7898 14.7219 53.7898 14.5646V14.3759C53.7898 14.1871 53.9113 14.0193 54.1542 13.8725C54.4158 13.7152 54.7242 13.6366 55.0792 13.6366C55.453 13.6366 55.7613 13.7152 56.0042 13.8725C56.2472 14.0193 56.3686 14.1871 56.3686 14.3759Z"/>
</mask>
<path d="M4.87673 12.9916C5.21309 12.9707 5.51208 13.0231 5.7737 13.1489C6.05401 13.2748 6.21284 13.4373 6.25022 13.6366L6.30628 13.8882C6.34365 14.0665 6.39971 14.229 6.47446 14.3759C6.51184 14.5436 6.5679 14.7272 6.64264 14.9264C6.68002 15.0732 6.82017 15.4035 7.0631 15.9174C7.28734 16.4312 7.45553 16.8612 7.56765 17.2072C7.71714 17.5323 7.86664 17.8888 8.01613 18.2768C8.18432 18.6648 8.4179 19.1787 8.7169 19.8183C9.01589 20.4895 9.24947 20.9823 9.41766 21.2969C9.52978 21.622 9.6419 21.9156 9.75402 22.1778C9.90352 22.4505 10.0343 22.8227 10.1464 23.2946C10.1464 23.3575 10.1651 23.4362 10.2025 23.5306C10.2399 23.4886 10.2773 23.4309 10.3146 23.3575C10.8192 22.634 11.1649 22.1096 11.3518 21.7846C11.5386 21.4175 11.7162 21.0872 11.8843 20.7936C12.0712 20.4895 12.3141 20.0595 12.6131 19.5038C12.9308 18.9165 13.1831 18.4656 13.3699 18.151C13.5568 17.8469 13.7437 17.5428 13.9306 17.2387C14.0987 16.966 14.2576 16.6462 14.4071 16.2792C14.5566 15.9121 14.6874 15.6342 14.7995 15.4455C14.8742 15.2672 14.9864 15.0155 15.1359 14.6905C15.304 14.3339 15.4255 14.0455 15.5003 13.8253C15.5376 13.7205 15.7338 13.5999 16.0889 13.4635C16.4626 13.3167 16.8737 13.2433 17.3222 13.2433C17.7894 13.2433 18.0977 13.3954 18.2472 13.6995C18.3594 13.8882 18.4528 14.1137 18.5275 14.3759C18.6023 14.617 18.6957 15.0575 18.8078 15.6972C18.976 16.3578 19.0788 17.0866 19.1162 17.8836C19.1536 18.6806 19.2096 19.3045 19.2844 19.7554C19.3591 20.2483 19.4245 20.9981 19.4806 22.0048C19.5366 23.001 19.5647 23.7403 19.5647 24.2227C19.5647 24.7051 19.5647 25.1927 19.5647 25.6855C19.5647 26.1574 19.5834 26.8443 19.6207 27.7461C19.6207 28.648 19.6207 29.2981 19.6207 29.6966C19.6207 30.0951 19.6207 30.6352 19.6207 31.3168C19.5834 31.9879 19.5647 32.4598 19.5647 32.7325C19.5647 33.0156 19.546 33.4036 19.5086 33.8965C19.5086 34.3474 19.5086 34.6567 19.5086 34.8245C19.5086 35.0447 19.5086 35.3803 19.5086 35.8312L19.5647 36.5391C19.5647 36.7278 19.4339 36.8904 19.1722 37.0267C18.9293 37.1735 18.6397 37.2522 18.3033 37.2626C17.9669 37.2731 17.6586 37.205 17.3783 37.0581C17.1167 36.9218 16.9859 36.7593 16.9859 36.5705L16.9298 35.8627C16.9298 35.3908 16.9298 35.0605 16.9298 34.8717C16.9298 34.6515 16.9298 34.3054 16.9298 33.8336C16.9672 33.3826 16.9859 33.0156 16.9859 32.7325C16.9859 32.4598 17.0046 31.9774 17.0419 31.2853C17.0419 30.6037 17.0419 30.0689 17.0419 29.6809C17.0419 29.2929 17.0419 28.6585 17.0419 27.7776C17.0046 26.8758 16.9859 26.1784 16.9859 25.6855C16.9859 25.1927 16.9859 24.7103 16.9859 24.2384C16.9859 23.7455 16.9485 23.0115 16.8737 22.0362C16.8364 21.0505 16.7803 20.3322 16.7056 19.8813C16.6308 19.3884 16.5654 18.7435 16.5094 17.9465C16.5094 17.7997 16.5094 17.6529 16.5094 17.5061C16.472 17.569 16.4346 17.6319 16.3972 17.6948C16.2104 18.0199 16.0235 18.3293 15.8366 18.6229C15.6498 18.927 15.3975 19.3465 15.0798 19.8813C14.7808 20.4895 14.5379 20.9404 14.351 21.234C14.1828 21.5172 14.0053 21.8422 13.8184 22.2093C13.6316 22.5658 13.2672 23.1216 12.7252 23.8766C12.1646 24.7155 11.5947 25.308 11.0154 25.6541C10.978 25.6751 10.8285 25.7222 10.5669 25.7957C10.324 25.8691 10.0156 25.9425 9.6419 26.0159C9.28685 26.0893 8.95983 26.0735 8.66083 25.9687C8.36184 25.8638 8.16563 25.6593 8.0722 25.3552C8.03482 25.1874 7.99745 25.0406 7.96007 24.9148C7.88533 24.7575 7.82927 24.5949 7.79189 24.4272C7.75452 24.2804 7.67977 23.9815 7.56765 23.5306C7.45553 23.1006 7.36209 22.7651 7.28734 22.5239C7.17522 22.2722 7.03507 21.9838 6.86689 21.6587C6.71739 21.3336 6.49315 20.8513 6.19416 20.2116C5.87648 19.5405 5.64289 19.0109 5.4934 18.6229C5.45602 18.518 5.41865 18.4027 5.38127 18.2768C5.3439 18.4656 5.32521 18.6386 5.32521 18.7959C5.28784 19.7397 5.26915 20.479 5.26915 21.0138C5.26915 21.5696 5.28784 22.1044 5.32521 22.6182C5.32521 23.1321 5.32521 23.9081 5.32521 24.9462C5.28784 25.9949 5.23178 26.7552 5.15703 27.2271C5.08228 27.699 5.00754 28.1813 4.93279 28.6742C4.85804 29.1461 4.78329 29.812 4.70854 30.6719C4.6338 31.5108 4.56839 32.1138 4.51233 32.4808C4.51233 32.7639 4.49364 33.0418 4.45627 33.3145C4.4189 33.5557 4.40021 33.8388 4.40021 34.1639C4.40021 34.4785 4.4189 34.6882 4.45627 34.7931C4.45627 34.9084 4.50299 35.0605 4.59642 35.2492L4.76461 35.611C4.87673 35.7998 4.83001 35.9885 4.62445 36.1773C4.43758 36.3556 4.16662 36.4657 3.81157 36.5076C3.47521 36.5496 3.15753 36.5233 2.85854 36.429C2.55955 36.3346 2.37268 36.1878 2.29793 35.9885L2.10172 35.6425C1.98959 35.3593 1.91485 35.1339 1.87747 34.9661C1.8401 34.7878 1.82141 34.5204 1.82141 34.1639C1.82141 33.7969 1.8401 33.4718 1.87747 33.1886C1.91485 32.9474 1.93353 32.701 1.93353 32.4493C1.97091 32.0613 2.02697 31.4479 2.10172 30.609C2.19515 29.7281 2.27924 29.0412 2.35399 28.5484C2.42874 28.0555 2.50348 27.5731 2.57823 27.1012C2.65298 26.6503 2.70904 25.9215 2.74642 24.9148C2.74642 23.8976 2.74642 23.1426 2.74642 22.6497C2.70904 22.1359 2.69035 21.6011 2.69035 21.0453C2.69035 20.4895 2.70904 19.7292 2.74642 18.7645C2.82116 17.7892 2.87722 17.1076 2.9146 16.7196C2.95197 16.363 2.97066 16.017 2.97066 15.6814C2.97066 15.3459 2.97066 15.0732 2.97066 14.8635V13.7624C2.97066 13.5736 3.10147 13.4059 3.36308 13.259C3.64339 13.1017 3.95172 13.0231 4.28809 13.0231C4.36284 13.0231 4.43758 13.0336 4.51233 13.0546C4.60577 13.0126 4.72723 12.9916 4.87673 12.9916Z" fill="black"/>
<path d="M23.4889 13.7939C23.4889 13.6051 23.6011 13.4373 23.8253 13.2905C24.0682 13.1332 24.3579 13.0441 24.6942 13.0231H25.2829C25.6566 13.0021 26.2639 12.9916 27.1049 12.9916C27.9458 12.9916 28.5811 13.0126 29.0109 13.0546C29.3099 13.0755 29.6463 13.0965 30.02 13.1175C30.3751 13.1385 30.7021 13.1594 31.0011 13.1804L31.5337 13.2119C31.87 13.2119 32.1503 13.2957 32.3746 13.4635C32.6175 13.6208 32.7296 13.7991 32.7109 13.9983C32.6923 14.1871 32.5334 14.3444 32.2344 14.4702C31.9541 14.5961 31.6458 14.659 31.3094 14.659L30.7768 14.6275C30.4405 14.6066 30.0574 14.5856 29.6276 14.5646C29.2539 14.5227 28.9081 14.4912 28.5905 14.4702C28.3288 14.4493 27.8336 14.4388 27.1049 14.4388C26.918 14.4388 26.7498 14.4388 26.6003 14.4388L26.5442 14.6905C26.4508 14.9736 26.3854 15.2148 26.348 15.414C26.348 15.5608 26.3293 15.9331 26.292 16.5308C26.2546 17.181 26.2172 17.7315 26.1798 18.1825C26.1051 18.5914 26.0677 19.0109 26.0677 19.4408C26.0304 19.8918 25.993 20.6101 25.9556 21.5958C25.8809 22.5606 25.8248 23.3104 25.7874 23.8452C25.75 24.0654 25.7127 24.2699 25.6753 24.4586H25.7314L26.1798 24.4901C26.4602 24.4901 26.8619 24.4796 27.3852 24.4586C27.9645 24.4167 28.4036 24.3852 28.7026 24.3642L29.1791 24.3328C29.5155 24.3118 29.8238 24.3642 30.1041 24.4901C30.4031 24.6159 30.5713 24.7785 30.6087 24.9777C30.646 25.1665 30.5526 25.3447 30.3284 25.5125C30.1228 25.6698 29.8518 25.7589 29.5155 25.7799L29.0109 25.8114C28.6559 25.8324 28.1887 25.8533 27.6094 25.8743C27.0114 25.9162 26.5162 25.9267 26.1238 25.9058H25.6192C25.5819 25.9058 25.5632 25.9058 25.5632 25.9058C25.4884 26.4196 25.4324 27.0855 25.395 27.9034C25.2642 28.9835 25.1988 29.7228 25.1988 30.1213C25.1614 30.5303 25.124 31.0704 25.0867 31.7415C25.0867 32.4021 25.096 32.8688 25.1147 33.1414C25.1334 33.4141 25.1801 33.7549 25.2548 34.1639C25.3483 34.5624 25.4137 34.8507 25.4511 35.029C25.4884 35.1968 25.5445 35.4118 25.6192 35.6739C25.6192 35.7788 25.6379 35.8837 25.6753 35.9885C25.9743 36.0095 26.3387 36.02 26.7685 36.02C27.4973 36.02 28.0859 36.02 28.5344 36.02C29.0016 35.999 29.6369 35.978 30.4405 35.9571L31.6458 35.8942C31.9821 35.8732 32.2811 35.9361 32.5428 36.0829C32.8231 36.2192 32.9819 36.3818 33.0193 36.5705C33.0566 36.7593 32.9445 36.9271 32.6829 37.0739C32.44 37.2312 32.1503 37.3203 31.814 37.3413L30.6087 37.3727C29.8051 37.4147 29.1511 37.4409 28.6465 37.4514C28.1607 37.4619 27.5347 37.4671 26.7685 37.4671C25.9649 37.4671 25.2922 37.4357 24.7503 37.3727C24.3766 37.3308 24.0122 37.2259 23.6571 37.0581C23.3207 36.9009 23.1526 36.6754 23.1526 36.3818C23.1526 36.2769 23.1152 36.1039 23.0404 35.8627C22.9657 35.5796 22.9003 35.3646 22.8442 35.2178C22.8069 35.029 22.7508 34.7301 22.676 34.3212C22.6013 33.8703 22.5546 33.498 22.5359 33.2044C22.5172 32.9107 22.5079 32.4231 22.5079 31.7415C22.5452 31.0284 22.5826 30.4621 22.62 30.0427C22.6574 29.6232 22.7134 28.8892 22.7882 27.8405C22.8816 26.7919 22.9657 25.9844 23.0404 25.4181C23.0778 24.8414 23.1339 24.2961 23.2086 23.7822C23.246 23.2474 23.3021 22.4976 23.3768 21.5329C23.4142 20.5576 23.4516 19.8446 23.4889 19.3936C23.4889 18.9427 23.5263 18.4918 23.6011 18.0409C23.6384 17.6424 23.6758 17.1286 23.7132 16.4994C23.7505 15.8597 23.7879 15.4297 23.8253 15.2095C23.8627 15.0417 23.9 14.8163 23.9374 14.5332L23.9935 14.3444C23.6945 14.1976 23.5263 14.0141 23.4889 13.7939Z" fill="black"/>
<path d="M38.9057 12.4096C39.242 12.4096 39.5317 12.4883 39.7746 12.6456C40.0362 12.7924 40.167 12.9602 40.167 13.1489V13.3377C40.167 13.453 40.2044 13.6366 40.2792 13.8882C40.3913 14.1923 40.5034 14.5174 40.6155 14.8635C40.7276 15.199 40.8678 15.5923 41.036 16.0432C41.2228 16.4941 41.5405 17.2806 41.989 18.4027C42.4188 19.5142 42.7645 20.3846 43.0261 21.0138C43.3064 21.6325 43.5961 22.246 43.8951 22.8542C44.1941 23.4519 44.5024 24.0601 44.8201 24.6788C45.1191 25.308 45.4835 26.1889 45.9133 27.3214C46.287 28.4435 46.6047 29.2824 46.8663 29.8382C47.1466 30.394 47.3802 30.9078 47.5671 31.3797C47.7166 31.7467 47.9315 32.1767 48.2118 32.6695C48.2491 32.1557 48.2865 31.4374 48.3239 30.5146C48.3239 29.3715 48.3239 28.5117 48.3239 27.9349C48.2865 27.3581 48.2678 26.7709 48.2678 26.1732C48.2678 25.5649 48.2211 24.6946 48.1277 23.562C48.0529 22.419 47.9969 21.6325 47.9595 21.2026C47.8847 20.7516 47.8287 20.1487 47.7913 19.3936C47.7539 18.6491 47.7352 18.1353 47.7352 17.8521C47.7352 17.5795 47.7166 17.3016 47.6792 17.0185C47.6792 16.7353 47.6792 16.3578 47.6792 15.8859C47.6418 15.414 47.6231 15.005 47.6231 14.659V13.5422C47.6231 13.3429 47.7446 13.1752 47.9875 13.0388C48.2491 12.9025 48.5575 12.8343 48.9125 12.8343C49.2863 12.8343 49.5946 12.9025 49.8375 13.0388C50.0805 13.1752 50.2019 13.3429 50.2019 13.5422V14.659C50.2019 14.9841 50.2206 15.3826 50.258 15.8545C50.258 16.3683 50.258 16.7458 50.258 16.987C50.2954 17.2911 50.314 17.5795 50.314 17.8521C50.314 18.1353 50.3327 18.6386 50.3701 19.3622C50.4075 20.0962 50.4449 20.6678 50.4822 21.0767C50.5757 21.5276 50.6598 22.3351 50.7345 23.4991C50.8092 24.6526 50.8466 25.544 50.8466 26.1732C50.8466 26.7709 50.8653 27.3477 50.9027 27.9034C50.9027 28.4802 50.8933 29.3558 50.8747 30.5303C50.856 31.7048 50.8092 32.5594 50.7345 33.0943C50.6971 33.65 50.6598 34.1429 50.6224 34.5728C50.5289 35.0447 50.4822 35.4642 50.4822 35.8312C50.4449 36.2402 50.4075 36.56 50.3701 36.7907C50.3701 36.8117 50.3608 36.8484 50.3421 36.9009C50.3234 36.9638 50.2673 37.0581 50.1739 37.184C50.0805 37.3098 49.9683 37.4094 49.8375 37.4829C49.7067 37.5667 49.5012 37.6087 49.2209 37.6087C48.9592 37.6087 48.6602 37.5405 48.3239 37.4042C48.081 37.3413 47.9128 37.2731 47.8193 37.1997C47.7259 37.1263 47.6698 37.0634 47.6512 37.011C47.6325 36.9585 47.6231 36.9009 47.6231 36.8379C47.6231 36.7855 47.6231 36.7593 47.6231 36.7593C47.5484 36.5705 47.4176 36.2822 47.2307 35.8942C47.0251 35.5061 46.8476 35.1968 46.6981 34.9661C46.586 34.7039 46.3337 34.2268 45.9413 33.5347C45.5676 32.8321 45.2873 32.2344 45.1004 31.7415C44.8761 31.2696 44.6239 30.7558 44.3436 30.2C44.0819 29.6127 43.7549 28.7528 43.3625 27.6203C42.9514 26.4982 42.5963 25.6488 42.2973 25.0721C42.017 24.4534 41.7274 23.8399 41.4284 23.2317C41.1107 22.613 40.8117 21.9891 40.5314 21.3599C40.2511 20.7202 39.8867 19.8446 39.4382 18.733C39.0084 17.6109 38.6908 16.814 38.4852 16.3421C38.4852 16.3421 38.4852 16.3211 38.4852 16.2792C38.4478 16.751 38.4291 17.5428 38.4291 18.6543C38.4665 19.8183 38.5039 20.6992 38.5413 21.2969C38.6347 22.0729 38.6814 22.7703 38.6814 23.389C38.6814 23.9972 38.7188 24.6107 38.7935 25.2294C38.8309 25.8586 38.8683 26.5035 38.9057 27.1641C38.9057 27.8038 38.943 28.6532 39.0178 29.7124C39.0925 30.761 39.1486 31.5055 39.186 31.946C39.2233 32.3864 39.2607 32.7692 39.2981 33.0943C39.3355 33.3984 39.3541 33.6658 39.3541 33.8965C39.3915 34.1377 39.4102 34.3736 39.4102 34.6043C39.4476 34.8455 39.485 35.1234 39.5223 35.438C39.5597 35.784 39.5784 36.0567 39.5784 36.2559V36.5391C39.5784 36.7278 39.4476 36.8904 39.186 37.0267C38.9243 37.1735 38.616 37.2469 38.261 37.2469C37.9246 37.2469 37.6256 37.1735 37.364 37.0267C37.1211 36.8904 36.9996 36.7278 36.9996 36.5391V36.2559C36.9996 36.0986 36.9809 35.8627 36.9435 35.5481C36.9062 35.202 36.8688 34.9084 36.8314 34.6672C36.8314 34.4575 36.8127 34.232 36.7753 33.9909C36.7753 33.7392 36.7567 33.4613 36.7193 33.1572C36.6819 32.8321 36.6445 32.4546 36.6072 32.0246C36.5698 31.5737 36.5137 30.8187 36.439 29.7595C36.3642 28.7004 36.3269 27.8458 36.3269 27.1956C36.2895 26.5559 36.2428 25.9215 36.1867 25.2923C36.112 24.6526 36.0746 24.0182 36.0746 23.389C36.0746 22.7913 36.0372 22.1621 35.9625 21.5014C35.9251 20.8093 35.8971 19.8708 35.8784 18.6858C35.8597 17.4903 35.869 16.6567 35.9064 16.1848C35.9438 15.6919 35.9812 15.2725 36.0185 14.9264C36.0933 14.5803 36.1306 14.2867 36.1306 14.0455C36.168 13.7309 36.2708 13.4426 36.439 13.1804L36.6072 12.8973C36.6819 12.698 36.8781 12.5512 37.1958 12.4568C37.5322 12.3624 37.8685 12.3467 38.2049 12.4096C38.2796 12.4306 38.3544 12.4516 38.4291 12.4726C38.5973 12.4306 38.7562 12.4096 38.9057 12.4096Z" fill="black"/>
<path d="M56.3686 14.3759V14.5646C56.3686 14.7219 56.3686 14.9683 56.3686 15.3039C56.406 15.6709 56.4247 15.996 56.4247 16.2792C56.4247 16.5518 56.4434 16.8716 56.4807 17.2387C56.4807 17.6057 56.5088 17.9937 56.5648 18.4027C56.6022 18.8326 56.6302 19.2626 56.6489 19.6925C56.6676 20.1225 56.677 20.5419 56.677 20.9509C56.7143 21.3389 56.733 21.7583 56.733 22.2093C56.7704 22.6812 56.7891 23.1426 56.7891 23.5935V27.2271C56.7891 27.5941 56.7891 27.9506 56.7891 28.2967C56.7891 28.6322 56.7704 28.9731 56.733 29.3191C56.6956 29.6652 56.677 29.9798 56.677 30.2629C56.677 30.5565 56.677 30.8659 56.677 31.191C56.6396 31.4951 56.6022 31.773 56.5648 32.0246C56.5648 32.2658 56.5835 32.6119 56.6209 33.0628C56.6956 33.5137 56.733 33.8021 56.733 33.9279C56.7704 34.0328 56.8451 34.1953 56.9573 34.4156C57.032 34.6043 57.2002 34.8298 57.4618 35.0919C57.7047 35.3646 57.9196 35.5691 58.1065 35.7054C58.2186 35.7893 58.4242 35.8837 58.7232 35.9885C59.1156 36.1144 59.4239 36.1983 59.6482 36.2402C59.8724 36.2717 60.1247 36.2979 60.405 36.3189C60.6666 36.3398 60.9282 36.3398 61.1898 36.3189C61.3954 36.3189 61.5916 36.2979 61.7785 36.2559C61.9654 36.2035 62.1896 36.1458 62.4512 36.0829C62.582 36.041 62.8156 35.9256 63.152 35.7369C63.5444 35.4957 63.778 35.3331 63.8527 35.2492C63.9649 35.1444 64.0957 34.9923 64.2452 34.7931C64.3947 34.6043 64.5068 34.3998 64.5815 34.1796C64.6937 33.9699 64.8712 33.6081 65.1141 33.0943C65.301 32.6014 65.4318 32.1924 65.5065 31.8673C65.5813 31.5213 65.6747 31.191 65.7868 30.8764C65.8616 30.6142 65.9363 30.2891 66.0111 29.9011C66.0485 29.4921 66.1139 29.1146 66.2073 28.7686C66.2447 28.433 66.3194 27.8667 66.4315 27.0698C66.5063 26.2938 66.553 25.6855 66.5717 25.2451C66.5904 24.8047 66.5997 24.4009 66.5997 24.0339V21.3599C66.5997 20.9509 66.5623 20.3846 66.4876 19.6611C66.3755 18.8851 66.3194 18.3555 66.3194 18.0723C66.282 17.8416 66.2447 17.5952 66.2073 17.333C66.1139 17.0394 66.0485 16.793 66.0111 16.5938C65.9737 16.384 65.955 16.1481 65.955 15.8859C65.9176 15.6762 65.8803 15.4822 65.8429 15.3039L65.7868 15.0522C65.7121 14.8635 65.7775 14.6905 65.9831 14.5332C66.2073 14.3654 66.4969 14.2657 66.852 14.2343C67.2257 14.2028 67.5528 14.2448 67.8331 14.3601C68.1134 14.4755 68.2722 14.6328 68.3096 14.832L68.4217 15.0837C68.4591 15.3039 68.5058 15.5503 68.5618 15.823C68.5618 16.0642 68.5805 16.2687 68.6179 16.4365C68.6553 16.6252 68.6927 16.8612 68.73 17.1443C68.8048 17.4694 68.8608 17.7682 68.8982 18.0409C68.8982 18.2821 68.9543 18.7802 69.0664 19.5352C69.1411 20.3217 69.1785 20.9299 69.1785 21.3599V24.0339C69.1785 24.4219 69.1692 24.8414 69.1505 25.2923C69.1318 25.7432 69.0757 26.3724 68.9823 27.1799C68.8889 27.9873 68.8141 28.5641 68.7581 28.9101C68.702 29.2457 68.6553 29.618 68.6179 30.027C68.5245 30.4569 68.4217 30.8344 68.3096 31.1595C68.2348 31.4426 68.1601 31.7415 68.0853 32.0561C68.0106 32.4231 67.8424 32.8845 67.5808 33.4403C67.3379 33.9646 67.179 34.3421 67.1043 34.5728C66.9548 34.835 66.8053 35.0919 66.6558 35.3436C66.4689 35.6058 66.2727 35.8207 66.0671 35.9885C65.8803 36.1668 65.5439 36.4027 65.058 36.6964C64.4788 37.0424 63.9929 37.2679 63.6005 37.3727C63.3015 37.4566 62.9838 37.5353 62.6474 37.6087C62.255 37.6926 61.8532 37.745 61.4421 37.766C61.0123 37.787 60.5919 37.787 60.1808 37.766C59.751 37.745 59.3212 37.7031 58.8914 37.6402C58.4429 37.5458 57.9477 37.4042 57.4057 37.2154C56.7891 37.0267 56.3312 36.8117 56.0323 36.5705C55.7706 36.3818 55.481 36.1144 55.1633 35.7683C54.8269 35.4223 54.584 35.0972 54.4345 34.7931C54.3224 34.5204 54.2476 34.3054 54.2103 34.1481C54.1542 33.9804 54.0888 33.65 54.0141 33.1572C53.9767 32.6643 53.958 32.2658 53.958 31.9617C53.9954 31.71 54.0327 31.4321 54.0701 31.128C54.0701 30.8239 54.0701 30.5355 54.0701 30.2629C54.0701 29.9588 54.0888 29.6337 54.1262 29.2877C54.1822 28.9416 54.2103 28.6113 54.2103 28.2967C54.2103 27.9506 54.2103 27.5941 54.2103 27.2271V23.5935C54.2103 23.1635 54.1822 22.7126 54.1262 22.2407C54.1262 21.7898 54.1075 21.3599 54.0701 20.9509C54.0701 20.5629 54.0608 20.1592 54.0421 19.7397C54.0234 19.3202 53.9954 18.906 53.958 18.497C53.9206 18.0671 53.9019 17.6581 53.9019 17.2701C53.8646 16.9031 53.8459 16.5833 53.8459 16.3106C53.8459 16.0275 53.8272 15.7024 53.7898 15.3354C53.7898 14.9788 53.7898 14.7219 53.7898 14.5646V14.3759C53.7898 14.1871 53.9113 14.0193 54.1542 13.8725C54.4158 13.7152 54.7242 13.6366 55.0792 13.6366C55.453 13.6366 55.7613 13.7152 56.0042 13.8725C56.2472 14.0193 56.3686 14.1871 56.3686 14.3759Z" fill="black"/>
<path d="M4.87673 12.9916C5.21309 12.9707 5.51208 13.0231 5.7737 13.1489C6.05401 13.2748 6.21284 13.4373 6.25022 13.6366L6.30628 13.8882C6.34365 14.0665 6.39971 14.229 6.47446 14.3759C6.51184 14.5436 6.5679 14.7272 6.64264 14.9264C6.68002 15.0732 6.82017 15.4035 7.0631 15.9174C7.28734 16.4312 7.45553 16.8612 7.56765 17.2072C7.71714 17.5323 7.86664 17.8888 8.01613 18.2768C8.18432 18.6648 8.4179 19.1787 8.7169 19.8183C9.01589 20.4895 9.24947 20.9823 9.41766 21.2969C9.52978 21.622 9.6419 21.9156 9.75402 22.1778C9.90352 22.4505 10.0343 22.8227 10.1464 23.2946C10.1464 23.3575 10.1651 23.4362 10.2025 23.5306C10.2399 23.4886 10.2773 23.4309 10.3146 23.3575C10.8192 22.634 11.1649 22.1096 11.3518 21.7846C11.5386 21.4175 11.7162 21.0872 11.8843 20.7936C12.0712 20.4895 12.3141 20.0595 12.6131 19.5038C12.9308 18.9165 13.1831 18.4656 13.3699 18.151C13.5568 17.8469 13.7437 17.5428 13.9306 17.2387C14.0987 16.966 14.2576 16.6462 14.4071 16.2792C14.5566 15.9121 14.6874 15.6342 14.7995 15.4455C14.8742 15.2672 14.9864 15.0155 15.1359 14.6905C15.304 14.3339 15.4255 14.0455 15.5003 13.8253C15.5376 13.7205 15.7338 13.5999 16.0889 13.4635C16.4626 13.3167 16.8737 13.2433 17.3222 13.2433C17.7894 13.2433 18.0977 13.3954 18.2472 13.6995C18.3594 13.8882 18.4528 14.1137 18.5275 14.3759C18.6023 14.617 18.6957 15.0575 18.8078 15.6972C18.976 16.3578 19.0788 17.0866 19.1162 17.8836C19.1536 18.6806 19.2096 19.3045 19.2844 19.7554C19.3591 20.2483 19.4245 20.9981 19.4806 22.0048C19.5366 23.001 19.5647 23.7403 19.5647 24.2227C19.5647 24.7051 19.5647 25.1927 19.5647 25.6855C19.5647 26.1574 19.5834 26.8443 19.6207 27.7461C19.6207 28.648 19.6207 29.2981 19.6207 29.6966C19.6207 30.0951 19.6207 30.6352 19.6207 31.3168C19.5834 31.9879 19.5647 32.4598 19.5647 32.7325C19.5647 33.0156 19.546 33.4036 19.5086 33.8965C19.5086 34.3474 19.5086 34.6567 19.5086 34.8245C19.5086 35.0447 19.5086 35.3803 19.5086 35.8312L19.5647 36.5391C19.5647 36.7278 19.4339 36.8904 19.1722 37.0267C18.9293 37.1735 18.6397 37.2522 18.3033 37.2626C17.9669 37.2731 17.6586 37.205 17.3783 37.0581C17.1167 36.9218 16.9859 36.7593 16.9859 36.5705L16.9298 35.8627C16.9298 35.3908 16.9298 35.0605 16.9298 34.8717C16.9298 34.6515 16.9298 34.3054 16.9298 33.8336C16.9672 33.3826 16.9859 33.0156 16.9859 32.7325C16.9859 32.4598 17.0046 31.9774 17.0419 31.2853C17.0419 30.6037 17.0419 30.0689 17.0419 29.6809C17.0419 29.2929 17.0419 28.6585 17.0419 27.7776C17.0046 26.8758 16.9859 26.1784 16.9859 25.6855C16.9859 25.1927 16.9859 24.7103 16.9859 24.2384C16.9859 23.7455 16.9485 23.0115 16.8737 22.0362C16.8364 21.0505 16.7803 20.3322 16.7056 19.8813C16.6308 19.3884 16.5654 18.7435 16.5094 17.9465C16.5094 17.7997 16.5094 17.6529 16.5094 17.5061C16.472 17.569 16.4346 17.6319 16.3972 17.6948C16.2104 18.0199 16.0235 18.3293 15.8366 18.6229C15.6498 18.927 15.3975 19.3465 15.0798 19.8813C14.7808 20.4895 14.5379 20.9404 14.351 21.234C14.1828 21.5172 14.0053 21.8422 13.8184 22.2093C13.6316 22.5658 13.2672 23.1216 12.7252 23.8766C12.1646 24.7155 11.5947 25.308 11.0154 25.6541C10.978 25.6751 10.8285 25.7222 10.5669 25.7957C10.324 25.8691 10.0156 25.9425 9.6419 26.0159C9.28685 26.0893 8.95983 26.0735 8.66083 25.9687C8.36184 25.8638 8.16563 25.6593 8.0722 25.3552C8.03482 25.1874 7.99745 25.0406 7.96007 24.9148C7.88533 24.7575 7.82927 24.5949 7.79189 24.4272C7.75452 24.2804 7.67977 23.9815 7.56765 23.5306C7.45553 23.1006 7.36209 22.7651 7.28734 22.5239C7.17522 22.2722 7.03507 21.9838 6.86689 21.6587C6.71739 21.3336 6.49315 20.8513 6.19416 20.2116C5.87648 19.5405 5.64289 19.0109 5.4934 18.6229C5.45602 18.518 5.41865 18.4027 5.38127 18.2768C5.3439 18.4656 5.32521 18.6386 5.32521 18.7959C5.28784 19.7397 5.26915 20.479 5.26915 21.0138C5.26915 21.5696 5.28784 22.1044 5.32521 22.6182C5.32521 23.1321 5.32521 23.9081 5.32521 24.9462C5.28784 25.9949 5.23178 26.7552 5.15703 27.2271C5.08228 27.699 5.00754 28.1813 4.93279 28.6742C4.85804 29.1461 4.78329 29.812 4.70854 30.6719C4.6338 31.5108 4.56839 32.1138 4.51233 32.4808C4.51233 32.7639 4.49364 33.0418 4.45627 33.3145C4.4189 33.5557 4.40021 33.8388 4.40021 34.1639C4.40021 34.4785 4.4189 34.6882 4.45627 34.7931C4.45627 34.9084 4.50299 35.0605 4.59642 35.2492L4.76461 35.611C4.87673 35.7998 4.83001 35.9885 4.62445 36.1773C4.43758 36.3556 4.16662 36.4657 3.81157 36.5076C3.47521 36.5496 3.15753 36.5233 2.85854 36.429C2.55955 36.3346 2.37268 36.1878 2.29793 35.9885L2.10172 35.6425C1.98959 35.3593 1.91485 35.1339 1.87747 34.9661C1.8401 34.7878 1.82141 34.5204 1.82141 34.1639C1.82141 33.7969 1.8401 33.4718 1.87747 33.1886C1.91485 32.9474 1.93353 32.701 1.93353 32.4493C1.97091 32.0613 2.02697 31.4479 2.10172 30.609C2.19515 29.7281 2.27924 29.0412 2.35399 28.5484C2.42874 28.0555 2.50348 27.5731 2.57823 27.1012C2.65298 26.6503 2.70904 25.9215 2.74642 24.9148C2.74642 23.8976 2.74642 23.1426 2.74642 22.6497C2.70904 22.1359 2.69035 21.6011 2.69035 21.0453C2.69035 20.4895 2.70904 19.7292 2.74642 18.7645C2.82116 17.7892 2.87722 17.1076 2.9146 16.7196C2.95197 16.363 2.97066 16.017 2.97066 15.6814C2.97066 15.3459 2.97066 15.0732 2.97066 14.8635V13.7624C2.97066 13.5736 3.10147 13.4059 3.36308 13.259C3.64339 13.1017 3.95172 13.0231 4.28809 13.0231C4.36284 13.0231 4.43758 13.0336 4.51233 13.0546C4.60577 13.0126 4.72723 12.9916 4.87673 12.9916Z" stroke="white" stroke-width="2.27352" mask="url(#path-2-outside-1_13_346)"/>
<path d="M23.4889 13.7939C23.4889 13.6051 23.6011 13.4373 23.8253 13.2905C24.0682 13.1332 24.3579 13.0441 24.6942 13.0231H25.2829C25.6566 13.0021 26.2639 12.9916 27.1049 12.9916C27.9458 12.9916 28.5811 13.0126 29.0109 13.0546C29.3099 13.0755 29.6463 13.0965 30.02 13.1175C30.3751 13.1385 30.7021 13.1594 31.0011 13.1804L31.5337 13.2119C31.87 13.2119 32.1503 13.2957 32.3746 13.4635C32.6175 13.6208 32.7296 13.7991 32.7109 13.9983C32.6923 14.1871 32.5334 14.3444 32.2344 14.4702C31.9541 14.5961 31.6458 14.659 31.3094 14.659L30.7768 14.6275C30.4405 14.6066 30.0574 14.5856 29.6276 14.5646C29.2539 14.5227 28.9081 14.4912 28.5905 14.4702C28.3288 14.4493 27.8336 14.4388 27.1049 14.4388C26.918 14.4388 26.7498 14.4388 26.6003 14.4388L26.5442 14.6905C26.4508 14.9736 26.3854 15.2148 26.348 15.414C26.348 15.5608 26.3293 15.9331 26.292 16.5308C26.2546 17.181 26.2172 17.7315 26.1798 18.1825C26.1051 18.5914 26.0677 19.0109 26.0677 19.4408C26.0304 19.8918 25.993 20.6101 25.9556 21.5958C25.8809 22.5606 25.8248 23.3104 25.7874 23.8452C25.75 24.0654 25.7127 24.2699 25.6753 24.4586H25.7314L26.1798 24.4901C26.4602 24.4901 26.8619 24.4796 27.3852 24.4586C27.9645 24.4167 28.4036 24.3852 28.7026 24.3642L29.1791 24.3328C29.5155 24.3118 29.8238 24.3642 30.1041 24.4901C30.4031 24.6159 30.5713 24.7785 30.6087 24.9777C30.646 25.1665 30.5526 25.3447 30.3284 25.5125C30.1228 25.6698 29.8518 25.7589 29.5155 25.7799L29.0109 25.8114C28.6559 25.8324 28.1887 25.8533 27.6094 25.8743C27.0114 25.9162 26.5162 25.9267 26.1238 25.9058H25.6192C25.5819 25.9058 25.5632 25.9058 25.5632 25.9058C25.4884 26.4196 25.4324 27.0855 25.395 27.9034C25.2642 28.9835 25.1988 29.7228 25.1988 30.1213C25.1614 30.5303 25.124 31.0704 25.0867 31.7415C25.0867 32.4021 25.096 32.8688 25.1147 33.1414C25.1334 33.4141 25.1801 33.7549 25.2548 34.1639C25.3483 34.5624 25.4137 34.8507 25.4511 35.029C25.4884 35.1968 25.5445 35.4118 25.6192 35.6739C25.6192 35.7788 25.6379 35.8837 25.6753 35.9885C25.9743 36.0095 26.3387 36.02 26.7685 36.02C27.4973 36.02 28.0859 36.02 28.5344 36.02C29.0016 35.999 29.6369 35.978 30.4405 35.9571L31.6458 35.8942C31.9821 35.8732 32.2811 35.9361 32.5428 36.0829C32.8231 36.2192 32.9819 36.3818 33.0193 36.5705C33.0566 36.7593 32.9445 36.9271 32.6829 37.0739C32.44 37.2312 32.1503 37.3203 31.814 37.3413L30.6087 37.3727C29.8051 37.4147 29.1511 37.4409 28.6465 37.4514C28.1607 37.4619 27.5347 37.4671 26.7685 37.4671C25.9649 37.4671 25.2922 37.4357 24.7503 37.3727C24.3766 37.3308 24.0122 37.2259 23.6571 37.0581C23.3207 36.9009 23.1526 36.6754 23.1526 36.3818C23.1526 36.2769 23.1152 36.1039 23.0404 35.8627C22.9657 35.5796 22.9003 35.3646 22.8442 35.2178C22.8069 35.029 22.7508 34.7301 22.676 34.3212C22.6013 33.8703 22.5546 33.498 22.5359 33.2044C22.5172 32.9107 22.5079 32.4231 22.5079 31.7415C22.5452 31.0284 22.5826 30.4621 22.62 30.0427C22.6574 29.6232 22.7134 28.8892 22.7882 27.8405C22.8816 26.7919 22.9657 25.9844 23.0404 25.4181C23.0778 24.8414 23.1339 24.2961 23.2086 23.7822C23.246 23.2474 23.3021 22.4976 23.3768 21.5329C23.4142 20.5576 23.4516 19.8446 23.4889 19.3936C23.4889 18.9427 23.5263 18.4918 23.6011 18.0409C23.6384 17.6424 23.6758 17.1286 23.7132 16.4994C23.7505 15.8597 23.7879 15.4297 23.8253 15.2095C23.8627 15.0417 23.9 14.8163 23.9374 14.5332L23.9935 14.3444C23.6945 14.1976 23.5263 14.0141 23.4889 13.7939Z" stroke="white" stroke-width="2.27352" mask="url(#path-2-outside-1_13_346)"/>
<path d="M38.9057 12.4096C39.242 12.4096 39.5317 12.4883 39.7746 12.6456C40.0362 12.7924 40.167 12.9602 40.167 13.1489V13.3377C40.167 13.453 40.2044 13.6366 40.2792 13.8882C40.3913 14.1923 40.5034 14.5174 40.6155 14.8635C40.7276 15.199 40.8678 15.5923 41.036 16.0432C41.2228 16.4941 41.5405 17.2806 41.989 18.4027C42.4188 19.5142 42.7645 20.3846 43.0261 21.0138C43.3064 21.6325 43.5961 22.246 43.8951 22.8542C44.1941 23.4519 44.5024 24.0601 44.8201 24.6788C45.1191 25.308 45.4835 26.1889 45.9133 27.3214C46.287 28.4435 46.6047 29.2824 46.8663 29.8382C47.1466 30.394 47.3802 30.9078 47.5671 31.3797C47.7166 31.7467 47.9315 32.1767 48.2118 32.6695C48.2491 32.1557 48.2865 31.4374 48.3239 30.5146C48.3239 29.3715 48.3239 28.5117 48.3239 27.9349C48.2865 27.3581 48.2678 26.7709 48.2678 26.1732C48.2678 25.5649 48.2211 24.6946 48.1277 23.562C48.0529 22.419 47.9969 21.6325 47.9595 21.2026C47.8847 20.7516 47.8287 20.1487 47.7913 19.3936C47.7539 18.6491 47.7352 18.1353 47.7352 17.8521C47.7352 17.5795 47.7166 17.3016 47.6792 17.0185C47.6792 16.7353 47.6792 16.3578 47.6792 15.8859C47.6418 15.414 47.6231 15.005 47.6231 14.659V13.5422C47.6231 13.3429 47.7446 13.1752 47.9875 13.0388C48.2491 12.9025 48.5575 12.8343 48.9125 12.8343C49.2863 12.8343 49.5946 12.9025 49.8375 13.0388C50.0805 13.1752 50.2019 13.3429 50.2019 13.5422V14.659C50.2019 14.9841 50.2206 15.3826 50.258 15.8545C50.258 16.3683 50.258 16.7458 50.258 16.987C50.2954 17.2911 50.314 17.5795 50.314 17.8521C50.314 18.1353 50.3327 18.6386 50.3701 19.3622C50.4075 20.0962 50.4449 20.6678 50.4822 21.0767C50.5757 21.5276 50.6598 22.3351 50.7345 23.4991C50.8092 24.6526 50.8466 25.544 50.8466 26.1732C50.8466 26.7709 50.8653 27.3477 50.9027 27.9034C50.9027 28.4802 50.8933 29.3558 50.8747 30.5303C50.856 31.7048 50.8092 32.5594 50.7345 33.0943C50.6971 33.65 50.6598 34.1429 50.6224 34.5728C50.5289 35.0447 50.4822 35.4642 50.4822 35.8312C50.4449 36.2402 50.4075 36.56 50.3701 36.7907C50.3701 36.8117 50.3608 36.8484 50.3421 36.9009C50.3234 36.9638 50.2673 37.0581 50.1739 37.184C50.0805 37.3098 49.9683 37.4094 49.8375 37.4829C49.7067 37.5667 49.5012 37.6087 49.2209 37.6087C48.9592 37.6087 48.6602 37.5405 48.3239 37.4042C48.081 37.3413 47.9128 37.2731 47.8193 37.1997C47.7259 37.1263 47.6698 37.0634 47.6512 37.011C47.6325 36.9585 47.6231 36.9009 47.6231 36.8379C47.6231 36.7855 47.6231 36.7593 47.6231 36.7593C47.5484 36.5705 47.4176 36.2822 47.2307 35.8942C47.0251 35.5061 46.8476 35.1968 46.6981 34.9661C46.586 34.7039 46.3337 34.2268 45.9413 33.5347C45.5676 32.8321 45.2873 32.2344 45.1004 31.7415C44.8761 31.2696 44.6239 30.7558 44.3436 30.2C44.0819 29.6127 43.7549 28.7528 43.3625 27.6203C42.9514 26.4982 42.5963 25.6488 42.2973 25.0721C42.017 24.4534 41.7274 23.8399 41.4284 23.2317C41.1107 22.613 40.8117 21.9891 40.5314 21.3599C40.2511 20.7202 39.8867 19.8446 39.4382 18.733C39.0084 17.6109 38.6908 16.814 38.4852 16.3421C38.4852 16.3421 38.4852 16.3211 38.4852 16.2792C38.4478 16.751 38.4291 17.5428 38.4291 18.6543C38.4665 19.8183 38.5039 20.6992 38.5413 21.2969C38.6347 22.0729 38.6814 22.7703 38.6814 23.389C38.6814 23.9972 38.7188 24.6107 38.7935 25.2294C38.8309 25.8586 38.8683 26.5035 38.9057 27.1641C38.9057 27.8038 38.943 28.6532 39.0178 29.7124C39.0925 30.761 39.1486 31.5055 39.186 31.946C39.2233 32.3864 39.2607 32.7692 39.2981 33.0943C39.3355 33.3984 39.3541 33.6658 39.3541 33.8965C39.3915 34.1377 39.4102 34.3736 39.4102 34.6043C39.4476 34.8455 39.485 35.1234 39.5223 35.438C39.5597 35.784 39.5784 36.0567 39.5784 36.2559V36.5391C39.5784 36.7278 39.4476 36.8904 39.186 37.0267C38.9243 37.1735 38.616 37.2469 38.261 37.2469C37.9246 37.2469 37.6256 37.1735 37.364 37.0267C37.1211 36.8904 36.9996 36.7278 36.9996 36.5391V36.2559C36.9996 36.0986 36.9809 35.8627 36.9435 35.5481C36.9062 35.202 36.8688 34.9084 36.8314 34.6672C36.8314 34.4575 36.8127 34.232 36.7753 33.9909C36.7753 33.7392 36.7567 33.4613 36.7193 33.1572C36.6819 32.8321 36.6445 32.4546 36.6072 32.0246C36.5698 31.5737 36.5137 30.8187 36.439 29.7595C36.3642 28.7004 36.3269 27.8458 36.3269 27.1956C36.2895 26.5559 36.2428 25.9215 36.1867 25.2923C36.112 24.6526 36.0746 24.0182 36.0746 23.389C36.0746 22.7913 36.0372 22.1621 35.9625 21.5014C35.9251 20.8093 35.8971 19.8708 35.8784 18.6858C35.8597 17.4903 35.869 16.6567 35.9064 16.1848C35.9438 15.6919 35.9812 15.2725 36.0185 14.9264C36.0933 14.5803 36.1306 14.2867 36.1306 14.0455C36.168 13.7309 36.2708 13.4426 36.439 13.1804L36.6072 12.8973C36.6819 12.698 36.8781 12.5512 37.1958 12.4568C37.5322 12.3624 37.8685 12.3467 38.2049 12.4096C38.2796 12.4306 38.3544 12.4516 38.4291 12.4726C38.5973 12.4306 38.7562 12.4096 38.9057 12.4096Z" stroke="white" stroke-width="2.27352" mask="url(#path-2-outside-1_13_346)"/>
<path d="M56.3686 14.3759V14.5646C56.3686 14.7219 56.3686 14.9683 56.3686 15.3039C56.406 15.6709 56.4247 15.996 56.4247 16.2792C56.4247 16.5518 56.4434 16.8716 56.4807 17.2387C56.4807 17.6057 56.5088 17.9937 56.5648 18.4027C56.6022 18.8326 56.6302 19.2626 56.6489 19.6925C56.6676 20.1225 56.677 20.5419 56.677 20.9509C56.7143 21.3389 56.733 21.7583 56.733 22.2093C56.7704 22.6812 56.7891 23.1426 56.7891 23.5935V27.2271C56.7891 27.5941 56.7891 27.9506 56.7891 28.2967C56.7891 28.6322 56.7704 28.9731 56.733 29.3191C56.6956 29.6652 56.677 29.9798 56.677 30.2629C56.677 30.5565 56.677 30.8659 56.677 31.191C56.6396 31.4951 56.6022 31.773 56.5648 32.0246C56.5648 32.2658 56.5835 32.6119 56.6209 33.0628C56.6956 33.5137 56.733 33.8021 56.733 33.9279C56.7704 34.0328 56.8451 34.1953 56.9573 34.4156C57.032 34.6043 57.2002 34.8298 57.4618 35.0919C57.7047 35.3646 57.9196 35.5691 58.1065 35.7054C58.2186 35.7893 58.4242 35.8837 58.7232 35.9885C59.1156 36.1144 59.4239 36.1983 59.6482 36.2402C59.8724 36.2717 60.1247 36.2979 60.405 36.3189C60.6666 36.3398 60.9282 36.3398 61.1898 36.3189C61.3954 36.3189 61.5916 36.2979 61.7785 36.2559C61.9654 36.2035 62.1896 36.1458 62.4512 36.0829C62.582 36.041 62.8156 35.9256 63.152 35.7369C63.5444 35.4957 63.778 35.3331 63.8527 35.2492C63.9649 35.1444 64.0957 34.9923 64.2452 34.7931C64.3947 34.6043 64.5068 34.3998 64.5815 34.1796C64.6937 33.9699 64.8712 33.6081 65.1141 33.0943C65.301 32.6014 65.4318 32.1924 65.5065 31.8673C65.5813 31.5213 65.6747 31.191 65.7868 30.8764C65.8616 30.6142 65.9363 30.2891 66.0111 29.9011C66.0485 29.4921 66.1139 29.1146 66.2073 28.7686C66.2447 28.433 66.3194 27.8667 66.4315 27.0698C66.5063 26.2938 66.553 25.6855 66.5717 25.2451C66.5904 24.8047 66.5997 24.4009 66.5997 24.0339V21.3599C66.5997 20.9509 66.5623 20.3846 66.4876 19.6611C66.3755 18.8851 66.3194 18.3555 66.3194 18.0723C66.282 17.8416 66.2447 17.5952 66.2073 17.333C66.1139 17.0394 66.0485 16.793 66.0111 16.5938C65.9737 16.384 65.955 16.1481 65.955 15.8859C65.9176 15.6762 65.8803 15.4822 65.8429 15.3039L65.7868 15.0522C65.7121 14.8635 65.7775 14.6905 65.9831 14.5332C66.2073 14.3654 66.4969 14.2657 66.852 14.2343C67.2257 14.2028 67.5528 14.2448 67.8331 14.3601C68.1134 14.4755 68.2722 14.6328 68.3096 14.832L68.4217 15.0837C68.4591 15.3039 68.5058 15.5503 68.5618 15.823C68.5618 16.0642 68.5805 16.2687 68.6179 16.4365C68.6553 16.6252 68.6927 16.8612 68.73 17.1443C68.8048 17.4694 68.8608 17.7682 68.8982 18.0409C68.8982 18.2821 68.9543 18.7802 69.0664 19.5352C69.1411 20.3217 69.1785 20.9299 69.1785 21.3599V24.0339C69.1785 24.4219 69.1692 24.8414 69.1505 25.2923C69.1318 25.7432 69.0757 26.3724 68.9823 27.1799C68.8889 27.9873 68.8141 28.5641 68.7581 28.9101C68.702 29.2457 68.6553 29.618 68.6179 30.027C68.5245 30.4569 68.4217 30.8344 68.3096 31.1595C68.2348 31.4426 68.1601 31.7415 68.0853 32.0561C68.0106 32.4231 67.8424 32.8845 67.5808 33.4403C67.3379 33.9646 67.179 34.3421 67.1043 34.5728C66.9548 34.835 66.8053 35.0919 66.6558 35.3436C66.4689 35.6058 66.2727 35.8207 66.0671 35.9885C65.8803 36.1668 65.5439 36.4027 65.058 36.6964C64.4788 37.0424 63.9929 37.2679 63.6005 37.3727C63.3015 37.4566 62.9838 37.5353 62.6474 37.6087C62.255 37.6926 61.8532 37.745 61.4421 37.766C61.0123 37.787 60.5919 37.787 60.1808 37.766C59.751 37.745 59.3212 37.7031 58.8914 37.6402C58.4429 37.5458 57.9477 37.4042 57.4057 37.2154C56.7891 37.0267 56.3312 36.8117 56.0323 36.5705C55.7706 36.3818 55.481 36.1144 55.1633 35.7683C54.8269 35.4223 54.584 35.0972 54.4345 34.7931C54.3224 34.5204 54.2476 34.3054 54.2103 34.1481C54.1542 33.9804 54.0888 33.65 54.0141 33.1572C53.9767 32.6643 53.958 32.2658 53.958 31.9617C53.9954 31.71 54.0327 31.4321 54.0701 31.128C54.0701 30.8239 54.0701 30.5355 54.0701 30.2629C54.0701 29.9588 54.0888 29.6337 54.1262 29.2877C54.1822 28.9416 54.2103 28.6113 54.2103 28.2967C54.2103 27.9506 54.2103 27.5941 54.2103 27.2271V23.5935C54.2103 23.1635 54.1822 22.7126 54.1262 22.2407C54.1262 21.7898 54.1075 21.3599 54.0701 20.9509C54.0701 20.5629 54.0608 20.1592 54.0421 19.7397C54.0234 19.3202 53.9954 18.906 53.958 18.497C53.9206 18.0671 53.9019 17.6581 53.9019 17.2701C53.8646 16.9031 53.8459 16.5833 53.8459 16.3106C53.8459 16.0275 53.8272 15.7024 53.7898 15.3354C53.7898 14.9788 53.7898 14.7219 53.7898 14.5646V14.3759C53.7898 14.1871 53.9113 14.0193 54.1542 13.8725C54.4158 13.7152 54.7242 13.6366 55.0792 13.6366C55.453 13.6366 55.7613 13.7152 56.0042 13.8725C56.2472 14.0193 56.3686 14.1871 56.3686 14.3759Z" stroke="white" stroke-width="2.27352" mask="url(#path-2-outside-1_13_346)"/>
</svg>
