<svg width="102" height="58" viewBox="0 0 102 58" fill="none" xmlns="http://www.w3.org/2000/svg">
<path d="M98.9095 29.4343L12.4026 55.2088L12.4026 3.65982L98.9095 29.4343Z" fill="#D9D9D9"/>
<path fill-rule="evenodd" clip-rule="evenodd" d="M101.656 29.4343C101.656 30.6493 100.858 31.72 99.6939 32.0669L13.1869 57.8414C12.3556 58.0891 11.4562 57.9296 10.7608 57.4111C10.0654 56.8927 9.65566 56.0762 9.65566 55.2088L9.65566 3.65982C9.65566 2.79242 10.0654 1.97598 10.7608 1.45754C11.4562 0.939105 12.3557 0.779595 13.1869 1.02728L99.6939 26.8018C100.858 27.1487 101.656 28.2194 101.656 29.4343ZM98.9095 29.4343L12.4026 3.65982L12.4026 55.2088L98.9095 29.4343Z" fill="black"/>
<path d="M98.9095 29.4343L12.4026 55.2088L12.4026 3.65982L98.9095 29.4343Z" fill="#323242"/>
<path fill-rule="evenodd" clip-rule="evenodd" d="M101.107 29.4343C101.107 30.4063 100.468 31.2628 99.537 31.5404L13.0301 57.3149C12.365 57.513 11.6455 57.3854 11.0891 56.9707C10.5328 56.5559 10.205 55.9028 10.205 55.2088L10.205 3.65982C10.205 2.9659 10.5328 2.31275 11.0891 1.898C11.6455 1.48325 12.365 1.35564 13.0301 1.55379L99.537 27.3283C100.468 27.6058 101.107 28.4624 101.107 29.4343ZM98.9095 29.4343L12.4026 3.65982L12.4026 55.2088L98.9095 29.4343Z" fill="white"/>
<path d="M90.2425 29.4343L22.9319 49.6389L22.9319 9.22979L90.2425 29.4343Z" fill="#CC3300"/>
<path d="M14.4079 52.6488L82.2128 29.4343L14.4079 29.4343L14.4079 52.6488Z" fill="#AABBBB"/>
<path d="M82.2128 29.4343L14.4079 6.21988L14.4079 29.4343L82.2128 29.4343Z" fill="#BBC9CC"/>
<path d="M35.0308 29.4343L14.5308 52.6487L14.5308 6.21987L35.0308 29.4343Z" fill="#CCDDDD"/>
<mask id="path-2-outside-1_3_169" maskUnits="userSpaceOnUse" x="0.316555" y="8.25447" width="100" height="42" fill="black">
<rect fill="white" x="0.316555" y="8.25447" width="100" height="42"/>
<path d="M11.3376 10.415H11.4998C16.0644 10.6014 18.7685 11.642 19.6122 13.537V14.0029C19.6122 14.4378 19.2661 14.7795 18.5738 15.0281H18.1196C17.7518 15.0281 16.8973 14.5699 15.556 13.6534C14.4744 13.1875 13.2737 12.9545 11.9541 12.9545C8.62261 12.9545 6.51338 15.1445 5.62642 19.5246C5.62642 19.8819 5.57234 20.1149 5.46417 20.2236C5.46417 23.4232 7.72484 25.7298 12.2462 27.1432C18.8659 30.4516 22.1758 33.9541 22.1758 37.6508C22.1758 42.5435 19.4716 45.8907 14.0633 47.6924C13.0033 47.9254 11.9433 48.0419 10.8833 48.0419C5.17213 48.0419 2.31656 44.1977 2.31656 36.5092C2.31656 34.3502 2.92228 33.2707 4.13374 33.2707C4.52313 33.2707 4.92335 33.7289 5.33438 34.6453L5.17213 35.2278V35.3443C5.17213 36.1675 5.11804 36.8198 5.00988 37.3013C5.00988 42.8464 7.17319 45.6189 11.4998 45.6189C14.2905 45.6189 16.5944 44.2753 18.4116 41.5882C19.0173 40.2525 19.3202 39.0565 19.3202 38.0003V37.6508C19.3202 34.2958 15.3072 31.104 7.28136 28.0752C4.27435 26.1647 2.77085 23.7417 2.77085 20.8061C2.77085 17.6219 4.02557 14.7718 6.53501 12.2555C7.833 11.0285 9.43385 10.415 11.3376 10.415Z"/>
<path d="M26.9783 11.0906H27.4002C27.6598 11.0906 28.1465 11.0596 28.8604 10.9974C29.7041 10.9664 30.3639 10.9508 30.8398 10.9508C31.3374 10.9508 31.8241 10.9353 32.3001 10.9042C32.8842 10.8732 33.5332 10.8576 34.247 10.8576C34.8528 10.8887 35.4044 10.912 35.902 10.9275C36.4212 10.9431 36.9079 10.9664 37.3622 10.9974C37.7083 10.9974 38.0112 10.9974 38.2708 10.9974L38.8225 10.9508C39.2118 10.9198 39.558 11.0052 39.8608 11.2071C40.1853 11.3935 40.3692 11.642 40.4125 11.9527C40.4558 12.2478 40.3368 12.5041 40.0555 12.7215C39.7959 12.939 39.4714 13.0632 39.0821 13.0943L38.5629 13.1409C38.1086 13.1409 37.6218 13.1409 37.1026 13.1409C36.6916 13.1098 36.2481 13.0788 35.7722 13.0477C35.3179 13.0477 34.8528 13.0322 34.3768 13.0011C34.5066 13.4205 34.5499 13.902 34.5066 14.4456C34.5066 14.8805 34.5066 15.261 34.5066 15.5872V16.6356C34.5066 16.9774 34.485 17.5909 34.4417 18.4762C34.3985 19.346 34.3768 20.0372 34.3768 20.5498C34.3336 20.9847 34.2903 21.505 34.247 22.1108C34.247 22.6233 34.247 23.4232 34.247 24.5105C34.247 25.5822 34.247 26.4054 34.247 26.9801C34.247 27.5548 34.2687 28.0829 34.3119 28.5644C34.3119 29.077 34.3119 29.5663 34.3119 30.0322C34.3119 30.5137 34.2903 31.1972 34.247 32.0825C34.247 32.9523 34.247 33.5736 34.247 33.9464V35.717C34.247 36.4781 34.247 37.0373 34.247 37.3945C34.247 37.7673 34.247 38.1323 34.247 38.4896C34.247 38.7691 34.193 39.2118 34.0848 39.8176C34.0415 40.3301 34.0199 40.6796 34.0199 40.866C34.0199 40.866 34.0199 41.1067 34.0199 41.5882C34.0199 41.8678 33.9983 42.2639 33.955 42.7765C33.8685 43.289 33.8036 43.7162 33.7603 44.0579C33.717 44.3841 33.6954 44.6559 33.6954 44.8733V45.9217C33.6954 46.2169 33.5332 46.4654 33.2087 46.6673C32.9058 46.8692 32.5597 46.9702 32.1703 46.9702C31.7809 46.9702 31.4347 46.8692 31.1319 46.6673C30.8506 46.4654 30.71 46.2169 30.71 45.9217V44.8733C30.71 44.5627 30.7317 44.2132 30.7749 43.8249C30.8182 43.5142 30.8831 43.1026 30.9696 42.5901C31.0129 42.1396 31.0345 41.8057 31.0345 41.5882V40.866C31.0345 40.6175 31.0562 40.2059 31.0994 39.6312C31.186 39.1186 31.2292 38.707 31.2292 38.3964C31.2292 38.0702 31.2292 37.7518 31.2292 37.4411C31.2292 37.0528 31.2292 36.4781 31.2292 35.717V33.9464C31.2292 33.5736 31.2292 32.9368 31.2292 32.0359C31.2725 31.1816 31.2941 30.5293 31.2941 30.0788C31.2941 29.6129 31.2941 29.1236 31.2941 28.611C31.2509 27.6791 31.2292 27.151 31.2292 27.0267C31.2292 26.452 31.2292 25.6133 31.2292 24.5105C31.2292 23.3611 31.2292 22.5301 31.2292 22.0176C31.2725 21.8001 31.3049 21.5128 31.3266 21.1555C31.3482 20.7828 31.359 20.5498 31.359 20.4566C31.359 19.9751 31.3807 19.2994 31.4239 18.4296C31.4888 17.5443 31.5213 16.9463 31.5213 16.6356V15.5872C31.5213 15.23 31.5213 14.8184 31.5213 14.3524C31.5645 14.0262 31.5429 13.7855 31.4564 13.6302L31.2941 13.1875C31.2509 13.1564 31.2292 13.1254 31.2292 13.0943C31.1427 13.0943 31.0562 13.0943 30.9696 13.0943C30.4937 13.0943 29.8772 13.1098 29.12 13.1409C28.2763 13.203 27.703 13.2341 27.4002 13.2341H26.9783C26.5457 13.2341 26.1779 13.1254 25.875 12.9079C25.5938 12.6904 25.4532 12.4419 25.4532 12.1624C25.4532 11.8672 25.5938 11.6187 25.875 11.4168C26.1779 11.1994 26.5457 11.0906 26.9783 11.0906Z"/>
<path d="M43.7548 45.0597L43.8846 44.1045C43.9711 43.3745 44.1118 42.6444 44.3064 41.9144C44.5228 41.1844 44.7607 40.2602 45.0203 39.1419C45.2799 38.0081 45.6693 36.7111 46.1885 35.2511C46.7077 33.7755 47.2702 32.2456 47.8759 30.6613C48.5033 29.1081 49.3037 26.9724 50.2772 24.2542C51.2507 21.5827 51.8564 19.812 52.0944 18.9422C52.3323 18.0724 52.527 17.2725 52.6785 16.5425C52.8515 15.7037 53.0679 14.9504 53.3275 14.2825C53.5871 13.6612 53.7601 13.1409 53.8467 12.7215C54.0414 12.2711 54.2036 11.8439 54.3334 11.4401C54.2901 11.3624 54.2577 11.2692 54.2361 11.1605C54.2144 11.0518 54.3118 10.8887 54.5281 10.6713C54.7444 10.4383 55.1663 10.3062 55.7936 10.2752C56.5075 10.2131 57.0051 10.2907 57.2863 10.5082C57.5676 10.7101 57.6649 10.9353 57.5784 11.1838L57.5135 11.5799C57.5567 11.9527 57.5784 12.3487 57.5784 12.7681C57.6216 13.2185 57.6865 14.2514 57.7731 15.8668C57.8163 17.4511 57.8812 18.7558 57.9678 19.7809C58.0759 20.8061 58.1949 21.8234 58.3247 22.833C58.4545 23.8892 58.5843 24.9532 58.7141 26.0249C58.8006 27.0811 58.9088 28.1839 59.0386 29.3333C59.1684 30.4671 59.3523 31.9272 59.5903 33.7134C59.8498 35.4996 60.0445 36.7422 60.1743 37.4411C60.3041 38.1401 60.4339 38.7924 60.5637 39.3982C60.7584 40.035 60.8991 40.6019 60.9856 41.099C61.0721 41.5494 61.2236 42.1086 61.4399 42.7765C61.6129 43.4444 61.7427 43.9103 61.8293 44.1744C61.9158 44.485 62.0023 44.7957 62.0889 45.1063L62.1538 45.549C62.2619 45.8286 62.1862 46.0926 61.9266 46.3411C61.6887 46.6052 61.3642 46.7605 60.9531 46.8071C60.5637 46.8537 60.1852 46.7916 59.8174 46.6207C59.4713 46.4498 59.2766 46.2169 59.2333 45.9217L59.1035 45.4558C59.0602 45.1607 58.9953 44.8889 58.9088 44.6403C58.8223 44.3608 58.6925 43.887 58.5194 43.2191C58.3031 42.5046 58.1192 41.8989 57.9678 41.4019C57.8812 40.9204 57.7731 40.3767 57.6433 39.771C57.4702 39.1341 57.3188 38.4507 57.189 37.7207C57.0592 36.9907 56.8537 35.717 56.5724 33.8998C56.5292 33.5581 56.4859 33.2241 56.4426 32.8979H56.0532C55.6638 32.929 55.0257 32.9445 54.1387 32.9445C53.3383 32.9445 52.8083 32.9445 52.5487 32.9445C52.1809 32.9756 51.7591 33.0067 51.2831 33.0377C50.7856 33.0377 50.407 33.0533 50.1474 33.0843H50.0825C49.7147 34.0163 49.3794 34.9094 49.0766 35.7636C48.6006 37.1926 48.222 38.4507 47.9408 39.538C47.6812 40.6563 47.4649 41.5805 47.2918 42.3105C47.0755 43.0094 46.9349 43.6618 46.87 44.2676L46.7402 45.2694C46.6969 45.549 46.5238 45.7897 46.221 45.9916C45.9181 46.2091 45.5504 46.3023 45.1177 46.2712C44.7067 46.2402 44.3605 46.1081 44.0793 45.8752C43.8197 45.6577 43.7115 45.3859 43.7548 45.0597ZM50.8613 30.8943C50.9478 30.8943 51.0127 30.8943 51.056 30.8943C51.5535 30.8632 51.9321 30.8477 52.1917 30.8477C52.6028 30.8166 53.2517 30.8011 54.1387 30.8011C54.9824 30.8011 55.5773 30.7855 55.9234 30.7545H56.183C56.1398 30.304 56.0965 29.8924 56.0532 29.5197C55.9234 28.3703 55.8153 27.252 55.7287 26.1647C55.5989 25.124 55.4908 24.0756 55.4042 23.0194C55.2528 21.9787 55.1338 20.9459 55.0473 19.9207C55.004 19.7654 54.9824 19.6101 54.9824 19.4548C54.7228 20.4022 54.1063 22.1807 53.1328 24.7901C52.2458 27.3374 51.4886 29.3721 50.8613 30.8943Z"/>
<path d="M66.4371 13.1409C66.1775 12.9234 66.0802 12.6672 66.1451 12.372C66.21 12.0614 66.3939 11.8129 66.6967 11.6265L67.4431 11.2304C68.0488 10.8576 68.7302 10.5936 69.4874 10.4383C70.2013 10.2985 70.7746 10.2441 71.2072 10.2752C71.7481 10.3062 72.4403 10.4849 73.284 10.811C74.1277 11.1528 74.7443 11.5333 75.1336 11.9527C75.4365 12.3099 75.6961 12.6904 75.9124 13.0943C76.1504 13.4826 76.3992 14.1039 76.6588 14.9582C76.94 15.7814 77.1023 16.4182 77.1455 16.8686C77.2321 17.288 77.2753 17.9404 77.2753 18.8257C77.2753 19.711 77.2104 20.3945 77.0806 20.876C76.9725 21.3575 76.7669 22.0098 76.4641 22.833C76.1612 23.6562 75.9124 24.2542 75.7177 24.627C75.5447 24.9842 75.35 25.357 75.1336 25.7453C74.9173 26.1336 74.6036 26.6462 74.1926 27.283C73.8032 27.9043 73.5003 28.347 73.284 28.611C73.0677 28.8285 72.754 29.1158 72.343 29.4731C72.0401 29.7837 71.8022 30.0322 71.6291 30.2186C71.4344 30.3895 71.2505 30.5681 71.0774 30.7545C71.2938 31.0341 71.6074 31.3369 72.0185 31.6631C72.6458 32.1757 73.0785 32.5485 73.3165 32.7814C73.5544 33.0144 73.9006 33.4027 74.3549 33.9464C74.8308 34.4589 75.1769 34.8705 75.3932 35.1812C75.6312 35.4763 75.9233 35.9112 76.2694 36.4859C76.6155 37.0917 76.9508 37.6819 77.2753 38.2566C77.5782 38.8934 77.7729 39.3516 77.8594 39.6312C77.9892 39.8797 78.1515 40.2835 78.3462 40.8427C78.5625 41.4019 78.7139 41.7979 78.8005 42.0309C78.887 42.2484 79.0168 42.6056 79.1899 43.1026C79.4062 43.6463 79.5576 44.1433 79.6442 44.5937C79.6874 44.9354 79.7415 45.2228 79.8064 45.4558L79.9362 45.8286C80.066 46.1237 80.0119 46.3955 79.774 46.644C79.5576 46.8925 79.2439 47.0478 78.8329 47.11C78.4435 47.1876 78.0758 47.1488 77.7296 46.9935C77.3835 46.8537 77.1672 46.644 77.0806 46.3644L76.9184 45.9217C76.7886 45.6111 76.7021 45.2461 76.6588 44.8267C76.6155 44.5161 76.5074 44.1511 76.3343 43.7317C76.118 43.2191 75.9665 42.8386 75.88 42.5901C75.7935 42.3726 75.6528 41.9766 75.4581 41.4019C75.2851 40.9204 75.1336 40.5243 75.0038 40.2136C74.9173 39.9496 74.7443 39.5457 74.4847 39.0021C74.1602 38.4274 73.8248 37.876 73.4787 37.3479C73.1759 36.8043 72.9271 36.416 72.7324 36.183C72.5593 35.9345 72.2564 35.5773 71.8238 35.1113C71.4128 34.6298 71.0991 34.2881 70.8827 34.0862C70.6664 33.8687 70.2878 33.5348 69.747 33.0843C69.5307 32.8669 69.3143 32.6805 69.098 32.5252C69.098 32.6805 69.098 32.8203 69.098 32.9445C69.0115 34.0939 68.9466 35.352 68.9033 36.7189C68.86 38.0857 68.7951 39.2506 68.7086 40.2136C68.6004 41.13 68.5464 41.7746 68.5464 42.1474C68.5031 42.5668 68.4815 43.0483 68.4815 43.5919C68.4815 44.0734 68.5031 44.485 68.5464 44.8267L68.7086 45.4558C68.7519 45.7354 68.6437 45.9916 68.3841 46.2246C68.1462 46.4731 67.8217 46.6129 67.4106 46.644C67.0212 46.6751 66.6535 46.6052 66.3073 46.4343C65.9828 46.2635 65.7773 46.0305 65.6908 45.7354L65.6259 45.1063C65.5394 44.6714 65.4961 44.1511 65.4961 43.5453C65.4961 43.0017 65.5177 42.5202 65.561 42.1008C65.561 41.697 65.6043 41.0135 65.6908 40.0505C65.7773 39.1341 65.8422 38.0081 65.8855 36.6723C65.9504 35.3054 66.0261 34.0318 66.1126 32.8513C66.1992 31.702 66.2533 30.2885 66.2749 28.611C66.2965 26.918 66.2857 25.6754 66.2424 24.8833C66.1992 24.0601 66.2316 22.8253 66.3398 21.1788C66.4479 19.5169 66.5777 18.0646 66.7292 16.822C66.8806 15.5795 66.9996 14.7562 67.0861 14.3524C67.1294 14.0573 67.1727 13.7855 67.2159 13.537C66.9131 13.4748 66.6535 13.3428 66.4371 13.1409ZM69.2278 28.9372C69.4441 28.7198 69.7037 28.4635 70.0066 28.1684C70.3311 27.8577 70.5799 27.6092 70.7529 27.4228C70.8827 27.252 71.1315 26.9025 71.4993 26.3744C71.8887 25.7997 72.1699 25.3337 72.343 24.9765C72.516 24.6037 72.6891 24.262 72.8622 23.9513C73.0569 23.6252 73.284 23.0582 73.5436 22.2506C73.8465 21.5205 74.0412 20.9536 74.1277 20.5498C74.2359 20.1925 74.29 19.6178 74.29 18.8257C74.29 18.0025 74.2575 17.4123 74.1926 17.055C74.1493 16.7133 73.9979 16.1619 73.7383 15.4008C73.522 14.6553 73.3381 14.1505 73.1867 13.8864C73.0352 13.6224 72.8405 13.3739 72.6026 13.1409C72.516 13.0166 72.2564 12.8768 71.8238 12.7215C71.456 12.5662 71.1856 12.473 71.0125 12.4419C70.8395 12.4419 70.6231 12.4575 70.3635 12.4885C70.3635 12.5817 70.3635 12.6594 70.3635 12.7215L70.2986 13.3506C70.2121 13.7544 70.1148 14.166 70.0066 14.5854C69.9633 14.9582 69.8552 15.7658 69.6821 17.0084C69.509 18.2199 69.3792 19.6334 69.2927 21.2487C69.2062 22.8486 69.1845 24.0445 69.2278 24.8367C69.2711 25.6599 69.2711 26.9335 69.2278 28.6576C69.2278 28.7508 69.2278 28.844 69.2278 28.9372Z"/>
<path d="M84.8686 11.0906H85.2904C85.55 11.0906 86.0367 11.0596 86.7506 10.9974C87.5943 10.9664 88.2541 10.9508 88.7301 10.9508C89.2276 10.9508 89.7144 10.9353 90.1903 10.9042C90.7744 10.8732 91.4234 10.8576 92.1373 10.8576C92.743 10.8887 93.2947 10.912 93.7922 10.9275C94.3114 10.9431 94.7982 10.9664 95.2525 10.9974C95.5986 10.9974 95.9014 10.9974 96.161 10.9974L96.7127 10.9508C97.1021 10.9198 97.4482 11.0052 97.7511 11.2071C98.0756 11.3935 98.2595 11.642 98.3027 11.9527C98.346 12.2478 98.227 12.5041 97.9458 12.7215C97.6862 12.939 97.3617 13.0632 96.9723 13.0943L96.4531 13.1409C95.9988 13.1409 95.5121 13.1409 94.9929 13.1409C94.5818 13.1098 94.1383 13.0788 93.6624 13.0477C93.2081 13.0477 92.743 13.0322 92.2671 13.0011C92.3969 13.4205 92.4402 13.902 92.3969 14.4456C92.3969 14.8805 92.3969 15.261 92.3969 15.5872V16.6356C92.3969 16.9774 92.3752 17.5909 92.332 18.4762C92.2887 19.346 92.2671 20.0372 92.2671 20.5498C92.2238 20.9847 92.1806 21.505 92.1373 22.1108C92.1373 22.6233 92.1373 23.4232 92.1373 24.5105C92.1373 25.5822 92.1373 26.4054 92.1373 26.9801C92.1373 27.5548 92.1589 28.0829 92.2022 28.5644C92.2022 29.077 92.2022 29.5663 92.2022 30.0322C92.2022 30.5137 92.1806 31.1972 92.1373 32.0825C92.1373 32.9523 92.1373 33.5736 92.1373 33.9464V35.717C92.1373 36.4781 92.1373 37.0373 92.1373 37.3945C92.1373 37.7673 92.1373 38.1323 92.1373 38.4896C92.1373 38.7691 92.0832 39.2118 91.975 39.8176C91.9318 40.3301 91.9101 40.6796 91.9101 40.866C91.9101 40.866 91.9101 41.1067 91.9101 41.5882C91.9101 41.8678 91.8885 42.2639 91.8452 42.7765C91.7587 43.289 91.6938 43.7162 91.6505 44.0579C91.6073 44.3841 91.5856 44.6559 91.5856 44.8733V45.9217C91.5856 46.2169 91.4234 46.4654 91.0989 46.6673C90.796 46.8692 90.4499 46.9702 90.0605 46.9702C89.6711 46.9702 89.325 46.8692 89.0221 46.6673C88.7409 46.4654 88.6003 46.2169 88.6003 45.9217V44.8733C88.6003 44.5627 88.6219 44.2132 88.6652 43.8249C88.7084 43.5142 88.7733 43.1026 88.8599 42.5901C88.9031 42.1396 88.9248 41.8057 88.9248 41.5882V40.866C88.9248 40.6175 88.9464 40.2059 88.9897 39.6312C89.0762 39.1186 89.1195 38.707 89.1195 38.3964C89.1195 38.0702 89.1195 37.7518 89.1195 37.4411C89.1195 37.0528 89.1195 36.4781 89.1195 35.717V33.9464C89.1195 33.5736 89.1195 32.9368 89.1195 32.0359C89.1627 31.1816 89.1844 30.5293 89.1844 30.0788C89.1844 29.6129 89.1844 29.1236 89.1844 28.611C89.1411 27.6791 89.1195 27.151 89.1195 27.0267C89.1195 26.452 89.1195 25.6133 89.1195 24.5105C89.1195 23.3611 89.1195 22.5301 89.1195 22.0176C89.1627 21.8001 89.1952 21.5128 89.2168 21.1555C89.2384 20.7828 89.2493 20.5498 89.2493 20.4566C89.2493 19.9751 89.2709 19.2994 89.3142 18.4296C89.3791 17.5443 89.4115 16.9463 89.4115 16.6356V15.5872C89.4115 15.23 89.4115 14.8184 89.4115 14.3524C89.4548 14.0262 89.4331 13.7855 89.3466 13.6302L89.1844 13.1875C89.1411 13.1564 89.1195 13.1254 89.1195 13.0943C89.0329 13.0943 88.9464 13.0943 88.8599 13.0943C88.3839 13.0943 87.7674 13.1098 87.0102 13.1409C86.1665 13.203 85.5933 13.2341 85.2904 13.2341H84.8686C84.4359 13.2341 84.0681 13.1254 83.7653 12.9079C83.484 12.6904 83.3434 12.4419 83.3434 12.1624C83.3434 11.8672 83.484 11.6187 83.7653 11.4168C84.0681 11.1994 84.4359 11.0906 84.8686 11.0906Z"/>
</mask>
<path d="M11.3376 10.415H11.4998C16.0644 10.6014 18.7685 11.642 19.6122 13.537V14.0029C19.6122 14.4378 19.2661 14.7795 18.5738 15.0281H18.1196C17.7518 15.0281 16.8973 14.5699 15.556 13.6534C14.4744 13.1875 13.2737 12.9545 11.9541 12.9545C8.62261 12.9545 6.51338 15.1445 5.62642 19.5246C5.62642 19.8819 5.57234 20.1149 5.46417 20.2236C5.46417 23.4232 7.72484 25.7298 12.2462 27.1432C18.8659 30.4516 22.1758 33.9541 22.1758 37.6508C22.1758 42.5435 19.4716 45.8907 14.0633 47.6924C13.0033 47.9254 11.9433 48.0419 10.8833 48.0419C5.17213 48.0419 2.31656 44.1977 2.31656 36.5092C2.31656 34.3502 2.92228 33.2707 4.13374 33.2707C4.52313 33.2707 4.92335 33.7289 5.33438 34.6453L5.17213 35.2278V35.3443C5.17213 36.1675 5.11804 36.8198 5.00988 37.3013C5.00988 42.8464 7.17319 45.6189 11.4998 45.6189C14.2905 45.6189 16.5944 44.2753 18.4116 41.5882C19.0173 40.2525 19.3202 39.0565 19.3202 38.0003V37.6508C19.3202 34.2958 15.3072 31.104 7.28136 28.0752C4.27435 26.1647 2.77085 23.7417 2.77085 20.8061C2.77085 17.6219 4.02557 14.7718 6.53501 12.2555C7.833 11.0285 9.43385 10.415 11.3376 10.415Z" fill="black"/>
<path d="M26.9783 11.0906H27.4002C27.6598 11.0906 28.1465 11.0596 28.8604 10.9974C29.7041 10.9664 30.3639 10.9508 30.8398 10.9508C31.3374 10.9508 31.8241 10.9353 32.3001 10.9042C32.8842 10.8732 33.5332 10.8576 34.247 10.8576C34.8528 10.8887 35.4044 10.912 35.902 10.9275C36.4212 10.9431 36.9079 10.9664 37.3622 10.9974C37.7083 10.9974 38.0112 10.9974 38.2708 10.9974L38.8225 10.9508C39.2118 10.9198 39.558 11.0052 39.8608 11.2071C40.1853 11.3935 40.3692 11.642 40.4125 11.9527C40.4558 12.2478 40.3368 12.5041 40.0555 12.7215C39.7959 12.939 39.4714 13.0632 39.0821 13.0943L38.5629 13.1409C38.1086 13.1409 37.6218 13.1409 37.1026 13.1409C36.6916 13.1098 36.2481 13.0788 35.7722 13.0477C35.3179 13.0477 34.8528 13.0322 34.3768 13.0011C34.5066 13.4205 34.5499 13.902 34.5066 14.4456C34.5066 14.8805 34.5066 15.261 34.5066 15.5872V16.6356C34.5066 16.9774 34.485 17.5909 34.4417 18.4762C34.3985 19.346 34.3768 20.0372 34.3768 20.5498C34.3336 20.9847 34.2903 21.505 34.247 22.1108C34.247 22.6233 34.247 23.4232 34.247 24.5105C34.247 25.5822 34.247 26.4054 34.247 26.9801C34.247 27.5548 34.2687 28.0829 34.3119 28.5644C34.3119 29.077 34.3119 29.5663 34.3119 30.0322C34.3119 30.5137 34.2903 31.1972 34.247 32.0825C34.247 32.9523 34.247 33.5736 34.247 33.9464V35.717C34.247 36.4781 34.247 37.0373 34.247 37.3945C34.247 37.7673 34.247 38.1323 34.247 38.4896C34.247 38.7691 34.193 39.2118 34.0848 39.8176C34.0415 40.3301 34.0199 40.6796 34.0199 40.866C34.0199 40.866 34.0199 41.1067 34.0199 41.5882C34.0199 41.8678 33.9983 42.2639 33.955 42.7765C33.8685 43.289 33.8036 43.7162 33.7603 44.0579C33.717 44.3841 33.6954 44.6559 33.6954 44.8733V45.9217C33.6954 46.2169 33.5332 46.4654 33.2087 46.6673C32.9058 46.8692 32.5597 46.9702 32.1703 46.9702C31.7809 46.9702 31.4347 46.8692 31.1319 46.6673C30.8506 46.4654 30.71 46.2169 30.71 45.9217V44.8733C30.71 44.5627 30.7317 44.2132 30.7749 43.8249C30.8182 43.5142 30.8831 43.1026 30.9696 42.5901C31.0129 42.1396 31.0345 41.8057 31.0345 41.5882V40.866C31.0345 40.6175 31.0562 40.2059 31.0994 39.6312C31.186 39.1186 31.2292 38.707 31.2292 38.3964C31.2292 38.0702 31.2292 37.7518 31.2292 37.4411C31.2292 37.0528 31.2292 36.4781 31.2292 35.717V33.9464C31.2292 33.5736 31.2292 32.9368 31.2292 32.0359C31.2725 31.1816 31.2941 30.5293 31.2941 30.0788C31.2941 29.6129 31.2941 29.1236 31.2941 28.611C31.2509 27.6791 31.2292 27.151 31.2292 27.0267C31.2292 26.452 31.2292 25.6133 31.2292 24.5105C31.2292 23.3611 31.2292 22.5301 31.2292 22.0176C31.2725 21.8001 31.3049 21.5128 31.3266 21.1555C31.3482 20.7828 31.359 20.5498 31.359 20.4566C31.359 19.9751 31.3807 19.2994 31.4239 18.4296C31.4888 17.5443 31.5213 16.9463 31.5213 16.6356V15.5872C31.5213 15.23 31.5213 14.8184 31.5213 14.3524C31.5645 14.0262 31.5429 13.7855 31.4564 13.6302L31.2941 13.1875C31.2509 13.1564 31.2292 13.1254 31.2292 13.0943C31.1427 13.0943 31.0562 13.0943 30.9696 13.0943C30.4937 13.0943 29.8772 13.1098 29.12 13.1409C28.2763 13.203 27.703 13.2341 27.4002 13.2341H26.9783C26.5457 13.2341 26.1779 13.1254 25.875 12.9079C25.5938 12.6904 25.4532 12.4419 25.4532 12.1624C25.4532 11.8672 25.5938 11.6187 25.875 11.4168C26.1779 11.1994 26.5457 11.0906 26.9783 11.0906Z" fill="black"/>
<path d="M43.7548 45.0597L43.8846 44.1045C43.9711 43.3745 44.1118 42.6444 44.3064 41.9144C44.5228 41.1844 44.7607 40.2602 45.0203 39.1419C45.2799 38.0081 45.6693 36.7111 46.1885 35.2511C46.7077 33.7755 47.2702 32.2456 47.8759 30.6613C48.5033 29.1081 49.3037 26.9724 50.2772 24.2542C51.2507 21.5827 51.8564 19.812 52.0944 18.9422C52.3323 18.0724 52.527 17.2725 52.6785 16.5425C52.8515 15.7037 53.0679 14.9504 53.3275 14.2825C53.5871 13.6612 53.7601 13.1409 53.8467 12.7215C54.0414 12.2711 54.2036 11.8439 54.3334 11.4401C54.2901 11.3624 54.2577 11.2692 54.2361 11.1605C54.2144 11.0518 54.3118 10.8887 54.5281 10.6713C54.7444 10.4383 55.1663 10.3062 55.7936 10.2752C56.5075 10.2131 57.0051 10.2907 57.2863 10.5082C57.5676 10.7101 57.6649 10.9353 57.5784 11.1838L57.5135 11.5799C57.5567 11.9527 57.5784 12.3487 57.5784 12.7681C57.6216 13.2185 57.6865 14.2514 57.7731 15.8668C57.8163 17.4511 57.8812 18.7558 57.9678 19.7809C58.0759 20.8061 58.1949 21.8234 58.3247 22.833C58.4545 23.8892 58.5843 24.9532 58.7141 26.0249C58.8006 27.0811 58.9088 28.1839 59.0386 29.3333C59.1684 30.4671 59.3523 31.9272 59.5903 33.7134C59.8498 35.4996 60.0445 36.7422 60.1743 37.4411C60.3041 38.1401 60.4339 38.7924 60.5637 39.3982C60.7584 40.035 60.8991 40.6019 60.9856 41.099C61.0721 41.5494 61.2236 42.1086 61.4399 42.7765C61.6129 43.4444 61.7427 43.9103 61.8293 44.1744C61.9158 44.485 62.0023 44.7957 62.0889 45.1063L62.1538 45.549C62.2619 45.8286 62.1862 46.0926 61.9266 46.3411C61.6887 46.6052 61.3642 46.7605 60.9531 46.8071C60.5637 46.8537 60.1852 46.7916 59.8174 46.6207C59.4713 46.4498 59.2766 46.2169 59.2333 45.9217L59.1035 45.4558C59.0602 45.1607 58.9953 44.8889 58.9088 44.6403C58.8223 44.3608 58.6925 43.887 58.5194 43.2191C58.3031 42.5046 58.1192 41.8989 57.9678 41.4019C57.8812 40.9204 57.7731 40.3767 57.6433 39.771C57.4702 39.1341 57.3188 38.4507 57.189 37.7207C57.0592 36.9907 56.8537 35.717 56.5724 33.8998C56.5292 33.5581 56.4859 33.2241 56.4426 32.8979H56.0532C55.6638 32.929 55.0257 32.9445 54.1387 32.9445C53.3383 32.9445 52.8083 32.9445 52.5487 32.9445C52.1809 32.9756 51.7591 33.0067 51.2831 33.0377C50.7856 33.0377 50.407 33.0533 50.1474 33.0843H50.0825C49.7147 34.0163 49.3794 34.9094 49.0766 35.7636C48.6006 37.1926 48.222 38.4507 47.9408 39.538C47.6812 40.6563 47.4649 41.5805 47.2918 42.3105C47.0755 43.0094 46.9349 43.6618 46.87 44.2676L46.7402 45.2694C46.6969 45.549 46.5238 45.7897 46.221 45.9916C45.9181 46.2091 45.5504 46.3023 45.1177 46.2712C44.7067 46.2402 44.3605 46.1081 44.0793 45.8752C43.8197 45.6577 43.7115 45.3859 43.7548 45.0597ZM50.8613 30.8943C50.9478 30.8943 51.0127 30.8943 51.056 30.8943C51.5535 30.8632 51.9321 30.8477 52.1917 30.8477C52.6028 30.8166 53.2517 30.8011 54.1387 30.8011C54.9824 30.8011 55.5773 30.7855 55.9234 30.7545H56.183C56.1398 30.304 56.0965 29.8924 56.0532 29.5197C55.9234 28.3703 55.8153 27.252 55.7287 26.1647C55.5989 25.124 55.4908 24.0756 55.4042 23.0194C55.2528 21.9787 55.1338 20.9459 55.0473 19.9207C55.004 19.7654 54.9824 19.6101 54.9824 19.4548C54.7228 20.4022 54.1063 22.1807 53.1328 24.7901C52.2458 27.3374 51.4886 29.3721 50.8613 30.8943Z" fill="black"/>
<path d="M66.4371 13.1409C66.1775 12.9234 66.0802 12.6672 66.1451 12.372C66.21 12.0614 66.3939 11.8129 66.6967 11.6265L67.4431 11.2304C68.0488 10.8576 68.7302 10.5936 69.4874 10.4383C70.2013 10.2985 70.7746 10.2441 71.2072 10.2752C71.7481 10.3062 72.4403 10.4849 73.284 10.811C74.1277 11.1528 74.7443 11.5333 75.1336 11.9527C75.4365 12.3099 75.6961 12.6904 75.9124 13.0943C76.1504 13.4826 76.3992 14.1039 76.6588 14.9582C76.94 15.7814 77.1023 16.4182 77.1455 16.8686C77.2321 17.288 77.2753 17.9404 77.2753 18.8257C77.2753 19.711 77.2104 20.3945 77.0806 20.876C76.9725 21.3575 76.7669 22.0098 76.4641 22.833C76.1612 23.6562 75.9124 24.2542 75.7177 24.627C75.5447 24.9842 75.35 25.357 75.1336 25.7453C74.9173 26.1336 74.6036 26.6462 74.1926 27.283C73.8032 27.9043 73.5003 28.347 73.284 28.611C73.0677 28.8285 72.754 29.1158 72.343 29.4731C72.0401 29.7837 71.8022 30.0322 71.6291 30.2186C71.4344 30.3895 71.2505 30.5681 71.0774 30.7545C71.2938 31.0341 71.6074 31.3369 72.0185 31.6631C72.6458 32.1757 73.0785 32.5485 73.3165 32.7814C73.5544 33.0144 73.9006 33.4027 74.3549 33.9464C74.8308 34.4589 75.1769 34.8705 75.3932 35.1812C75.6312 35.4763 75.9233 35.9112 76.2694 36.4859C76.6155 37.0917 76.9508 37.6819 77.2753 38.2566C77.5782 38.8934 77.7729 39.3516 77.8594 39.6312C77.9892 39.8797 78.1515 40.2835 78.3462 40.8427C78.5625 41.4019 78.7139 41.7979 78.8005 42.0309C78.887 42.2484 79.0168 42.6056 79.1899 43.1026C79.4062 43.6463 79.5576 44.1433 79.6442 44.5937C79.6874 44.9354 79.7415 45.2228 79.8064 45.4558L79.9362 45.8286C80.066 46.1237 80.0119 46.3955 79.774 46.644C79.5576 46.8925 79.2439 47.0478 78.8329 47.11C78.4435 47.1876 78.0758 47.1488 77.7296 46.9935C77.3835 46.8537 77.1672 46.644 77.0806 46.3644L76.9184 45.9217C76.7886 45.6111 76.7021 45.2461 76.6588 44.8267C76.6155 44.5161 76.5074 44.1511 76.3343 43.7317C76.118 43.2191 75.9665 42.8386 75.88 42.5901C75.7935 42.3726 75.6528 41.9766 75.4581 41.4019C75.2851 40.9204 75.1336 40.5243 75.0038 40.2136C74.9173 39.9496 74.7443 39.5457 74.4847 39.0021C74.1602 38.4274 73.8248 37.876 73.4787 37.3479C73.1759 36.8043 72.9271 36.416 72.7324 36.183C72.5593 35.9345 72.2564 35.5773 71.8238 35.1113C71.4128 34.6298 71.0991 34.2881 70.8827 34.0862C70.6664 33.8687 70.2878 33.5348 69.747 33.0843C69.5307 32.8669 69.3143 32.6805 69.098 32.5252C69.098 32.6805 69.098 32.8203 69.098 32.9445C69.0115 34.0939 68.9466 35.352 68.9033 36.7189C68.86 38.0857 68.7951 39.2506 68.7086 40.2136C68.6004 41.13 68.5464 41.7746 68.5464 42.1474C68.5031 42.5668 68.4815 43.0483 68.4815 43.5919C68.4815 44.0734 68.5031 44.485 68.5464 44.8267L68.7086 45.4558C68.7519 45.7354 68.6437 45.9916 68.3841 46.2246C68.1462 46.4731 67.8217 46.6129 67.4106 46.644C67.0212 46.6751 66.6535 46.6052 66.3073 46.4343C65.9828 46.2635 65.7773 46.0305 65.6908 45.7354L65.6259 45.1063C65.5394 44.6714 65.4961 44.1511 65.4961 43.5453C65.4961 43.0017 65.5177 42.5202 65.561 42.1008C65.561 41.697 65.6043 41.0135 65.6908 40.0505C65.7773 39.1341 65.8422 38.0081 65.8855 36.6723C65.9504 35.3054 66.0261 34.0318 66.1126 32.8513C66.1992 31.702 66.2533 30.2885 66.2749 28.611C66.2965 26.918 66.2857 25.6754 66.2424 24.8833C66.1992 24.0601 66.2316 22.8253 66.3398 21.1788C66.4479 19.5169 66.5777 18.0646 66.7292 16.822C66.8806 15.5795 66.9996 14.7562 67.0861 14.3524C67.1294 14.0573 67.1727 13.7855 67.2159 13.537C66.9131 13.4748 66.6535 13.3428 66.4371 13.1409ZM69.2278 28.9372C69.4441 28.7198 69.7037 28.4635 70.0066 28.1684C70.3311 27.8577 70.5799 27.6092 70.7529 27.4228C70.8827 27.252 71.1315 26.9025 71.4993 26.3744C71.8887 25.7997 72.1699 25.3337 72.343 24.9765C72.516 24.6037 72.6891 24.262 72.8622 23.9513C73.0569 23.6252 73.284 23.0582 73.5436 22.2506C73.8465 21.5205 74.0412 20.9536 74.1277 20.5498C74.2359 20.1925 74.29 19.6178 74.29 18.8257C74.29 18.0025 74.2575 17.4123 74.1926 17.055C74.1493 16.7133 73.9979 16.1619 73.7383 15.4008C73.522 14.6553 73.3381 14.1505 73.1867 13.8864C73.0352 13.6224 72.8405 13.3739 72.6026 13.1409C72.516 13.0166 72.2564 12.8768 71.8238 12.7215C71.456 12.5662 71.1856 12.473 71.0125 12.4419C70.8395 12.4419 70.6231 12.4575 70.3635 12.4885C70.3635 12.5817 70.3635 12.6594 70.3635 12.7215L70.2986 13.3506C70.2121 13.7544 70.1148 14.166 70.0066 14.5854C69.9633 14.9582 69.8552 15.7658 69.6821 17.0084C69.509 18.2199 69.3792 19.6334 69.2927 21.2487C69.2062 22.8486 69.1845 24.0445 69.2278 24.8367C69.2711 25.6599 69.2711 26.9335 69.2278 28.6576C69.2278 28.7508 69.2278 28.844 69.2278 28.9372Z" fill="black"/>
<path d="M84.8686 11.0906H85.2904C85.55 11.0906 86.0367 11.0596 86.7506 10.9974C87.5943 10.9664 88.2541 10.9508 88.7301 10.9508C89.2276 10.9508 89.7144 10.9353 90.1903 10.9042C90.7744 10.8732 91.4234 10.8576 92.1373 10.8576C92.743 10.8887 93.2947 10.912 93.7922 10.9275C94.3114 10.9431 94.7982 10.9664 95.2525 10.9974C95.5986 10.9974 95.9014 10.9974 96.161 10.9974L96.7127 10.9508C97.1021 10.9198 97.4482 11.0052 97.7511 11.2071C98.0756 11.3935 98.2595 11.642 98.3027 11.9527C98.346 12.2478 98.227 12.5041 97.9458 12.7215C97.6862 12.939 97.3617 13.0632 96.9723 13.0943L96.4531 13.1409C95.9988 13.1409 95.5121 13.1409 94.9929 13.1409C94.5818 13.1098 94.1383 13.0788 93.6624 13.0477C93.2081 13.0477 92.743 13.0322 92.2671 13.0011C92.3969 13.4205 92.4402 13.902 92.3969 14.4456C92.3969 14.8805 92.3969 15.261 92.3969 15.5872V16.6356C92.3969 16.9774 92.3752 17.5909 92.332 18.4762C92.2887 19.346 92.2671 20.0372 92.2671 20.5498C92.2238 20.9847 92.1806 21.505 92.1373 22.1108C92.1373 22.6233 92.1373 23.4232 92.1373 24.5105C92.1373 25.5822 92.1373 26.4054 92.1373 26.9801C92.1373 27.5548 92.1589 28.0829 92.2022 28.5644C92.2022 29.077 92.2022 29.5663 92.2022 30.0322C92.2022 30.5137 92.1806 31.1972 92.1373 32.0825C92.1373 32.9523 92.1373 33.5736 92.1373 33.9464V35.717C92.1373 36.4781 92.1373 37.0373 92.1373 37.3945C92.1373 37.7673 92.1373 38.1323 92.1373 38.4896C92.1373 38.7691 92.0832 39.2118 91.975 39.8176C91.9318 40.3301 91.9101 40.6796 91.9101 40.866C91.9101 40.866 91.9101 41.1067 91.9101 41.5882C91.9101 41.8678 91.8885 42.2639 91.8452 42.7765C91.7587 43.289 91.6938 43.7162 91.6505 44.0579C91.6073 44.3841 91.5856 44.6559 91.5856 44.8733V45.9217C91.5856 46.2169 91.4234 46.4654 91.0989 46.6673C90.796 46.8692 90.4499 46.9702 90.0605 46.9702C89.6711 46.9702 89.325 46.8692 89.0221 46.6673C88.7409 46.4654 88.6003 46.2169 88.6003 45.9217V44.8733C88.6003 44.5627 88.6219 44.2132 88.6652 43.8249C88.7084 43.5142 88.7733 43.1026 88.8599 42.5901C88.9031 42.1396 88.9248 41.8057 88.9248 41.5882V40.866C88.9248 40.6175 88.9464 40.2059 88.9897 39.6312C89.0762 39.1186 89.1195 38.707 89.1195 38.3964C89.1195 38.0702 89.1195 37.7518 89.1195 37.4411C89.1195 37.0528 89.1195 36.4781 89.1195 35.717V33.9464C89.1195 33.5736 89.1195 32.9368 89.1195 32.0359C89.1627 31.1816 89.1844 30.5293 89.1844 30.0788C89.1844 29.6129 89.1844 29.1236 89.1844 28.611C89.1411 27.6791 89.1195 27.151 89.1195 27.0267C89.1195 26.452 89.1195 25.6133 89.1195 24.5105C89.1195 23.3611 89.1195 22.5301 89.1195 22.0176C89.1627 21.8001 89.1952 21.5128 89.2168 21.1555C89.2384 20.7828 89.2493 20.5498 89.2493 20.4566C89.2493 19.9751 89.2709 19.2994 89.3142 18.4296C89.3791 17.5443 89.4115 16.9463 89.4115 16.6356V15.5872C89.4115 15.23 89.4115 14.8184 89.4115 14.3524C89.4548 14.0262 89.4331 13.7855 89.3466 13.6302L89.1844 13.1875C89.1411 13.1564 89.1195 13.1254 89.1195 13.0943C89.0329 13.0943 88.9464 13.0943 88.8599 13.0943C88.3839 13.0943 87.7674 13.1098 87.0102 13.1409C86.1665 13.203 85.5933 13.2341 85.2904 13.2341H84.8686C84.4359 13.2341 84.0681 13.1254 83.7653 12.9079C83.484 12.6904 83.3434 12.4419 83.3434 12.1624C83.3434 11.8672 83.484 11.6187 83.7653 11.4168C84.0681 11.1994 84.4359 11.0906 84.8686 11.0906Z" fill="black"/>
<path d="M11.3376 10.415H11.4998C16.0644 10.6014 18.7685 11.642 19.6122 13.537V14.0029C19.6122 14.4378 19.2661 14.7795 18.5738 15.0281H18.1196C17.7518 15.0281 16.8973 14.5699 15.556 13.6534C14.4744 13.1875 13.2737 12.9545 11.9541 12.9545C8.62261 12.9545 6.51338 15.1445 5.62642 19.5246C5.62642 19.8819 5.57234 20.1149 5.46417 20.2236C5.46417 23.4232 7.72484 25.7298 12.2462 27.1432C18.8659 30.4516 22.1758 33.9541 22.1758 37.6508C22.1758 42.5435 19.4716 45.8907 14.0633 47.6924C13.0033 47.9254 11.9433 48.0419 10.8833 48.0419C5.17213 48.0419 2.31656 44.1977 2.31656 36.5092C2.31656 34.3502 2.92228 33.2707 4.13374 33.2707C4.52313 33.2707 4.92335 33.7289 5.33438 34.6453L5.17213 35.2278V35.3443C5.17213 36.1675 5.11804 36.8198 5.00988 37.3013C5.00988 42.8464 7.17319 45.6189 11.4998 45.6189C14.2905 45.6189 16.5944 44.2753 18.4116 41.5882C19.0173 40.2525 19.3202 39.0565 19.3202 38.0003V37.6508C19.3202 34.2958 15.3072 31.104 7.28136 28.0752C4.27435 26.1647 2.77085 23.7417 2.77085 20.8061C2.77085 17.6219 4.02557 14.7718 6.53501 12.2555C7.833 11.0285 9.43385 10.415 11.3376 10.415Z" stroke="white" stroke-width="3.2963" mask="url(#path-2-outside-1_3_169)"/>
<path d="M26.9783 11.0906H27.4002C27.6598 11.0906 28.1465 11.0596 28.8604 10.9974C29.7041 10.9664 30.3639 10.9508 30.8398 10.9508C31.3374 10.9508 31.8241 10.9353 32.3001 10.9042C32.8842 10.8732 33.5332 10.8576 34.247 10.8576C34.8528 10.8887 35.4044 10.912 35.902 10.9275C36.4212 10.9431 36.9079 10.9664 37.3622 10.9974C37.7083 10.9974 38.0112 10.9974 38.2708 10.9974L38.8225 10.9508C39.2118 10.9198 39.558 11.0052 39.8608 11.2071C40.1853 11.3935 40.3692 11.642 40.4125 11.9527C40.4558 12.2478 40.3368 12.5041 40.0555 12.7215C39.7959 12.939 39.4714 13.0632 39.0821 13.0943L38.5629 13.1409C38.1086 13.1409 37.6218 13.1409 37.1026 13.1409C36.6916 13.1098 36.2481 13.0788 35.7722 13.0477C35.3179 13.0477 34.8528 13.0322 34.3768 13.0011C34.5066 13.4205 34.5499 13.902 34.5066 14.4456C34.5066 14.8805 34.5066 15.261 34.5066 15.5872V16.6356C34.5066 16.9774 34.485 17.5909 34.4417 18.4762C34.3985 19.346 34.3768 20.0372 34.3768 20.5498C34.3336 20.9847 34.2903 21.505 34.247 22.1108C34.247 22.6233 34.247 23.4232 34.247 24.5105C34.247 25.5822 34.247 26.4054 34.247 26.9801C34.247 27.5548 34.2687 28.0829 34.3119 28.5644C34.3119 29.077 34.3119 29.5663 34.3119 30.0322C34.3119 30.5137 34.2903 31.1972 34.247 32.0825C34.247 32.9523 34.247 33.5736 34.247 33.9464V35.717C34.247 36.4781 34.247 37.0373 34.247 37.3945C34.247 37.7673 34.247 38.1323 34.247 38.4896C34.247 38.7691 34.193 39.2118 34.0848 39.8176C34.0415 40.3301 34.0199 40.6796 34.0199 40.866C34.0199 40.866 34.0199 41.1067 34.0199 41.5882C34.0199 41.8678 33.9983 42.2639 33.955 42.7765C33.8685 43.289 33.8036 43.7162 33.7603 44.0579C33.717 44.3841 33.6954 44.6559 33.6954 44.8733V45.9217C33.6954 46.2169 33.5332 46.4654 33.2087 46.6673C32.9058 46.8692 32.5597 46.9702 32.1703 46.9702C31.7809 46.9702 31.4347 46.8692 31.1319 46.6673C30.8506 46.4654 30.71 46.2169 30.71 45.9217V44.8733C30.71 44.5627 30.7317 44.2132 30.7749 43.8249C30.8182 43.5142 30.8831 43.1026 30.9696 42.5901C31.0129 42.1396 31.0345 41.8057 31.0345 41.5882V40.866C31.0345 40.6175 31.0562 40.2059 31.0994 39.6312C31.186 39.1186 31.2292 38.707 31.2292 38.3964C31.2292 38.0702 31.2292 37.7518 31.2292 37.4411C31.2292 37.0528 31.2292 36.4781 31.2292 35.717V33.9464C31.2292 33.5736 31.2292 32.9368 31.2292 32.0359C31.2725 31.1816 31.2941 30.5293 31.2941 30.0788C31.2941 29.6129 31.2941 29.1236 31.2941 28.611C31.2509 27.6791 31.2292 27.151 31.2292 27.0267C31.2292 26.452 31.2292 25.6133 31.2292 24.5105C31.2292 23.3611 31.2292 22.5301 31.2292 22.0176C31.2725 21.8001 31.3049 21.5128 31.3266 21.1555C31.3482 20.7828 31.359 20.5498 31.359 20.4566C31.359 19.9751 31.3807 19.2994 31.4239 18.4296C31.4888 17.5443 31.5213 16.9463 31.5213 16.6356V15.5872C31.5213 15.23 31.5213 14.8184 31.5213 14.3524C31.5645 14.0262 31.5429 13.7855 31.4564 13.6302L31.2941 13.1875C31.2509 13.1564 31.2292 13.1254 31.2292 13.0943C31.1427 13.0943 31.0562 13.0943 30.9696 13.0943C30.4937 13.0943 29.8772 13.1098 29.12 13.1409C28.2763 13.203 27.703 13.2341 27.4002 13.2341H26.9783C26.5457 13.2341 26.1779 13.1254 25.875 12.9079C25.5938 12.6904 25.4532 12.4419 25.4532 12.1624C25.4532 11.8672 25.5938 11.6187 25.875 11.4168C26.1779 11.1994 26.5457 11.0906 26.9783 11.0906Z" stroke="white" stroke-width="3.2963" mask="url(#path-2-outside-1_3_169)"/>
<path d="M43.7548 45.0597L43.8846 44.1045C43.9711 43.3745 44.1118 42.6444 44.3064 41.9144C44.5228 41.1844 44.7607 40.2602 45.0203 39.1419C45.2799 38.0081 45.6693 36.7111 46.1885 35.2511C46.7077 33.7755 47.2702 32.2456 47.8759 30.6613C48.5033 29.1081 49.3037 26.9724 50.2772 24.2542C51.2507 21.5827 51.8564 19.812 52.0944 18.9422C52.3323 18.0724 52.527 17.2725 52.6785 16.5425C52.8515 15.7037 53.0679 14.9504 53.3275 14.2825C53.5871 13.6612 53.7601 13.1409 53.8467 12.7215C54.0414 12.2711 54.2036 11.8439 54.3334 11.4401C54.2901 11.3624 54.2577 11.2692 54.2361 11.1605C54.2144 11.0518 54.3118 10.8887 54.5281 10.6713C54.7444 10.4383 55.1663 10.3062 55.7936 10.2752C56.5075 10.2131 57.0051 10.2907 57.2863 10.5082C57.5676 10.7101 57.6649 10.9353 57.5784 11.1838L57.5135 11.5799C57.5567 11.9527 57.5784 12.3487 57.5784 12.7681C57.6216 13.2185 57.6865 14.2514 57.7731 15.8668C57.8163 17.4511 57.8812 18.7558 57.9678 19.7809C58.0759 20.8061 58.1949 21.8234 58.3247 22.833C58.4545 23.8892 58.5843 24.9532 58.7141 26.0249C58.8006 27.0811 58.9088 28.1839 59.0386 29.3333C59.1684 30.4671 59.3523 31.9272 59.5903 33.7134C59.8498 35.4996 60.0445 36.7422 60.1743 37.4411C60.3041 38.1401 60.4339 38.7924 60.5637 39.3982C60.7584 40.035 60.8991 40.6019 60.9856 41.099C61.0721 41.5494 61.2236 42.1086 61.4399 42.7765C61.6129 43.4444 61.7427 43.9103 61.8293 44.1744C61.9158 44.485 62.0023 44.7957 62.0889 45.1063L62.1538 45.549C62.2619 45.8286 62.1862 46.0926 61.9266 46.3411C61.6887 46.6052 61.3642 46.7605 60.9531 46.8071C60.5637 46.8537 60.1852 46.7916 59.8174 46.6207C59.4713 46.4498 59.2766 46.2169 59.2333 45.9217L59.1035 45.4558C59.0602 45.1607 58.9953 44.8889 58.9088 44.6403C58.8223 44.3608 58.6925 43.887 58.5194 43.2191C58.3031 42.5046 58.1192 41.8989 57.9678 41.4019C57.8812 40.9204 57.7731 40.3767 57.6433 39.771C57.4702 39.1341 57.3188 38.4507 57.189 37.7207C57.0592 36.9907 56.8537 35.717 56.5724 33.8998C56.5292 33.5581 56.4859 33.2241 56.4426 32.8979H56.0532C55.6638 32.929 55.0257 32.9445 54.1387 32.9445C53.3383 32.9445 52.8083 32.9445 52.5487 32.9445C52.1809 32.9756 51.7591 33.0067 51.2831 33.0377C50.7856 33.0377 50.407 33.0533 50.1474 33.0843H50.0825C49.7147 34.0163 49.3794 34.9094 49.0766 35.7636C48.6006 37.1926 48.222 38.4507 47.9408 39.538C47.6812 40.6563 47.4649 41.5805 47.2918 42.3105C47.0755 43.0094 46.9349 43.6618 46.87 44.2676L46.7402 45.2694C46.6969 45.549 46.5238 45.7897 46.221 45.9916C45.9181 46.2091 45.5504 46.3023 45.1177 46.2712C44.7067 46.2402 44.3605 46.1081 44.0793 45.8752C43.8197 45.6577 43.7115 45.3859 43.7548 45.0597ZM50.8613 30.8943C50.9478 30.8943 51.0127 30.8943 51.056 30.8943C51.5535 30.8632 51.9321 30.8477 52.1917 30.8477C52.6028 30.8166 53.2517 30.8011 54.1387 30.8011C54.9824 30.8011 55.5773 30.7855 55.9234 30.7545H56.183C56.1398 30.304 56.0965 29.8924 56.0532 29.5197C55.9234 28.3703 55.8153 27.252 55.7287 26.1647C55.5989 25.124 55.4908 24.0756 55.4042 23.0194C55.2528 21.9787 55.1338 20.9459 55.0473 19.9207C55.004 19.7654 54.9824 19.6101 54.9824 19.4548C54.7228 20.4022 54.1063 22.1807 53.1328 24.7901C52.2458 27.3374 51.4886 29.3721 50.8613 30.8943Z" stroke="white" stroke-width="3.2963" mask="url(#path-2-outside-1_3_169)"/>
<path d="M66.4371 13.1409C66.1775 12.9234 66.0802 12.6672 66.1451 12.372C66.21 12.0614 66.3939 11.8129 66.6967 11.6265L67.4431 11.2304C68.0488 10.8576 68.7302 10.5936 69.4874 10.4383C70.2013 10.2985 70.7746 10.2441 71.2072 10.2752C71.7481 10.3062 72.4403 10.4849 73.284 10.811C74.1277 11.1528 74.7443 11.5333 75.1336 11.9527C75.4365 12.3099 75.6961 12.6904 75.9124 13.0943C76.1504 13.4826 76.3992 14.1039 76.6588 14.9582C76.94 15.7814 77.1023 16.4182 77.1455 16.8686C77.2321 17.288 77.2753 17.9404 77.2753 18.8257C77.2753 19.711 77.2104 20.3945 77.0806 20.876C76.9725 21.3575 76.7669 22.0098 76.4641 22.833C76.1612 23.6562 75.9124 24.2542 75.7177 24.627C75.5447 24.9842 75.35 25.357 75.1336 25.7453C74.9173 26.1336 74.6036 26.6462 74.1926 27.283C73.8032 27.9043 73.5003 28.347 73.284 28.611C73.0677 28.8285 72.754 29.1158 72.343 29.4731C72.0401 29.7837 71.8022 30.0322 71.6291 30.2186C71.4344 30.3895 71.2505 30.5681 71.0774 30.7545C71.2938 31.0341 71.6074 31.3369 72.0185 31.6631C72.6458 32.1757 73.0785 32.5485 73.3165 32.7814C73.5544 33.0144 73.9006 33.4027 74.3549 33.9464C74.8308 34.4589 75.1769 34.8705 75.3932 35.1812C75.6312 35.4763 75.9233 35.9112 76.2694 36.4859C76.6155 37.0917 76.9508 37.6819 77.2753 38.2566C77.5782 38.8934 77.7729 39.3516 77.8594 39.6312C77.9892 39.8797 78.1515 40.2835 78.3462 40.8427C78.5625 41.4019 78.7139 41.7979 78.8005 42.0309C78.887 42.2484 79.0168 42.6056 79.1899 43.1026C79.4062 43.6463 79.5576 44.1433 79.6442 44.5937C79.6874 44.9354 79.7415 45.2228 79.8064 45.4558L79.9362 45.8286C80.066 46.1237 80.0119 46.3955 79.774 46.644C79.5576 46.8925 79.2439 47.0478 78.8329 47.11C78.4435 47.1876 78.0758 47.1488 77.7296 46.9935C77.3835 46.8537 77.1672 46.644 77.0806 46.3644L76.9184 45.9217C76.7886 45.6111 76.7021 45.2461 76.6588 44.8267C76.6155 44.5161 76.5074 44.1511 76.3343 43.7317C76.118 43.2191 75.9665 42.8386 75.88 42.5901C75.7935 42.3726 75.6528 41.9766 75.4581 41.4019C75.2851 40.9204 75.1336 40.5243 75.0038 40.2136C74.9173 39.9496 74.7443 39.5457 74.4847 39.0021C74.1602 38.4274 73.8248 37.876 73.4787 37.3479C73.1759 36.8043 72.9271 36.416 72.7324 36.183C72.5593 35.9345 72.2564 35.5773 71.8238 35.1113C71.4128 34.6298 71.0991 34.2881 70.8827 34.0862C70.6664 33.8687 70.2878 33.5348 69.747 33.0843C69.5307 32.8669 69.3143 32.6805 69.098 32.5252C69.098 32.6805 69.098 32.8203 69.098 32.9445C69.0115 34.0939 68.9466 35.352 68.9033 36.7189C68.86 38.0857 68.7951 39.2506 68.7086 40.2136C68.6004 41.13 68.5464 41.7746 68.5464 42.1474C68.5031 42.5668 68.4815 43.0483 68.4815 43.5919C68.4815 44.0734 68.5031 44.485 68.5464 44.8267L68.7086 45.4558C68.7519 45.7354 68.6437 45.9916 68.3841 46.2246C68.1462 46.4731 67.8217 46.6129 67.4106 46.644C67.0212 46.6751 66.6535 46.6052 66.3073 46.4343C65.9828 46.2635 65.7773 46.0305 65.6908 45.7354L65.6259 45.1063C65.5394 44.6714 65.4961 44.1511 65.4961 43.5453C65.4961 43.0017 65.5177 42.5202 65.561 42.1008C65.561 41.697 65.6043 41.0135 65.6908 40.0505C65.7773 39.1341 65.8422 38.0081 65.8855 36.6723C65.9504 35.3054 66.0261 34.0318 66.1126 32.8513C66.1992 31.702 66.2533 30.2885 66.2749 28.611C66.2965 26.918 66.2857 25.6754 66.2424 24.8833C66.1992 24.0601 66.2316 22.8253 66.3398 21.1788C66.4479 19.5169 66.5777 18.0646 66.7292 16.822C66.8806 15.5795 66.9996 14.7562 67.0861 14.3524C67.1294 14.0573 67.1727 13.7855 67.2159 13.537C66.9131 13.4748 66.6535 13.3428 66.4371 13.1409ZM69.2278 28.9372C69.4441 28.7198 69.7037 28.4635 70.0066 28.1684C70.3311 27.8577 70.5799 27.6092 70.7529 27.4228C70.8827 27.252 71.1315 26.9025 71.4993 26.3744C71.8887 25.7997 72.1699 25.3337 72.343 24.9765C72.516 24.6037 72.6891 24.262 72.8622 23.9513C73.0569 23.6252 73.284 23.0582 73.5436 22.2506C73.8465 21.5205 74.0412 20.9536 74.1277 20.5498C74.2359 20.1925 74.29 19.6178 74.29 18.8257C74.29 18.0025 74.2575 17.4123 74.1926 17.055C74.1493 16.7133 73.9979 16.1619 73.7383 15.4008C73.522 14.6553 73.3381 14.1505 73.1867 13.8864C73.0352 13.6224 72.8405 13.3739 72.6026 13.1409C72.516 13.0166 72.2564 12.8768 71.8238 12.7215C71.456 12.5662 71.1856 12.473 71.0125 12.4419C70.8395 12.4419 70.6231 12.4575 70.3635 12.4885C70.3635 12.5817 70.3635 12.6594 70.3635 12.7215L70.2986 13.3506C70.2121 13.7544 70.1148 14.166 70.0066 14.5854C69.9633 14.9582 69.8552 15.7658 69.6821 17.0084C69.509 18.2199 69.3792 19.6334 69.2927 21.2487C69.2062 22.8486 69.1845 24.0445 69.2278 24.8367C69.2711 25.6599 69.2711 26.9335 69.2278 28.6576C69.2278 28.7508 69.2278 28.844 69.2278 28.9372Z" stroke="white" stroke-width="3.2963" mask="url(#path-2-outside-1_3_169)"/>
<path d="M84.8686 11.0906H85.2904C85.55 11.0906 86.0367 11.0596 86.7506 10.9974C87.5943 10.9664 88.2541 10.9508 88.7301 10.9508C89.2276 10.9508 89.7144 10.9353 90.1903 10.9042C90.7744 10.8732 91.4234 10.8576 92.1373 10.8576C92.743 10.8887 93.2947 10.912 93.7922 10.9275C94.3114 10.9431 94.7982 10.9664 95.2525 10.9974C95.5986 10.9974 95.9014 10.9974 96.161 10.9974L96.7127 10.9508C97.1021 10.9198 97.4482 11.0052 97.7511 11.2071C98.0756 11.3935 98.2595 11.642 98.3027 11.9527C98.346 12.2478 98.227 12.5041 97.9458 12.7215C97.6862 12.939 97.3617 13.0632 96.9723 13.0943L96.4531 13.1409C95.9988 13.1409 95.5121 13.1409 94.9929 13.1409C94.5818 13.1098 94.1383 13.0788 93.6624 13.0477C93.2081 13.0477 92.743 13.0322 92.2671 13.0011C92.3969 13.4205 92.4402 13.902 92.3969 14.4456C92.3969 14.8805 92.3969 15.261 92.3969 15.5872V16.6356C92.3969 16.9774 92.3752 17.5909 92.332 18.4762C92.2887 19.346 92.2671 20.0372 92.2671 20.5498C92.2238 20.9847 92.1806 21.505 92.1373 22.1108C92.1373 22.6233 92.1373 23.4232 92.1373 24.5105C92.1373 25.5822 92.1373 26.4054 92.1373 26.9801C92.1373 27.5548 92.1589 28.0829 92.2022 28.5644C92.2022 29.077 92.2022 29.5663 92.2022 30.0322C92.2022 30.5137 92.1806 31.1972 92.1373 32.0825C92.1373 32.9523 92.1373 33.5736 92.1373 33.9464V35.717C92.1373 36.4781 92.1373 37.0373 92.1373 37.3945C92.1373 37.7673 92.1373 38.1323 92.1373 38.4896C92.1373 38.7691 92.0832 39.2118 91.975 39.8176C91.9318 40.3301 91.9101 40.6796 91.9101 40.866C91.9101 40.866 91.9101 41.1067 91.9101 41.5882C91.9101 41.8678 91.8885 42.2639 91.8452 42.7765C91.7587 43.289 91.6938 43.7162 91.6505 44.0579C91.6073 44.3841 91.5856 44.6559 91.5856 44.8733V45.9217C91.5856 46.2169 91.4234 46.4654 91.0989 46.6673C90.796 46.8692 90.4499 46.9702 90.0605 46.9702C89.6711 46.9702 89.325 46.8692 89.0221 46.6673C88.7409 46.4654 88.6003 46.2169 88.6003 45.9217V44.8733C88.6003 44.5627 88.6219 44.2132 88.6652 43.8249C88.7084 43.5142 88.7733 43.1026 88.8599 42.5901C88.9031 42.1396 88.9248 41.8057 88.9248 41.5882V40.866C88.9248 40.6175 88.9464 40.2059 88.9897 39.6312C89.0762 39.1186 89.1195 38.707 89.1195 38.3964C89.1195 38.0702 89.1195 37.7518 89.1195 37.4411C89.1195 37.0528 89.1195 36.4781 89.1195 35.717V33.9464C89.1195 33.5736 89.1195 32.9368 89.1195 32.0359C89.1627 31.1816 89.1844 30.5293 89.1844 30.0788C89.1844 29.6129 89.1844 29.1236 89.1844 28.611C89.1411 27.6791 89.1195 27.151 89.1195 27.0267C89.1195 26.452 89.1195 25.6133 89.1195 24.5105C89.1195 23.3611 89.1195 22.5301 89.1195 22.0176C89.1627 21.8001 89.1952 21.5128 89.2168 21.1555C89.2384 20.7828 89.2493 20.5498 89.2493 20.4566C89.2493 19.9751 89.2709 19.2994 89.3142 18.4296C89.3791 17.5443 89.4115 16.9463 89.4115 16.6356V15.5872C89.4115 15.23 89.4115 14.8184 89.4115 14.3524C89.4548 14.0262 89.4331 13.7855 89.3466 13.6302L89.1844 13.1875C89.1411 13.1564 89.1195 13.1254 89.1195 13.0943C89.0329 13.0943 88.9464 13.0943 88.8599 13.0943C88.3839 13.0943 87.7674 13.1098 87.0102 13.1409C86.1665 13.203 85.5933 13.2341 85.2904 13.2341H84.8686C84.4359 13.2341 84.0681 13.1254 83.7653 12.9079C83.484 12.6904 83.3434 12.4419 83.3434 12.1624C83.3434 11.8672 83.484 11.6187 83.7653 11.4168C84.0681 11.1994 84.4359 11.0906 84.8686 11.0906Z" stroke="white" stroke-width="3.2963" mask="url(#path-2-outside-1_3_169)"/>
</svg>
